<svg width="60" height="71" viewBox="0 0 60 71" fill="none" xmlns="http://www.w3.org/2000/svg">
<path d="M19.3102 67.3304C19.2296 67.248 19.1455 67.1766 19.0648 67.1162C18.9806 67.0576 18.8598 66.9844 18.7023 66.9037C19.3633 66.5357 19.6947 65.9699 19.6947 65.2045C19.6947 64.8676 19.6361 64.5636 19.5189 64.2927C19.4018 64.0218 19.237 63.791 19.0245 63.6006C18.8103 63.4102 18.5484 63.2618 18.2408 63.1575C17.9332 63.0513 17.5926 63 17.219 63H14V71.0091H17.3545C17.7281 71.0091 18.0686 70.9541 18.3726 70.8461C18.6766 70.738 18.9329 70.5843 19.149 70.3846C19.3614 70.185 19.5243 69.947 19.636 69.6649C19.7496 69.383 19.8063 69.0662 19.8063 68.7128C19.8063 68.4289 19.7679 68.1744 19.6872 67.9492C19.6087 67.7242 19.4824 67.5191 19.3102 67.3304ZM15.5639 64.3953H17.0947C17.417 64.3953 17.6696 64.476 17.8545 64.6407C18.0377 64.8055 18.131 65.0326 18.131 65.3164C18.131 65.6021 18.0376 65.8273 17.8545 65.9921C17.6696 66.1569 17.417 66.2393 17.0947 66.2393H15.5639V64.3953ZM17.9607 69.3502C17.7721 69.5259 17.5194 69.6138 17.1971 69.6138H15.5639V67.6454H17.1972C17.5195 67.6454 17.7721 67.7314 17.9608 67.9036C18.1495 68.0757 18.241 68.3174 18.241 68.625C18.241 68.9326 18.1494 69.1744 17.9607 69.3502Z" fill="black"/>
<path d="M24.5654 63L21.6504 71.0091H23.2819L23.767 69.5918H26.6125L27.085 71.0091H28.7146L25.7904 63H24.5654ZM24.2046 68.2753L25.2172 65.3621L26.195 68.2753H24.2046Z" fill="black"/>
<path d="M35.3977 67.9036L32.2264 63H30.8311V71.0091H32.3948V66.0927L35.5662 71.0091H36.9615V63H35.3977V67.9036Z" fill="black"/>
<path d="M46.2321 63H44.3296L41.5061 66.4863V63H39.9424V71.0091H41.5061V68.6012L42.5425 67.3652L44.6006 71.0091H46.4244L43.5771 66.1825L46.2321 63Z" fill="black"/>
<g clip-path="url(#clip0_464_77)">
<path d="M56.25 54.375C56.25 52.3041 54.5709 50.625 52.5 50.625H50.625V23.4375H56.25C57.9328 23.4375 59.4084 22.3181 59.8613 20.6981C60.315 19.0781 59.6344 17.355 58.1972 16.4822L31.9472 0.544687C31.3491 0.180937 30.6741 0 30 0C29.3259 0 28.6519 0.180937 28.0537 0.544687L1.80375 16.4822C0.366563 17.355 -0.315 19.0791 0.139688 20.6981C0.5925 22.3181 2.06906 23.4375 3.75 23.4375H9.375V50.625H7.5C5.42906 50.625 3.75 52.3041 3.75 54.375C1.67906 54.375 0 56.0541 0 58.125V60H60V58.125C60 56.0541 58.3209 54.375 56.25 54.375ZM48.75 50.625H45V23.4375H48.75V50.625ZM16.875 23.4375H20.625V50.625H16.875V23.4375ZM22.5 23.4375H26.25V50.625H22.5V23.4375ZM28.125 23.4375H31.875V50.625H28.125V23.4375ZM33.75 23.4375H37.5V50.625H33.75V23.4375ZM39.375 23.4375H43.125V50.625H39.375V23.4375ZM3.75 21.5625C2.91281 21.5625 2.17031 20.9991 1.94437 20.1919C1.71844 19.3866 2.06062 18.5194 2.77687 18.0853L29.0269 2.14687C29.3203 1.96875 29.6578 1.875 30 1.875C30.3441 1.875 30.6797 1.96875 30.9741 2.14781L57.2241 18.0853C57.9403 18.5194 58.2825 19.3866 58.0556 20.1928C57.8306 20.9991 57.0872 21.5625 56.25 21.5625H3.75ZM11.25 23.4375H15V50.625H11.25V23.4375ZM7.5 52.5H52.5C53.5359 52.5 54.375 53.34 54.375 54.375H5.625C5.625 53.34 6.465 52.5 7.5 52.5ZM1.875 58.125C1.875 57.09 2.715 56.25 3.75 56.25H56.25C57.2859 56.25 58.125 57.09 58.125 58.125H1.875Z" fill="#231F20"/>
<path d="M30 8.4375C27.4106 8.4375 25.3125 10.5356 25.3125 13.125C25.3125 15.7144 27.4106 17.8125 30 17.8125C32.5894 17.8125 34.6875 15.7144 34.6875 13.125C34.6875 10.5356 32.5894 8.4375 30 8.4375ZM30 15.9375C28.4475 15.9375 27.1875 14.6784 27.1875 13.125C27.1875 11.5716 28.4475 10.3125 30 10.3125C31.5544 10.3125 32.8125 11.5716 32.8125 13.125C32.8125 14.6784 31.5544 15.9375 30 15.9375Z" fill="#231F20"/>
</g>
<defs>
<clipPath id="clip0_464_77">
<rect width="60" height="60" fill="white"/>
</clipPath>
</defs>
</svg>
