<svg width="40" height="40" viewBox="0 0 40 40" fill="none" xmlns="http://www.w3.org/2000/svg">
<g clip-path="url(#clip0_21_1130)">
<path d="M39.9363 20.9424L36.9109 5.74898C36.557 3.97468 34.826 2.81898 33.053 3.17273L11.2969 7.50515C10.9377 7.57664 10.7047 7.9257 10.7762 8.28468C10.8477 8.64367 11.1963 8.87679 11.5557 8.80539L33.3119 4.47289C34.3685 4.26218 35.3996 4.95086 35.6105 6.00804L35.727 6.59296L31.1556 7.50343C30.7964 7.57492 30.5634 7.92398 30.6349 8.28297C30.6976 8.59828 30.9745 8.81656 31.2843 8.81656C31.3272 8.81656 31.3709 8.81242 31.4145 8.80367L35.9859 7.8932L36.8336 12.1502L27.7938 13.9505L17.7606 11.5229L28.7374 9.33679C29.0965 9.26531 29.3295 8.91625 29.2581 8.55726C29.1866 8.19828 28.8376 7.965 28.4785 8.03656L14.6961 10.7814L7.47361 9.03398C5.87103 8.64625 4.2522 9.63445 3.86455 11.2369L0.0850142 26.8577C-0.102798 27.6338 0.0229048 28.4367 0.438999 29.1184C0.855092 29.8002 1.51173 30.2789 2.2879 30.4667L28.4881 36.8059C28.7232 36.8629 28.9608 36.8909 29.1967 36.8909C29.7396 36.8909 30.2738 36.742 30.7489 36.452C31.4306 36.0359 31.9094 35.3792 32.0972 34.603C32.1833 34.2472 31.9646 33.889 31.6088 33.8029C31.2528 33.7166 30.8946 33.9355 30.8086 34.2913C30.5927 35.1831 29.6916 35.733 28.7998 35.5174L2.59962 29.1782C2.16759 29.0737 1.80212 28.8072 1.57056 28.4277C1.339 28.0483 1.269 27.6014 1.37353 27.1694L3.30025 19.206L10.4196 20.9285C10.472 20.9412 10.5245 20.9473 10.576 20.9473C10.875 20.9473 11.1463 20.7435 11.2199 20.4401C11.306 20.0842 11.0873 19.726 10.7314 19.6399L3.61205 17.9174L4.63283 13.6986L34.068 20.8205L33.0472 25.0393L13.1675 20.2293C12.8116 20.1431 12.4535 20.3619 12.3674 20.7177C12.2813 21.0736 12.4999 21.4318 12.8558 21.5179L32.7355 26.3279L31.3677 31.9812C31.2816 32.3371 31.5002 32.6953 31.8561 32.7814C32.2117 32.8676 32.5702 32.6488 32.6563 32.293L34.3231 25.4037L37.3601 24.7995C39.1344 24.4455 40.2901 22.7152 39.9363 20.9424ZM34.5882 18.6705L34.3797 19.532L4.94455 12.4102L5.15306 11.5485C5.36884 10.6567 6.27001 10.1069 7.16189 10.3224L33.3621 16.6616C34.2539 16.8773 34.804 17.7785 34.5882 18.6705ZM38.3449 22.668C38.0549 23.1019 37.6131 23.3971 37.1011 23.4993L34.6667 23.9835L35.8768 18.9822C36.2645 17.3798 35.2763 15.7608 33.6739 15.3731L30.8585 14.6919L37.0927 13.4503L38.6361 21.2016C38.7382 21.7134 38.6349 22.2341 38.3449 22.668Z" fill="black"/>
<path d="M12.1643 23.7219L4.40093 21.8435C4.04491 21.7573 3.68679 21.9761 3.60077 22.332C3.51468 22.6878 3.73335 23.046 4.08921 23.1321L11.8526 25.0105C11.9049 25.0231 11.9573 25.0292 12.0089 25.0292C12.3079 25.0292 12.5792 24.8255 12.6527 24.522C12.7387 24.1662 12.5201 23.808 12.1643 23.7219Z" fill="black"/>
<path d="M7.26003 25.5566L3.79253 24.7176C3.43659 24.6313 3.07847 24.8502 2.99238 25.206C2.90628 25.5619 3.12495 25.9201 3.48081 26.0062L6.94824 26.8452C7.00066 26.8579 7.05308 26.8639 7.10464 26.8639C7.40363 26.8639 7.67495 26.6602 7.74847 26.3567C7.83456 26.0009 7.61589 25.6427 7.26003 25.5566Z" fill="black"/>
</g>
<defs>
<clipPath id="clip0_21_1130">
<rect width="40" height="40" fill="white"/>
</clipPath>
</defs>
</svg>
