<svg width="40" height="40" viewBox="0 0 40 40" fill="none" xmlns="http://www.w3.org/2000/svg">
<g clip-path="url(#clip0_21_1150)">
<path d="M34.1421 5.85787C30.3647 2.08034 25.3422 0 20 0C14.6578 0 9.63532 2.08034 5.85787 5.85787C2.08034 9.63532 0 14.6578 0 20C0 25.3422 2.08034 30.3647 5.85787 34.1421C9.63532 37.9197 14.6578 40 20 40C25.3422 40 30.3647 37.9197 34.1421 34.1421C37.9197 30.3647 40 25.3422 40 20C40 14.6578 37.9197 9.63532 34.1421 5.85787ZM20 38.7234C9.67583 38.7234 1.2766 30.3242 1.2766 20C1.2766 9.67583 9.67583 1.2766 20 1.2766C30.3242 1.2766 38.7234 9.67583 38.7234 20C38.7234 30.3242 30.3242 38.7234 20 38.7234Z" fill="black"/>
<path d="M32.7363 12.6766C33.0338 12.4873 33.1213 12.0928 32.932 11.7954C30.0962 7.34042 25.2617 4.68085 19.9999 4.68085C14.7381 4.68085 9.90364 7.34051 7.06772 11.7954C6.87836 12.0928 6.96602 12.4873 7.26338 12.6766C7.3696 12.7443 7.48832 12.7765 7.60551 12.7765C7.81649 12.7765 8.02296 12.672 8.14458 12.4808C10.7449 8.39617 15.1768 5.95744 19.9999 5.95744C24.823 5.95744 29.2549 8.39608 31.8551 12.4808C32.0445 12.7783 32.439 12.866 32.7363 12.6766Z" fill="black"/>
<path d="M30.0664 25.9321C30.4189 25.9321 30.7047 25.6463 30.7047 25.2938V14.8765C30.7047 13.0148 29.19 11.5001 27.3282 11.5001C25.6847 11.5001 24.3116 12.6806 24.0123 14.2382H23.5579V11.0638H24.158C24.5105 11.0638 24.7963 10.778 24.7963 10.4255C24.7963 10.073 24.5105 9.78723 24.158 9.78723H22.9926C22.9802 9.78723 22.9682 9.78834 22.9561 9.78902C22.9439 9.78834 22.9319 9.78723 22.9196 9.78723H21.9705C21.055 9.78723 20.3102 10.532 20.3102 11.4475V14.2382H19.6903V11.4475C19.6903 10.532 18.9455 9.78723 18.03 9.78723H17.081C17.0687 9.78723 17.0567 9.78834 17.0445 9.78902C17.0323 9.78834 17.0203 9.78723 17.008 9.78723H15.8425C15.49 9.78723 15.2042 10.073 15.2042 10.4255C15.2042 10.778 15.49 11.0638 15.8425 11.0638H16.4427V14.2382H15.9882C15.689 12.6806 14.3159 11.5001 12.6723 11.5001C10.8106 11.5001 9.2959 13.0147 9.2959 14.8765V25.2938C9.2959 25.6463 9.58169 25.9321 9.9342 25.9321C12.9624 25.9321 15.5117 23.7153 15.9826 20.7846H16.4269C16.5975 21.8616 17.1955 22.8011 18.0743 23.3771L15.9345 27.6986C15.8577 27.8538 15.8472 28.0335 15.9054 28.1966C15.9637 28.3597 16.0857 28.4921 16.2435 28.5634C16.3078 28.5925 17.845 29.2766 20.0002 29.2766C22.1555 29.2766 23.6927 28.5925 23.757 28.5634C23.9148 28.4921 24.0368 28.3597 24.095 28.1966C24.1533 28.0335 24.1428 27.8538 24.0659 27.6986L21.9262 23.3771C22.805 22.801 23.403 21.8616 23.5736 20.7846H24.0179C24.4888 23.7153 27.0382 25.9321 30.0664 25.9321ZM25.2237 20.082C25.2139 19.9869 25.1337 19.512 24.5167 19.5086L24.459 19.5083C24.4537 19.5082 24.4483 19.5081 24.4429 19.5081H22.9854C22.6329 19.5081 22.3471 19.7939 22.3471 20.1464C22.3471 21.1906 21.7399 22.1426 20.8361 22.5156C20.6726 22.5831 20.5444 22.7153 20.4821 22.8808C20.4198 23.0464 20.429 23.2304 20.5075 23.3888L22.6029 27.6207C22.0293 27.7917 21.1048 28 20.0002 28C18.8956 28 17.9708 27.7917 17.3976 27.6206L19.493 23.3888C19.5715 23.2303 19.5807 23.0463 19.5184 22.8808C19.4562 22.7152 19.3279 22.583 19.1644 22.5155C18.2606 22.1426 17.6533 21.1905 17.6533 20.1463C17.6533 19.7938 17.3676 19.508 17.015 19.508H15.5576C15.5522 19.508 15.5468 19.5081 15.5414 19.5082L15.4838 19.5085C14.8668 19.5119 14.7866 19.9868 14.7767 20.082C14.7758 20.0907 14.7751 20.0995 14.7746 20.1083C14.6312 22.4426 12.837 24.3138 10.5725 24.6135V14.8765C10.5725 13.7187 11.5145 12.7767 12.6723 12.7767C13.8302 12.7767 14.7722 13.7186 14.7722 14.8765C14.7722 15.229 15.0579 15.5148 15.4105 15.5148H17.081C17.4335 15.5148 17.7193 15.229 17.7193 14.8765V11.0638H18.03C18.2416 11.0638 18.4137 11.2359 18.4137 11.4475V14.8765C18.4137 15.229 18.6995 15.5148 19.052 15.5148H20.9485C21.301 15.5148 21.5868 15.229 21.5868 14.8765V11.4475C21.5868 11.2359 21.7589 11.0638 21.9705 11.0638H22.2812V14.8765C22.2812 15.229 22.567 15.5148 22.9195 15.5148H24.59C24.9425 15.5148 25.2283 15.229 25.2283 14.8765C25.2283 13.7187 26.1703 12.7767 27.3282 12.7767C28.486 12.7767 29.428 13.7186 29.428 14.8765V24.6135C27.1634 24.3139 25.3693 22.4426 25.2259 20.1083C25.2253 20.0996 25.2247 20.0908 25.2237 20.082Z" fill="black"/>
<path d="M17.6598 33.7305C17.3073 33.7305 17.0215 34.0163 17.0215 34.3688C17.0215 34.7213 17.3073 35.0071 17.6598 35.0071H22.3406C22.6931 35.0071 22.9789 34.7213 22.9789 34.3688C22.9789 34.0163 22.6931 33.7305 22.3406 33.7305H17.6598Z" fill="black"/>
<path d="M25.319 31.5036C25.319 31.1511 25.0332 30.8653 24.6807 30.8653H15.319C14.9665 30.8653 14.6807 31.1511 14.6807 31.5036C14.6807 31.8561 14.9665 32.1419 15.319 32.1419H24.6807C25.0332 32.1419 25.319 31.8561 25.319 31.5036Z" fill="black"/>
<path d="M35.8062 26.8971C35.4887 26.7438 35.1071 26.8768 34.9537 27.1942C32.1946 32.9054 26.3248 36.5957 19.9999 36.5957C11.3533 36.5957 4.08369 29.8462 3.44974 21.2298C3.42386 20.8783 3.11816 20.6146 2.76633 20.64C2.41476 20.6659 2.15076 20.9718 2.17654 21.3234C2.5065 25.8079 4.50863 29.977 7.81416 33.0628C11.1365 36.1642 15.4642 37.8723 19.9999 37.8723C23.4217 37.8723 26.7495 36.898 29.6235 35.0545C32.4205 33.2604 34.6611 30.7344 36.1033 27.7495C36.2565 27.4321 36.1235 27.0505 35.8062 26.8971Z" fill="black"/>
<path d="M19.9999 2.12766C15.4642 2.12766 11.1366 3.83574 7.81417 6.93719C4.50864 10.0229 2.50651 14.1921 2.17655 18.6766C2.15068 19.0282 2.41477 19.3341 2.76634 19.36C3.11792 19.3855 3.42396 19.1219 3.44975 18.7702C4.0837 10.1538 11.3533 3.40425 19.9999 3.40425C29.1508 3.40425 36.5956 10.8491 36.5956 20C36.5956 21.6718 36.3464 23.3228 35.8549 24.9074C35.7505 25.2441 35.9388 25.6017 36.2755 25.7061C36.3385 25.7256 36.4022 25.735 36.4648 25.735C36.7371 25.735 36.9893 25.5594 37.0743 25.2856C37.6037 23.5785 37.8722 21.8001 37.8722 20C37.8722 10.1452 29.8547 2.12766 19.9999 2.12766Z" fill="black"/>
</g>
<defs>
<clipPath id="clip0_21_1150">
<rect width="40" height="40" fill="white"/>
</clipPath>
</defs>
</svg>
