<svg width="68" height="48" viewBox="0 0 68 48" fill="none" xmlns="http://www.w3.org/2000/svg">
<path d="M60.1335 8.21647L34.0002 27.4498L7.86686 8.21647M4.78353 1.8498C3.89947 1.8498 3.05163 2.20099 2.42651 2.82612C1.80139 3.45124 1.4502 4.29908 1.4502 5.18314V42.8665C1.4502 43.7505 1.80139 44.5984 2.42651 45.2235C3.05163 45.8486 3.89947 46.1998 4.78353 46.1998H63.2169C64.1009 46.1998 64.9488 45.8486 65.5739 45.2235C66.199 44.5984 66.5502 43.7505 66.5502 42.8665V5.13314C66.5502 4.24908 66.199 3.40124 65.5739 2.77611C64.9488 2.15099 64.1009 1.7998 63.2169 1.7998H4.78353V1.8498Z" stroke="black" stroke-width="1.66667" stroke-linecap="round" stroke-linejoin="round"/>
</svg>
