<svg width="89" height="89" viewBox="0 0 89 89" fill="none" xmlns="http://www.w3.org/2000/svg">
<path d="M60.4923 60.9441C60.7705 61.0484 61.2224 61.1875 61.7439 61.1527C62.5783 61.1179 63.3431 60.7703 63.8994 60.214C64.5252 59.5882 64.8381 58.7539 64.8381 57.8847C64.7685 52.6351 68.106 48.0461 73.0775 46.4816C73.4252 46.3773 73.7728 46.2035 74.0857 45.9601C74.781 45.4386 75.233 44.6738 75.3373 43.8742C75.4763 43.005 75.2677 42.1359 74.7463 41.4058C71.6173 37.1992 71.5826 31.5324 74.7115 27.3257L75.0939 26.839L75.2677 26.3175C75.5459 25.4832 75.4416 24.5793 75.0591 23.8839C74.6767 23.0843 73.9814 22.4933 73.147 22.25C68.1755 20.6507 64.8381 16.0964 64.9076 10.8816C64.9076 10.4644 64.8381 10.1168 64.7338 9.7691C64.4556 8.96949 63.8646 8.30894 63.065 7.89176C62.3002 7.5441 61.431 7.47457 60.6314 7.75269C59.4146 8.16988 58.1283 8.37847 56.842 8.37847C53.0177 8.37847 49.4021 6.5359 47.2119 3.40699C46.9685 3.0941 46.6904 2.81597 46.447 2.64215C44.9869 1.59918 42.9705 1.94683 41.9275 3.40699C39.7025 6.5359 36.1216 8.37847 32.2974 8.37847C30.9763 8.37847 29.7248 8.16988 28.5427 7.75269C27.4302 7.37027 26.0049 7.6484 25.1705 8.51754C24.5447 9.14332 24.2318 9.97769 24.2318 10.8121C24.3013 16.0617 20.9638 20.6507 15.9924 22.1804C15.6099 22.2847 15.297 22.4586 14.9494 22.7019C13.524 23.7796 13.2459 25.7961 14.2888 27.2562C17.4177 31.4629 17.4177 37.1296 14.2888 41.3711C14.0802 41.6492 13.9064 41.9968 13.8021 42.3097C13.5588 43.1441 13.6283 43.9785 14.0107 44.8128C14.4279 45.5777 15.1232 46.1339 15.8881 46.3773C20.8943 47.9765 24.197 52.5656 24.1275 57.7109C24.0927 58.1281 24.1623 58.5105 24.3013 58.8929C24.5795 59.6925 25.1705 60.3531 25.9701 60.7703C26.7697 61.1179 27.6041 61.1875 28.4037 60.9093C29.6552 60.4921 30.9763 60.2836 32.2627 60.2836C36.1216 60.2836 39.5982 62.0914 41.858 65.255C42.0666 65.5332 42.3447 65.8113 42.6228 66.0199C43.1791 66.4023 43.8396 66.6109 44.5002 66.6109C44.674 66.6109 44.8826 66.6109 45.0564 66.5761C45.9256 66.4371 46.6556 65.9504 47.1424 65.255C50.167 61.0484 55.5209 59.2754 60.4923 60.9441ZM44.4654 63.1691C41.6146 59.2406 37.0603 56.9113 32.2279 56.9113C30.6287 56.9113 28.9947 57.1546 27.4998 57.6761C27.4998 51.0707 23.2931 45.2648 17.0701 43.2832C20.9638 37.9293 20.9638 30.8023 17.1049 25.4484C23.3627 23.3972 27.5345 17.6609 27.5693 11.0554C29.0642 11.5421 30.6287 11.7855 32.2279 11.7855C37.0603 11.7855 41.6494 9.45621 44.5002 5.56246C47.3509 9.45621 51.94 11.7855 56.8072 11.7855C58.4412 11.7855 60.0404 11.5421 61.4658 11.0207C61.4658 17.5566 65.6029 23.2929 71.8607 25.4136C68.0017 30.7675 68.0017 37.8597 71.8607 43.2484C65.6029 45.2996 61.4658 51.0359 61.431 57.6414C55.1384 55.625 48.3939 57.8152 44.4654 63.1691Z" fill="#000"/>
<path d="M58.5457 32.0191C53.2266 29.7941 49.0547 25.657 46.7949 20.3379C46.4125 19.3992 45.4738 18.7734 44.4656 18.7734C43.4574 18.7734 42.5187 19.3992 42.1363 20.3031C39.8766 25.5875 35.7395 29.7246 30.4551 31.9844C29.5164 32.3668 28.8906 33.2707 28.8906 34.2789C28.8906 35.2871 29.4816 36.191 30.4203 36.6082C35.5309 38.8332 39.7723 43.1441 42.1016 48.4285C42.5188 49.3672 43.4227 49.9582 44.3961 49.9582C45.4043 49.9582 46.3082 49.3672 46.6906 48.4285C48.9156 43.2832 53.2266 39.007 58.5457 36.643C59.4496 36.2258 60.0406 35.3219 60.0406 34.3137C60.0754 33.3055 59.4844 32.4016 58.5457 32.0191ZM44.4309 45.4039C41.9277 40.6758 38.0688 36.782 33.4797 34.3137C38.2078 31.8801 42.032 28.0906 44.4656 23.3625C46.8992 28.1254 50.7582 31.9496 55.5211 34.3484C50.7582 36.8863 46.8645 40.7801 44.4309 45.4039Z" fill="#000"/>
<path d="M34.2793 65.6375C33.4797 65.116 32.4367 65.3593 31.9152 66.1242L22.8066 80.0652L18.2523 70.7132L8.76133 70.6785L18.2871 56.0769C18.8086 55.2773 18.5652 54.2343 17.8004 53.7129C17.0008 53.1914 15.9578 53.4347 15.4363 54.1996L2.46875 74.0855L16.1316 74.1203L22.3895 86.9488L34.766 68.0015C35.2875 67.2019 35.0789 66.1242 34.2793 65.6375Z" fill="#000"/>
<path d="M73.5298 54.1995C73.0083 53.3999 71.9653 53.1913 71.1657 53.7128C70.3661 54.2343 70.1575 55.2773 70.679 56.0769L80.2396 70.6784L70.7138 70.7132L66.1595 80.0652L57.0509 66.1241C56.5294 65.3245 55.4864 65.1159 54.6868 65.6374C53.8872 66.1589 53.6786 67.2019 54.2001 68.0015L66.6114 86.9487L72.8693 74.1202L86.5321 74.0855L73.5298 54.1995Z" fill="#000"/>
</svg>
