<svg width="80" height="80" viewBox="0 0 80 80" fill="none" xmlns="http://www.w3.org/2000/svg">
<path d="M30.0001 60.8333C29.6644 60.822 29.3345 60.7423 29.0307 60.599C28.7269 60.4557 28.4556 60.252 28.2334 60L11.5667 43.3333C11.2489 43.1273 10.9821 42.852 10.7864 42.5277C10.5907 42.2033 10.4712 41.839 10.437 41.4617C10.4028 41.0847 10.4547 40.7047 10.5888 40.3503C10.7229 39.9963 10.9357 39.677 11.2112 39.4173C11.4867 39.1573 11.8176 38.9633 12.179 38.8503C12.5404 38.737 12.9228 38.7073 13.2973 38.7633C13.6719 38.8193 14.0287 38.96 14.341 39.1743C14.6533 39.3883 14.9129 39.671 15.1001 40L30.0001 54.8L64.9 20.0001C65.37 19.6955 65.9284 19.5574 66.486 19.608C67.0437 19.6586 67.5684 19.895 67.9757 20.2793C68.383 20.6636 68.6494 21.1734 68.7324 21.7272C68.8154 22.281 68.71 22.8466 68.4334 23.3334L31.7667 60C31.5445 60.252 31.2732 60.4557 30.9694 60.599C30.6656 60.7423 30.3358 60.822 30.0001 60.8333Z" fill="black"/>
</svg>
