<svg width="80" height="80" viewBox="0 0 80 80" fill="none" xmlns="http://www.w3.org/2000/svg">
<path d="M38.4949 77.49C36.2799 77.455 34.0724 77.42 31.8574 77.3475L30.7024 77.32C30.0874 77.3075 29.4724 77.295 28.8599 77.2675C27.8624 77.2175 26.8774 77.1225 25.8874 77.0175C25.4224 77.2875 25.0624 77.41 24.6999 77.41C23.5599 77.41 22.6249 76.475 22.6149 75.325C22.5749 72.03 22.7624 68.6775 22.9424 65.435L23.0899 62.6975C23.2224 60.065 23.3824 58.0525 23.6049 56.1775C23.8874 53.7375 24.2474 51.2825 24.6774 48.88C25.0674 46.71 25.5774 44.5025 26.1949 42.32C26.5099 41.1825 26.8449 40.0525 27.1974 38.9275L27.4274 38.1975C27.6874 37.37 27.9474 36.54 28.2624 35.7325C29.0624 33.6775 30.0624 31.57 31.4149 29.105C32.4524 27.205 33.4424 25.2875 34.4224 23.3575C33.8924 22.3275 33.2724 21.475 32.6549 20.625L32.0349 19.76C31.0249 18.3225 30.0124 16.8875 28.9874 15.46H28.8649L28.7174 15.525C28.6724 16.8975 28.6299 18.2675 28.5949 19.6375C28.5724 20.5975 28.5149 21.585 28.6099 22.5425C28.6799 23.255 28.7949 24.0625 28.4099 24.7175C28.1199 25.2125 27.6399 25.5825 27.0924 25.7325C26.9174 25.78 26.7324 25.8025 26.5449 25.8025C25.6549 25.8025 24.5974 25.2425 24.3899 24.2C24.1549 23.06 24.1724 21.85 24.1899 20.68L24.1974 19.645C24.1899 18.2575 24.1899 16.87 24.2149 15.4825L23.7524 15.355H23.0824C22.6149 15.355 22.1624 15.33 21.6999 15.2425C21.0199 15.115 20.3974 14.6825 20.0374 14.0825C19.3174 12.875 19.4299 11.3475 19.5274 10.0025C19.6099 8.8425 19.6049 7.705 19.5999 6.56C19.5999 5.8075 19.8249 5.3 20.2324 4.9175C20.5299 4.0925 21.2549 3.56 22.0699 3.5425L24.5924 3.5L26.5724 3.485C28.0599 3.48 29.5499 3.475 31.0399 3.395C32.1774 3.335 33.3124 3.245 34.4499 3.1575C35.5349 3.0725 36.6174 2.9875 37.7049 2.9275C39.8349 2.81 41.9624 2.755 44.0974 2.72L45.9374 2.7C47.4249 2.69 48.9124 2.6775 50.4274 2.59C50.7099 2.59 50.8849 2.6525 51.0699 2.72C51.4799 2.57 51.7649 2.5 52.0449 2.5C52.5874 2.5 53.1224 2.7225 53.5149 3.11C53.9324 3.53 54.0599 4.0075 54.1249 4.595C54.1899 5.265 54.1349 5.975 54.0774 6.6575C54.0524 6.9575 54.0299 7.255 54.0174 7.5525C53.9724 8.5875 53.9174 9.6275 53.8324 10.665L53.7999 11.0025C53.7199 11.94 53.6374 12.885 53.5224 13.8275L53.4824 14.1675C53.4499 14.4575 53.4199 14.7425 53.3574 15.025C53.2149 15.67 52.9374 16.2175 52.4574 16.8025L51.8349 17.565C50.8399 18.8925 49.9149 20.27 48.9874 21.6425L47.8724 23.28L47.8024 23.4625C47.8374 23.535 47.8524 23.62 47.8699 23.7075C48.9049 25.55 49.8499 27.23 50.7874 28.915C51.9799 31.05 52.8899 33.2825 53.6224 35.1825C54.4624 37.38 55.2749 39.505 55.9399 41.6375C56.3274 42.855 56.6424 44.095 56.9399 45.34C57.3524 45.9325 57.5024 46.6125 57.3649 47.1975L57.5324 47.9975C57.9699 50.1325 58.3324 52.2875 58.6649 54.4375C58.7924 55.2525 58.8774 56.0725 58.9649 56.8925L59.0849 58.0225C59.2049 59.0775 59.3224 60.1325 59.3924 61.1925C59.4999 62.74 59.6624 64.28 59.8199 65.8175L59.9874 67.4225C60.0649 68.2225 60.1249 69.0275 60.1849 69.83C60.2674 70.9425 60.3524 72.0575 60.4824 73.1625C60.5074 73.3175 60.5274 73.4625 60.5374 73.6025C60.5674 74.0625 60.4799 74.4425 60.2724 74.7975C60.1274 75.045 59.9099 75.2625 59.6049 75.465C59.4624 76.0025 59.2899 76.36 59.0324 76.6175C58.5899 77.055 58.0799 77.16 57.5949 77.205C56.7624 77.29 55.9374 77.3 55.1049 77.3L50.1599 77.3075C48.4099 77.3075 46.6624 77.3275 44.9099 77.385C43.1599 77.4425 41.4174 77.5 39.6699 77.5L38.4949 77.49ZM33.6749 41.0175C32.8024 41.0175 31.9274 41.065 31.0549 41.115C30.5624 42.485 30.1849 43.7675 29.8499 45.06C29.4399 46.6575 29.1399 48.265 28.8424 49.9075C28.5449 51.535 28.2774 53.1675 28.0374 54.8125C27.8174 56.5525 27.6349 58.295 27.5099 60.0375C27.4474 60.9425 27.2024 65.08 27.2024 65.08C27.0224 67.72 26.9199 70.3625 26.8474 73.0125C28.5424 73.295 30.1224 73.3975 31.7124 73.4725C33.8149 73.575 35.9199 73.62 38.0274 73.62C40.3049 73.62 42.5824 73.5675 44.8599 73.4875C46.9824 73.4125 49.1049 73.3775 51.2324 73.355C52.8824 73.34 54.5449 73.32 56.1974 73.235C56.2274 72.2925 56.1574 71.4825 56.0924 70.6775L55.9549 69.1125L55.7649 67.255C55.6624 66.305 55.5624 65.355 55.4824 64.4025L55.3499 62.6875C55.2724 61.635 55.1924 60.5825 55.0774 59.535C54.9224 58.1025 54.7524 56.67 54.5824 55.235C54.2824 53.175 53.9149 51.0975 53.4399 48.8075C52.3174 48.6525 51.3149 48.625 50.3074 48.5975L49.4174 48.5725C47.1574 48.51 44.8999 48.385 42.6374 48.2625L42.5049 48.255L42.4624 48.4975C42.3749 50.8025 42.2499 53.11 42.0874 55.4075L42.0074 56.7C41.9624 57.465 41.9149 58.225 41.8524 58.9875L41.8074 59.56C41.7274 60.6025 41.6449 61.6825 41.4099 62.7025C41.2174 63.5525 40.8124 64.355 40.2049 65.085C39.5349 65.8875 38.5649 66.485 37.3249 66.86C36.0474 67.25 34.6774 67.3675 33.3824 67.455H33.3749C32.0424 67.455 31.1399 66.2675 31.1399 65.205C31.1399 63.9725 32.1499 62.965 33.3899 62.96C33.9074 62.955 34.4199 62.9325 34.9324 62.8875C35.4524 62.7975 35.9474 62.6775 36.4374 62.52L36.7424 62.3375L37.0274 61.9675C37.1499 61.5875 37.2324 61.2 37.2974 60.8075C37.5824 58.4075 37.7099 55.95 37.8324 53.5775L37.8774 52.7175C37.9524 51.2575 38.0024 49.8 38.0349 48.34C38.0724 46.7975 38.0324 45.545 37.9074 44.4C37.7474 43.55 37.5624 42.855 37.3249 42.2075C37.2224 41.9975 37.1174 41.805 36.9999 41.62L36.6999 41.4175C36.2749 41.2725 35.8674 41.17 35.4449 41.095C34.8524 41.0375 34.2649 41.0175 33.6749 41.0175ZM35.1924 36.56C35.8774 36.5725 36.7699 36.6175 37.5999 36.8375C38.3649 37.05 39.0074 37.35 39.5074 37.7275C40.1099 38.1825 40.5049 38.59 40.8299 39.0875C41.1099 39.5175 41.2974 39.945 41.4974 40.42C41.8624 41.2975 42.1149 42.3 42.2899 43.57L44.4749 43.8C46.1974 43.9075 52.2024 44.255 52.2024 44.255C51.5424 41.1975 50.5074 38.21 49.1674 34.96C48.0099 32.2575 46.5524 29.7375 44.7224 26.7825C43.4149 26.66 42.2074 26.605 41.0024 26.5525L38.2949 26.43C38.1149 26.42 37.9499 26.37 37.7724 26.315L36.4699 28.3175C35.2099 30.6475 33.9099 33.055 32.8124 35.5125C32.7299 35.715 32.4024 36.6375 32.4024 36.6375L33.4124 36.6C33.9049 36.58 34.3974 36.5575 34.8899 36.5575L35.1924 36.56ZM41.9874 6.7625C40.0099 6.7625 38.0349 6.7875 36.0574 6.8775C35.2224 6.9175 34.3874 6.965 33.5549 7.015C32.1874 7.0925 30.8199 7.175 29.4474 7.215C28.1624 7.2525 23.6674 7.355 23.6674 7.355L23.5274 7.885C23.4924 8.9625 23.4549 10.0775 23.5524 11.1625C24.1674 11.31 24.6674 11.32 25.1649 11.33L26.8649 11.3825C27.7174 11.41 28.5699 11.44 29.4199 11.4525C29.9424 11.465 30.4349 11.6725 30.8099 12.04C31.4499 12.2125 31.8149 12.4925 32.1874 13.0225C33.0974 14.3125 33.9749 15.6275 34.8499 16.9425L35.5099 17.93L36.1899 18.9175C36.7899 19.7725 37.4099 20.66 37.8949 21.5925L38.2749 21.625L43.9874 21.97C44.1599 21.5925 44.2449 21.365 44.3774 21.17L48.5074 15.3C48.7674 14.9375 49.0349 14.5675 49.2549 14.1775C49.3399 13.8825 49.3899 13.6125 49.4374 13.3425C49.6124 11.9475 49.7799 10.4625 49.8399 8.9925C49.8724 8.3 49.8999 7.605 49.9174 6.91L49.2349 6.7825L41.9874 6.7625Z" fill="#111918"/>
</svg>
