<svg width="60" height="60" viewBox="0 0 60 60" fill="none" xmlns="http://www.w3.org/2000/svg">
<path fill-rule="evenodd" clip-rule="evenodd" d="M25.0762 10.2206L15.795 26.25H11.25C9.7575 26.25 8.32687 26.8425 7.27312 27.8981C6.2175 28.9519 5.625 30.3825 5.625 31.875V50.625C5.625 52.1175 6.2175 53.5481 7.27312 54.6019C8.32687 55.6575 9.7575 56.25 11.25 56.25C19.725 56.25 40.275 56.25 48.75 56.25C50.2425 56.25 51.6731 55.6575 52.7269 54.6019C53.7825 53.5481 54.375 52.1175 54.375 50.625V31.875C54.375 30.3825 53.7825 28.9519 52.7269 27.8981C51.6731 26.8425 50.2425 26.25 48.75 26.25H43.3706L34.9088 10.2469C35.3644 9.435 35.625 8.4975 35.625 7.5C35.625 4.395 33.105 1.875 30 1.875C26.895 1.875 24.375 4.395 24.375 7.5C24.375 8.48625 24.63 9.41438 25.0762 10.2206ZM11.25 30H48.75C49.2469 30 49.725 30.1969 50.0756 30.5494C50.4281 30.9 50.625 31.3781 50.625 31.875V50.625C50.625 51.1219 50.4281 51.6 50.0756 51.9506C49.725 52.3031 49.2469 52.5 48.75 52.5H11.25C10.7531 52.5 10.275 52.3031 9.92437 51.9506C9.57187 51.6 9.375 51.1219 9.375 50.625V31.875C9.375 31.3781 9.57187 30.9 9.92437 30.5494C10.275 30.1969 10.7531 30 11.25 30ZM30 38.5987L25.7006 34.2994C24.9694 33.5681 23.7806 33.5681 23.0494 34.2994C22.3181 35.0306 22.3181 36.2194 23.0494 36.9506L27.3487 41.25L23.0494 45.5494C22.3181 46.2806 22.3181 47.4694 23.0494 48.2006C23.7806 48.9319 24.9694 48.9319 25.7006 48.2006L30 43.9013L34.2994 48.2006C35.0306 48.9319 36.2194 48.9319 36.9506 48.2006C37.6819 47.4694 37.6819 46.2806 36.9506 45.5494L32.6513 41.25L36.9506 36.9506C37.6819 36.2194 37.6819 35.0306 36.9506 34.2994C36.2194 33.5681 35.0306 33.5681 34.2994 34.2994L30 38.5987ZM27.9506 12.7387L20.1281 26.25H39.1294L31.995 12.7594C31.3762 12.9956 30.7031 13.125 30 13.125C29.2781 13.125 28.5863 12.9881 27.9506 12.7387ZM30 5.625C31.035 5.625 31.875 6.465 31.875 7.5C31.875 8.535 31.035 9.375 30 9.375C28.965 9.375 28.125 8.535 28.125 7.5C28.125 6.465 28.965 5.625 30 5.625Z" fill="black"/>
</svg>
