<svg width="89" height="89" viewBox="0 0 89 89" fill="none" xmlns="http://www.w3.org/2000/svg">
<path d="M55.625 29.2031C55.625 29.9708 55.002 30.5938 54.2344 30.5938H45.8906C45.123 30.5938 44.5 29.9708 44.5 29.2031C44.5 28.4355 45.123 27.8125 45.8906 27.8125H54.2344C55.002 27.8125 55.625 28.4355 55.625 29.2031ZM34.7656 30.5938H29.2031C28.4355 30.5938 27.8125 31.2167 27.8125 31.9844C27.8125 32.752 28.4355 33.375 29.2031 33.375H34.7656C35.5332 33.375 36.1562 32.752 36.1562 31.9844C36.1562 31.2167 35.5332 30.5938 34.7656 30.5938ZM34.7656 36.1562H29.2031C28.4355 36.1562 27.8125 36.7792 27.8125 37.5469C27.8125 38.3145 28.4355 38.9375 29.2031 38.9375H34.7656C35.5332 38.9375 36.1562 38.3145 36.1562 37.5469C36.1562 36.7792 35.5332 36.1562 34.7656 36.1562ZM76.5372 44.0105L68.2268 44.7364C67.4648 44.8032 66.8946 45.479 66.9642 46.2438C67.0253 46.967 67.6344 47.5121 68.3464 47.5121C68.3882 47.5121 68.4271 47.5093 68.4716 47.5065L76.782 46.7806C77.544 46.7139 78.1142 46.038 78.0447 45.2732C77.9751 44.5111 77.3271 43.941 76.5372 44.0105ZM86.1298 73.8811C86.5303 78.473 83.1343 82.5197 78.5453 82.9202L73.005 83.4041C72.7575 83.4264 72.5127 83.4375 72.268 83.4375C67.9877 83.4375 64.3442 80.164 63.966 75.8197L61.1875 44.0661V75.0938C61.1875 79.7023 57.4523 83.4375 52.8438 83.4375H47.2812C44.3748 83.4375 41.8217 81.9495 40.3281 79.6967C38.8346 81.9495 36.2814 83.4375 33.375 83.4375H30.5938C27.6873 83.4375 25.1342 81.9495 23.6406 79.6967C22.1471 81.9495 19.5939 83.4375 16.6875 83.4375H11.125C6.51647 83.4375 2.78125 79.7023 2.78125 75.0938V19.4688C2.78125 14.8602 6.51647 11.125 11.125 11.125H16.6875C21.296 11.125 25.0312 14.8602 25.0312 19.4688V24.4166C26.5109 23.0844 28.4466 22.25 30.5938 22.25H33.375C35.5221 22.25 37.4579 23.0844 38.9375 24.4166V16.6875C38.9375 12.079 42.6727 8.34375 47.2812 8.34375H52.8438C57.4523 8.34375 61.1875 12.079 61.1875 16.6875V36.5011C62.1915 33.4112 64.9589 31.061 68.3993 30.7606L73.9395 30.2767C74.1871 30.2544 74.4318 30.2433 74.6766 30.2433C78.9569 30.2433 82.6003 33.5168 82.9786 37.8612L86.1298 73.8811ZM22.25 75.0938V19.4688C22.25 16.401 19.7552 13.9062 16.6875 13.9062H11.125C8.05728 13.9062 5.5625 16.401 5.5625 19.4688V75.0938C5.5625 78.1615 8.05728 80.6562 11.125 80.6562H16.6875C19.7552 80.6562 22.25 78.1615 22.25 75.0938ZM38.9375 30.5938C38.9375 27.526 36.4427 25.0312 33.375 25.0312H30.5938C27.526 25.0312 25.0312 27.526 25.0312 30.5938V75.0938C25.0312 78.1615 27.526 80.6562 30.5938 80.6562H33.375C36.4427 80.6562 38.9375 78.1615 38.9375 75.0938V30.5938ZM58.4062 16.6875C58.4062 13.6198 55.9115 11.125 52.8438 11.125H47.2812C44.2135 11.125 41.7188 13.6198 41.7188 16.6875V25.0312V75.0938C41.7188 78.1615 44.2135 80.6562 47.2812 80.6562H52.8438C55.9115 80.6562 58.4062 78.1615 58.4062 75.0938V16.6875ZM83.3596 74.1231L80.2085 38.1031C79.9582 35.2551 77.5301 33.0246 74.6766 33.0246C74.5125 33.0246 74.3484 33.0329 74.1815 33.0468L68.6413 33.5308C67.1616 33.6615 65.8211 34.3596 64.8643 35.4971C63.9103 36.6346 63.4542 38.0781 63.5849 39.5577L66.7361 75.5777C66.9864 78.4257 69.4144 80.6562 72.268 80.6562C72.4321 80.6562 72.5962 80.6479 72.7631 80.634L78.3033 80.1501C79.7829 80.0193 81.1235 79.3213 82.0802 78.1837C83.037 77.0462 83.4903 75.6027 83.3596 74.1231ZM67.9821 41.9663L76.2952 41.2376C77.0573 41.1708 77.6275 40.495 77.5579 39.7302C77.494 38.9681 76.8459 38.3979 76.0505 38.4675L67.7373 39.1962C66.9753 39.2629 66.4051 39.9388 66.4747 40.7036C66.5358 41.4267 67.1449 41.9718 67.8569 41.9718C67.8987 41.9718 67.9404 41.9691 67.9821 41.9663ZM54.2344 16.6875H45.8906C45.123 16.6875 44.5 17.3105 44.5 18.0781C44.5 18.8457 45.123 19.4688 45.8906 19.4688H54.2344C55.002 19.4688 55.625 18.8457 55.625 18.0781C55.625 17.3105 55.002 16.6875 54.2344 16.6875ZM54.2344 22.25H45.8906C45.123 22.25 44.5 22.873 44.5 23.6406C44.5 24.4083 45.123 25.0312 45.8906 25.0312H54.2344C55.002 25.0312 55.625 24.4083 55.625 23.6406C55.625 22.873 55.002 22.25 54.2344 22.25ZM18.0781 30.5938H9.73438C8.96675 30.5938 8.34375 31.2167 8.34375 31.9844C8.34375 32.752 8.96675 33.375 9.73438 33.375H18.0781C18.8458 33.375 19.4688 32.752 19.4688 31.9844C19.4688 31.2167 18.8458 30.5938 18.0781 30.5938ZM18.0781 19.4688H9.73438C8.96675 19.4688 8.34375 20.0918 8.34375 20.8594C8.34375 21.627 8.96675 22.25 9.73438 22.25H18.0781C18.8458 22.25 19.4688 21.627 19.4688 20.8594C19.4688 20.0918 18.8458 19.4688 18.0781 19.4688ZM18.0781 25.0312H9.73438C8.96675 25.0312 8.34375 25.6542 8.34375 26.4219C8.34375 27.1895 8.96675 27.8125 9.73438 27.8125H18.0781C18.8458 27.8125 19.4688 27.1895 19.4688 26.4219C19.4688 25.6542 18.8458 25.0312 18.0781 25.0312Z" fill="#000"/>
</svg>
