<svg width="80" height="80" viewBox="0 0 80 80" fill="none" xmlns="http://www.w3.org/2000/svg">
<g clip-path="url(#clip0_74_125)">
<path d="M63.5524 32.2683C64.3298 29.8389 64.7276 27.3021 64.7276 24.7272C64.728 11.0925 53.6355 0 40.0004 0C26.3653 0 15.2732 11.0925 15.2732 24.7272C15.2732 27.3069 15.6901 29.8323 16.4675 32.2613C7.26861 35.867 0.727539 44.8106 0.727539 55.2728C0.727539 68.9079 11.82 80 25.4548 80C30.6911 80 35.8025 78.3051 40.0132 75.2352C44.0982 78.2175 49.112 80 54.5456 80C68.1808 80 79.2729 68.9075 79.2729 55.2728C79.2729 44.818 72.741 35.8791 63.5524 32.2683ZM40.0004 2.90898C52.0309 2.90898 61.8186 12.696 61.8186 24.7272C61.8186 26.9978 61.4681 29.2332 60.7842 31.3739C58.7872 30.8517 56.704 30.5455 54.5456 30.5455C49.112 30.5455 44.0986 32.328 40.0136 35.31C35.7687 32.2019 30.7649 30.5455 25.4548 30.5455C23.3026 30.5455 21.2253 30.8503 19.2338 31.3695C18.5492 29.2284 18.1818 27.0029 18.1818 24.7272C18.1821 12.696 27.9699 2.90898 40.0004 2.90898ZM25.4548 77.091C13.4243 77.091 3.63652 67.304 3.63652 55.2728C3.63652 43.2416 13.4243 33.4545 25.4548 33.4545C29.8907 33.4545 34.0893 34.7545 37.7027 37.2201C32.8649 41.7367 29.8184 48.1479 29.8184 55.2728C29.8184 62.3987 32.866 68.8111 37.7045 73.3277C34.1102 75.7651 29.8276 77.091 25.4548 77.091ZM54.546 77.091C49.6213 77.091 45.0883 75.4317 41.4331 72.6694C41.3861 72.5763 41.3561 72.4777 41.2875 72.3937C41.0722 72.1308 40.7785 71.9845 40.4705 71.9163C35.742 67.9112 32.7278 61.9407 32.7278 55.2728C32.7278 43.2416 42.5155 33.4545 54.546 33.4545C66.5765 33.4545 76.3643 43.2416 76.3643 55.2728C76.3643 67.304 66.5761 77.091 54.546 77.091Z" fill="black"/>
</g>
<defs>
<clipPath id="clip0_74_125">
<rect width="80" height="80" fill="white"/>
</clipPath>
</defs>
</svg>
