<svg width="60" height="60" viewBox="0 0 60 60" fill="none" xmlns="http://www.w3.org/2000/svg">
<path d="M39.375 3.75H22.5V5.625H39.375V3.75Z" fill="black"/>
<path d="M37.5 48.75H16.875V50.625H37.5V48.75Z" fill="black"/>
<path d="M9.375 16.875L9.375 45H11.25L11.25 16.875H9.375Z" fill="black"/>
<path d="M43.125 11.25V43.125H45V11.25H43.125Z" fill="black"/>
<path d="M22.5 15H9.375V16.875H22.5V15Z" fill="black"/>
<path d="M41.25 15H26.25V16.875H41.25V15Z" fill="black"/>
<path d="M41.25 22.5H15V24.375H41.25V22.5Z" fill="black"/>
<path d="M41.25 30H15V31.875H41.25V30Z" fill="black"/>
<path d="M41.25 37.5H15V39.375H41.25V37.5Z" fill="black"/>
<path d="M20.6234 3.73105L9.36719 14.9873L10.693 16.3131L21.9493 5.05687L20.6234 3.73105Z" fill="black"/>
<path d="M20.625 3.75V16.875H22.5V3.75H20.625Z" fill="black"/>
<path d="M37.5 3.75V5.625H41.25C41.7473 5.625 42.2242 5.82254 42.5758 6.17417C42.9275 6.52581 43.125 7.00272 43.125 7.5V11.25H45V7.5C45 6.50544 44.6049 5.55161 43.9016 4.84835C43.1984 4.14509 42.2446 3.75 41.25 3.75H37.5Z" fill="black"/>
<path d="M16.875 50.625V48.75H13.125C12.6277 48.75 12.1508 48.5525 11.7992 48.2008C11.4475 47.8492 11.25 47.3723 11.25 46.875V43.125H9.375V46.875C9.375 47.8696 9.77009 48.8234 10.4733 49.5266C11.1766 50.2299 12.1304 50.625 13.125 50.625H16.875Z" fill="black"/>
<path d="M53.4211 46.5C53.4211 53.3558 47.5555 59 40.2105 59C32.8656 59 27 53.3558 27 46.5C27 39.6442 32.8656 34 40.2105 34C47.5555 34 53.4211 39.6442 53.4211 46.5Z" fill="white" stroke="black" stroke-width="2"/>
<path d="M34 52.5098L46.51 39.9998" stroke="black" stroke-width="2" stroke-linecap="round"/>
<path d="M34 40L46.51 52.51" stroke="black" stroke-width="2" stroke-linecap="round"/>
</svg>
