<svg width="80" height="80" viewBox="0 0 80 80" fill="none" xmlns="http://www.w3.org/2000/svg">
<path d="M40.1416 65.5584C39.955 65.5698 39.7715 65.507 39.631 65.3837C39.4905 65.2604 39.4044 65.0865 39.3916 64.9V29.2334C39.4185 29.0537 39.509 28.8896 39.6466 28.771C39.7842 28.6524 39.9599 28.5872 40.1416 28.5872C40.3233 28.5872 40.499 28.6524 40.6366 28.771C40.7742 28.8896 40.8647 29.0537 40.8916 29.2334V64.9C40.8788 65.0865 40.7927 65.2604 40.6522 65.3837C40.5117 65.507 40.3282 65.5698 40.1416 65.5584Z" fill="black"/>
<path d="M39.5417 55.9582L38.4583 55.5749C36.8802 54.9996 35.3385 54.3289 33.8417 53.5665C30.675 51.8999 27.6417 46.3999 27.5167 46.1666L26.6833 44.5999L28.3917 44.1666C28.5583 44.1666 32.5583 43.1582 37.4833 46.3249C43.0167 49.8582 40.1583 54.9166 40.125 54.9999L39.5417 55.9582ZM29.1667 45.6999C29.8583 46.8916 32.3 50.8665 34.6167 52.0915C35.9682 52.7818 37.3596 53.3912 38.7833 53.9165C39.1833 53.0832 40.2417 50.0582 36.575 47.7082C34.4143 46.1975 31.7946 45.4873 29.1667 45.6999Z" fill="black"/>
<path d="M40.4501 55.9583L39.8751 55C39.8751 54.95 36.9834 49.8916 42.5168 46.3416C47.3501 43.2416 51.1834 44.075 51.6001 44.1833L53.3418 44.6333L52.5001 46.1666C52.3751 46.4 49.3417 51.9 46.1834 53.5666C44.692 54.332 43.1527 55 41.5751 55.5666L40.4501 55.9583ZM49.8334 45.6416C47.5405 45.7005 45.313 46.4179 43.4167 47.7083C39.7584 50.0583 40.8001 53.05 41.2084 53.9166C42.6328 53.3929 44.0243 52.7834 45.3751 52.0916C47.7001 50.8333 50.1418 46.8833 50.8334 45.7C50.5018 45.6575 50.1677 45.638 49.8334 45.6416Z" fill="black"/>
<path d="M39.7001 43.8167L38.6917 43.4584C37.3974 42.9814 36.1339 42.4248 34.9084 41.7917C32.3334 40.4334 29.9584 36.1834 29.6917 35.7084L28.8584 34.25L30.4751 33.8417C30.8167 33.75 33.9917 33.0084 37.9751 35.6167C41.8334 38.1167 40.8751 41.7 40.1751 42.875L39.7001 43.8167ZM31.4251 35.3917C32.1084 36.5334 33.9251 39.4167 35.6917 40.3417C36.7441 40.8783 37.8265 41.3541 38.9334 41.7667C39.2667 40.9334 39.8501 38.775 37.1334 37.0334C35.4675 35.8637 33.4578 35.2857 31.4251 35.3917Z" fill="black"/>
<path d="M40.2999 43.8167L39.7583 42.8917C39.7583 42.8917 37.3416 38.5917 41.9666 35.6334C45.9499 33.0751 49.1333 33.7667 49.4666 33.8501L51.0833 34.2667L50.2499 35.7251C49.9916 36.2001 47.6166 40.4501 45.0333 41.8084C43.8106 42.4414 42.5498 42.998 41.2583 43.4751L40.2999 43.8167ZM48.0083 35.3667C46.1697 35.416 44.3844 35.9947 42.8666 37.0334C40.1583 38.7667 40.7249 40.9584 41.0666 41.7667C42.1735 41.3541 43.2559 40.8783 44.3083 40.3417C46.0499 39.4167 47.8916 36.5334 48.5666 35.3917C48.4166 35.3834 48.2249 35.3667 48.0083 35.3667Z" fill="black"/>
<path d="M39.7001 32.6167L38.6917 32.2584C37.3963 31.7841 36.1326 31.2275 34.9084 30.5917C32.3334 29.2584 30.0001 25 29.6917 24.525L28.8584 23.075L30.4751 22.6584C30.8167 22.575 33.9917 21.825 37.9751 24.4334C41.8334 26.9334 40.8751 30.525 40.1751 31.7L39.7001 32.6167ZM31.4251 24.1667C32.1084 25.3084 33.9251 28.1917 35.6917 29.1084C36.7444 29.647 37.8266 30.1255 38.9334 30.5417C39.2667 29.7084 39.8501 27.55 37.1334 25.8084C35.4672 24.6393 33.4578 24.0613 31.4251 24.1667Z" fill="black"/>
<path d="M40.2999 32.6166L39.7583 31.6666C39.7583 31.6166 37.3416 27.3666 41.9666 24.3999C45.9749 21.8332 49.1416 22.5416 49.4666 22.6249L51.0749 23.0416L50.2416 24.4916C49.9833 24.9749 47.6083 29.2249 45.0249 30.5832C43.8032 31.2182 42.5423 31.7749 41.2499 32.2499L40.2999 32.6166ZM47.9999 24.1666C46.1641 24.2165 44.3817 24.7953 42.8666 25.8332C40.1583 27.5666 40.7249 29.7582 41.0666 30.5666C42.1726 30.1613 43.2549 29.6939 44.3083 29.1666C46.0499 28.2499 47.8916 25.3666 48.5666 24.2249C48.3789 24.1956 48.1897 24.1761 47.9999 24.1666Z" fill="black"/>
<path d="M39.825 76.7083L11.1583 48.0416C4.49168 41.375 1.99168 33.5083 4.00001 25.8833C4.9288 22.4738 6.73469 19.3671 9.23782 16.8728C11.7409 14.3784 14.8539 12.5834 18.2667 11.6666C25.6667 9.67495 33.2667 12.0166 39.825 18.2416C51.35 7.17495 63.9417 9.48329 70.8333 16.4083C77.725 23.3333 80.1417 36.3583 68.4667 48.075L39.825 76.7083ZM23.4167 12.6083C21.8237 12.6063 20.2375 12.8165 18.7 13.2333C15.5634 14.077 12.7033 15.7295 10.4059 18.0255C8.10839 20.3215 6.45406 23.1806 5.60834 26.3166C3.72501 33.3333 6.11668 40.6416 12.3417 46.8583L39.8417 74.3583L67.3417 46.8583C78.175 36.025 76.1917 24.0666 69.7167 17.5833C63.2417 11.1 51.2917 9.08329 40.4167 20L39.825 20.5916L39.2417 20C34.4083 15.125 28.925 12.6083 23.4167 12.6083Z" fill="black"/>
</svg>
