<svg width="61" height="61" viewBox="0 0 61 61" fill="none" xmlns="http://www.w3.org/2000/svg">
<path d="M50.7031 37.4119C53.9736 33.6574 55.7031 30.3281 55.7031 30.3281C55.7031 30.3281 46.6121 12.8281 30.7031 12.8281C29.8501 12.8281 29.0166 12.8784 28.2031 12.9737C27.3476 13.0738 26.5141 13.2237 25.7031 13.4169M30.7031 22.8281C31.5796 22.8281 32.4211 22.9785 33.2031 23.2549C35.3341 24.0081 37.0231 25.6971 37.7764 27.8281C38.0526 28.6101 38.2031 29.4516 38.2031 30.3281M8.20312 7.82812L53.2031 52.8281M30.7031 37.8281C29.8266 37.8281 28.9851 37.6776 28.2031 37.4014C26.0721 36.6481 24.3831 34.9591 23.6299 32.8281C23.4878 32.4261 23.379 32.0084 23.3068 31.5781M11.0706 22.8281C10.3 23.6894 9.60897 24.5342 8.99972 25.3281C6.83527 28.1486 5.70312 30.3281 5.70312 30.3281C5.70312 30.3281 14.794 47.8281 30.7031 47.8281C31.5561 47.8281 32.3896 47.7779 33.2031 47.6826" stroke="black" stroke-width="3.75" stroke-linecap="round" stroke-linejoin="round"/>
</svg>
