<svg width="60" height="60" viewBox="0 0 60 60" fill="none" xmlns="http://www.w3.org/2000/svg">
<path d="M35.7255 58.3009H39.216C42.355 58.3009 45.0671 58.1 46.85 57.673C50.3155 56.8193 52.4749 54.4086 52.4749 51.3198C52.4749 50.692 52.3746 50.0893 52.1988 49.5117C53.9314 48.2562 54.9106 46.3226 54.9106 44.2384C54.9106 43.2087 54.71 42.2043 54.3331 41.3756C55.4881 40.1953 56.1917 38.4626 56.1917 36.6295C56.1917 35.4492 55.8903 34.1937 55.3626 33.2896C56.0909 32.2601 56.4931 30.8789 56.4931 29.3471C56.4931 25.6055 53.5801 22.6423 49.8383 22.6423H40.3461C39.7434 22.6423 39.3417 22.3661 39.3417 21.8639C39.3417 19.1268 43.6106 12.7735 43.6106 7.67586C43.6106 4.21043 41.1999 1.69922 37.86 1.69922C35.3991 1.69922 33.7418 2.98 32.1095 6.09379C29.0459 11.9699 25.4298 17.1681 19.4533 24.4504H14.682C8.4795 24.4504 3.50732 31.4565 3.50732 40.0196C3.50732 48.4822 8.98168 55.5134 15.6362 55.5134H23.9231C27.2379 57.2461 31.2557 58.3009 35.7255 58.3009ZM39.2412 54.509L35.7507 54.4587C25.2289 54.3834 18.0972 48.4319 18.0972 39.894C18.0972 34.4699 19.3025 31.0045 22.7177 26.4342C26.5096 21.3868 31.7328 15.3349 35.4995 7.8265C36.504 5.81758 37.0314 5.49111 37.86 5.49111C39.0905 5.49111 39.8188 6.26961 39.8188 7.67586C39.8188 11.744 35.5498 17.9214 35.5498 21.8639C35.5498 24.7015 37.9103 26.4342 40.8986 26.4342H49.8383C51.4958 26.4342 52.7012 27.6897 52.7012 29.3471C52.7012 30.5525 52.3243 31.331 51.3451 32.2852C51.0941 32.5363 50.9681 32.7875 50.9681 33.0637C50.9681 33.2646 51.0437 33.4905 51.2195 33.6914C52.0481 34.8968 52.3998 35.6502 52.3998 36.6295C52.3998 37.8349 51.8223 38.8393 50.692 39.7182C50.215 40.0698 49.9638 40.4716 49.9638 40.8985C49.9638 41.0491 49.989 41.225 50.0894 41.4007C50.8174 42.7819 51.1188 43.3343 51.1188 44.2384C51.1188 45.5944 50.2652 46.6239 48.4572 47.553C48.0805 47.7539 47.8545 48.0553 47.8545 48.4319C47.8545 48.5827 47.9048 48.7333 47.98 48.909C48.6078 50.4409 48.6831 50.692 48.6831 51.3198C48.6831 52.5503 47.7791 53.5297 45.946 53.9816C44.4644 54.3583 42.1039 54.534 39.2412 54.509ZM15.6362 51.7215C11.1915 51.7215 7.29922 46.3729 7.29922 40.0196C7.29922 33.5408 10.7897 28.2423 14.682 28.2423H16.9923C15.1089 31.7578 14.3053 35.4492 14.3053 39.8187C14.3053 44.5396 16.0129 48.6078 19.0514 51.7215H15.6362Z" fill="black"/>
</svg>
