<svg width="60" height="60" viewBox="0 0 60 60" fill="none" xmlns="http://www.w3.org/2000/svg">
<path d="M38.3897 27.5996C35.5673 26.1884 28.7897 21.5996 25.1897 21.5996C21.5897 21.5996 12.4278 28.2414 14.4 31.1996C16.8 34.7996 21.9632 28.1411 25.1897 28.7996C28.4162 29.4582 31.2 32.3996 31.2 34.7996C31.2 37.1996 28.4162 40.6532 25.1897 39.5996C21.9632 38.546 20.608 34.4192 17.9897 33.5996C14.9105 32.6358 12.1402 35.0799 13.2 37.1996C14.2598 39.3193 17.0565 42.2411 20.3897 45.5996C23.3815 48.6143 28.7897 51.5996 35.9897 47.9996C43.1897 44.3996 44.4 38.9991 44.4 31.1996C44.4 27.5996 32.9597 12.8846 28.7897 10.7996C26.3897 9.59961 24 11.9996 26.3897 15.5996C27.8736 17.8352 32.4 22.2645 33.6 24.8999M37.2 19.1996C37.2 19.1996 36.8897 17.9996 35.9897 14.3996C34.7897 9.59961 38.3897 8.39961 39.5897 10.7996C41.1074 13.8354 43.8893 26.1949 44.3897 31.1996" stroke="#121923" stroke-width="2.88"/>
</svg>
