<svg width="60" height="60" viewBox="0 0 60 60" fill="none" xmlns="http://www.w3.org/2000/svg">
<g clip-path="url(#clip0_472_19)">
<path d="M34.2835 33.333C37.9132 33.4226 41.4305 32.0694 44.0641 29.5701C46.6978 27.0707 48.2331 23.6291 48.3335 19.9996C48.2331 16.3702 46.6978 12.9285 44.0641 10.4292C41.4305 7.92985 37.9132 6.57667 34.2835 6.66629H20.0002C19.5581 6.66629 19.1342 6.84189 18.8217 7.15445C18.5091 7.46701 18.3335 7.89093 18.3335 8.33296V29.9996H15.0002C14.5581 29.9996 14.1342 30.1752 13.8217 30.4878C13.5091 30.8003 13.3335 31.2243 13.3335 31.6663C13.3335 32.1083 13.5091 32.5322 13.8217 32.8448C14.1342 33.1574 14.5581 33.333 15.0002 33.333H18.3335V36.6663H15.0002C14.5581 36.6663 14.1342 36.8419 13.8217 37.1544C13.5091 37.467 13.3335 37.8909 13.3335 38.333C13.3335 38.775 13.5091 39.1989 13.8217 39.5115C14.1342 39.824 14.5581 39.9996 15.0002 39.9996H18.3335V51.6663C18.3335 52.1083 18.5091 52.5322 18.8217 52.8448C19.1342 53.1574 19.5581 53.333 20.0002 53.333C20.4422 53.333 20.8661 53.1574 21.1787 52.8448C21.4912 52.5322 21.6668 52.1083 21.6668 51.6663V39.9996H36.6668C37.1089 39.9996 37.5328 39.824 37.8453 39.5115C38.1579 39.1989 38.3335 38.775 38.3335 38.333C38.3335 37.8909 38.1579 37.467 37.8453 37.1544C37.5328 36.8419 37.1089 36.6663 36.6668 36.6663H21.6668V33.333H34.2835ZM21.6668 9.99963H34.2835C37.0281 9.91403 39.6953 10.9174 41.7029 12.7908C43.7106 14.6642 44.8959 17.2556 45.0002 19.9996C44.9002 22.7451 43.7163 25.3391 41.7076 27.2134C39.6989 29.0878 37.0293 30.0896 34.2835 29.9996H21.6668V9.99963Z" fill="black"/>
</g>
<defs>
<clipPath id="clip0_472_19">
<rect width="60" height="60" fill="white"/>
</clipPath>
</defs>
</svg>
