<svg width="89" height="89" viewBox="0 0 89 89" fill="none" xmlns="http://www.w3.org/2000/svg">
<path d="M64.108 16.8613C64.7685 20.2335 67.7236 22.7019 71.1654 22.7019C74.6072 22.7019 77.5623 20.2335 78.2228 16.8613L79.0919 12.446C79.3701 10.2906 78.7443 8.13511 77.3189 6.50112C75.8935 4.86714 73.8423 3.92847 71.6869 3.92847H70.6787C68.5232 3.92847 66.472 4.86714 65.0466 6.50112C63.6212 8.13511 62.9607 10.2906 63.2736 12.5503L64.108 16.8613ZM67.6541 8.79565C68.4189 7.92651 69.5314 7.40503 70.7134 7.40503H71.7216C72.9037 7.40503 73.9814 7.89175 74.781 8.79565C75.5459 9.66479 75.8935 10.8468 75.7544 11.8898L74.9201 16.2007C74.5724 17.9738 73.0427 19.2253 71.2349 19.2253C69.4271 19.2253 67.8974 17.939 67.5498 16.2007L66.7154 11.9941C66.5416 10.8468 66.8892 9.66479 67.6541 8.79565Z" fill="#000" stroke="#000" stroke-width="0.347656"/>
<path d="M87.3659 39.7718L85.3843 30.3851C85.1409 29.2378 84.3065 28.2992 83.2288 27.9167L76.38 25.4832L71.2346 30.6285L66.0893 25.4832L59.2405 27.9167C58.1628 28.2992 57.3284 29.2378 57.085 30.3851L55.1034 39.7718C54.8948 40.7105 55.4858 41.6144 56.4245 41.823C57.3632 42.0316 58.2671 41.4406 58.4757 40.5019L60.4225 31.1847L65.2202 29.4812L71.2694 35.5304L77.3186 29.4812L82.0468 31.1152L84.0284 40.5019C84.2022 41.3015 84.9323 41.8578 85.7319 41.8578C85.8362 41.8578 85.9753 41.8578 86.0796 41.823C86.9487 41.6492 87.5397 40.7105 87.3659 39.7718Z" fill="#000" stroke="#000" stroke-width="0.347656"/>
<path d="M10.7427 16.8613C11.4033 20.2335 14.3583 22.7019 17.8001 22.7019C21.2419 22.7019 24.197 20.2335 24.8576 16.8613L25.7267 12.446C26.0048 10.2906 25.3791 8.13511 23.9537 6.50112C22.5283 4.86714 20.4771 3.92847 18.3216 3.92847H17.3134C15.158 3.92847 13.1068 4.86714 11.6814 6.50112C10.256 8.13511 9.59546 10.2906 9.90835 12.5503L10.7427 16.8613ZM14.2888 8.79565C15.0537 7.92651 16.1662 7.40503 17.3482 7.40503H18.3564C19.5384 7.40503 20.6162 7.89175 21.4158 8.79565C22.1806 9.66479 22.5283 10.8468 22.3892 11.8898L21.5548 16.2007C21.2072 17.9738 19.6775 19.2253 17.8697 19.2253C16.0619 19.2253 14.5322 17.939 14.1845 16.2007L13.3501 11.9941C13.1416 10.8468 13.524 9.66479 14.2888 8.79565Z" fill="#000" stroke="#000" stroke-width="0.347656"/>
<path d="M23.8841 29.4812L28.6122 31.1152L30.5938 40.5019C30.7677 41.3015 31.4977 41.8578 32.2973 41.8578C32.4016 41.8578 32.5407 41.8578 32.645 41.823C33.5837 41.6144 34.1747 40.7105 33.9661 39.7718L31.9845 30.3851C31.7411 29.2378 30.9067 28.2992 29.829 27.9167L22.9802 25.4832L17.8001 30.6632L12.6548 25.4832L5.80594 27.9167C4.7282 28.2992 3.89383 29.2378 3.65047 30.3851L1.66883 39.7718C1.46023 40.7105 2.05125 41.6144 2.98992 41.823C3.92859 42.0316 4.8325 41.4406 5.04109 40.5019L6.9532 31.1847L11.7509 29.4812L17.8001 35.5304L23.8841 29.4812Z" fill="#000" stroke="#000" stroke-width="0.347656"/>
<path d="M44.5003 65.8809C47.9421 65.8809 50.8972 63.4125 51.5578 60.0402L52.4269 55.625C52.705 53.4695 52.0792 51.3141 50.6539 49.6801C49.2285 48.0461 47.1773 47.1074 45.0218 47.1074H44.0136C41.8582 47.1074 39.807 48.0461 38.3816 49.6801C36.9562 51.3141 36.2957 53.4695 36.6085 55.7293L37.4429 60.0402C38.1035 63.4125 41.0585 65.8809 44.5003 65.8809ZM40.9542 51.9746C41.7191 51.1055 42.8316 50.584 44.0136 50.584H45.0218C46.2039 50.584 47.2816 51.0707 48.0812 51.9746C48.846 52.8438 49.1937 54.0258 49.0546 55.0687L48.2203 59.3797C47.8726 61.1527 46.3429 62.4043 44.5351 62.4043C42.7273 62.4043 41.1976 61.118 40.8499 59.3797L40.0156 55.173C39.8417 54.0258 40.1894 52.8438 40.9542 51.9746Z" fill="#000" stroke="#000" stroke-width="0.347656"/>
<path d="M58.6846 73.5987C58.4413 72.4515 57.6069 71.5128 56.5292 71.1304L49.6803 68.6968L44.5003 73.8421L39.355 68.6968L32.5061 71.1304C31.4284 71.5128 30.594 72.4515 30.3507 73.5987L28.369 82.9854C28.1604 83.9241 28.7514 84.828 29.6901 85.0366C30.6288 85.2452 31.5327 84.6542 31.7413 83.7155L33.6534 74.3983L38.4511 72.6948L44.5003 78.744L50.5495 72.6948L55.2776 74.3288L57.2593 83.7155C57.4331 84.5151 58.1632 85.0714 58.9628 85.0714C59.0671 85.0714 59.2061 85.0714 59.3104 85.0366C60.2491 84.828 60.8401 83.9241 60.6315 82.9854L58.6846 73.5987Z" fill="#000" stroke="#000" stroke-width="0.347656"/>
<path d="M74.1898 46.412C73.2163 46.3077 72.382 47.003 72.3124 47.9764C71.6171 55.1729 68.1753 61.7088 62.6823 66.4022C61.9523 67.028 61.8827 68.1057 62.4738 68.8358C62.8214 69.253 63.3081 69.4268 63.7948 69.4268C64.1773 69.4268 64.5945 69.2877 64.9073 69.0096C71.0956 63.7252 74.9546 56.3897 75.7542 48.2893C75.8237 47.3506 75.1284 46.5163 74.1898 46.412Z" fill="#000" stroke="#000" stroke-width="0.347656"/>
<path d="M16.722 47.9765C16.6177 47.0378 15.7833 46.3425 14.8446 46.412C13.906 46.5163 13.2107 47.3507 13.2802 48.2894C14.0798 56.3897 17.9388 63.7601 24.1271 69.0097C24.4399 69.2878 24.8571 69.4269 25.2396 69.4269C25.7263 69.4269 26.213 69.2183 26.5607 68.8011C27.1864 68.071 27.0821 66.9933 26.3521 66.3675C20.8591 61.7089 17.4173 55.173 16.722 47.9765Z" fill="#000" stroke="#000" stroke-width="0.347656"/>
<path d="M35.3569 18.8081C41.1627 16.7569 47.8377 16.7569 53.6784 18.8081C53.8522 18.8776 54.0608 18.9124 54.2694 18.9124C54.9647 18.9124 55.66 18.4604 55.9034 17.7651C56.2162 16.8612 55.7643 15.8877 54.8604 15.5749C48.2897 13.2456 40.8151 13.2456 34.2444 15.5749C33.3405 15.8877 32.8885 16.8959 33.2014 17.7651C33.4448 18.669 34.453 19.1209 35.3569 18.8081Z" fill="#000" stroke="#000" stroke-width="0.347656"/>
</svg>
