<svg width="60" height="60" viewBox="0 0 60 60" fill="none" xmlns="http://www.w3.org/2000/svg">
<g clip-path="url(#clip0_461_45)">
<path fill-rule="evenodd" clip-rule="evenodd" d="M34.6122 31.0839L42.313 35.5299C43.0647 35.9639 43.3079 36.9501 42.8846 37.6832C42.4486 38.4384 41.5076 38.7114 40.734 38.2648L32.9028 33.7434C32.101 34.3661 31.0938 34.7368 30 34.7368C27.3839 34.7368 25.2632 32.6161 25.2632 30C25.2632 27.9376 26.5813 26.183 28.4211 25.5327V11.0634C28.4211 10.1854 29.1535 9.47368 30 9.47368C30.872 9.47368 31.5789 10.2092 31.5789 11.0634V25.5327C33.4187 26.183 34.7368 27.9376 34.7368 30C34.7368 30.3729 34.6937 30.7358 34.6122 31.0839ZM30 60C46.5685 60 60 46.5685 60 30C60 13.4315 46.5685 0 30 0C13.4315 0 0 13.4315 0 30C0 46.5685 13.4315 60 30 60ZM30 56.8421C44.8245 56.8421 56.8421 44.8245 56.8421 30C56.8421 15.1755 44.8245 3.15789 30 3.15789C15.1755 3.15789 3.15789 15.1755 3.15789 30C3.15789 44.8245 15.1755 56.8421 30 56.8421Z" fill="black"/>
</g>
<defs>
<clipPath id="clip0_461_45">
<rect width="60" height="60" fill="white"/>
</clipPath>
</defs>
</svg>
