<svg width="61" height="61" viewBox="0 0 61 61" fill="none" xmlns="http://www.w3.org/2000/svg">
<g clip-path="url(#clip0_461_2)">
<path fill-rule="evenodd" clip-rule="evenodd" d="M30.9824 0.0703125C47.551 0.0703125 60.9824 13.5018 60.9824 30.0703C60.9824 46.6388 47.551 60.0703 30.9824 60.0703C14.4139 60.0703 0.982422 46.6388 0.982422 30.0703C0.982422 13.5018 14.4139 0.0703125 30.9824 0.0703125ZM30.9824 3.22822C16.1579 3.22822 4.14033 15.2458 4.14033 30.0703C4.14033 44.8948 16.1579 56.9124 30.9824 56.9124C45.8069 56.9124 57.8245 44.8948 57.8245 30.0703C57.8245 15.2458 45.8069 3.22822 30.9824 3.22822ZM30.6912 41.3998C28.1904 41.3998 26.1559 43.4343 26.1559 45.9351C26.1559 48.4358 28.1904 50.4703 30.6912 50.4703C33.1919 50.4703 35.2264 48.4358 35.2264 45.9351C35.2264 43.4343 33.1919 41.3998 30.6912 41.3998ZM36.7157 11.1229H24.6666L27.601 37.7269H33.7813L36.7157 11.1229Z" fill="black"/>
</g>
<defs>
<clipPath id="clip0_461_2">
<rect width="60" height="60" fill="white" transform="translate(0.982422 0.0703125)"/>
</clipPath>
</defs>
</svg>
