<svg width="80" height="80" viewBox="0 0 80 80" fill="none" xmlns="http://www.w3.org/2000/svg">
<path d="M75 25V15C75 13.62 73.88 12.5 72.5 12.5H67.5V7.5C67.5 6.12 66.38 5 65 5H55C53.62 5 52.5 6.12 52.5 7.5V12.5H47.5V7.5C47.5 6.12 46.38 5 45 5H35C33.62 5 32.5 6.12 32.5 7.5V12.5H27.5V7.5C27.5 6.12 26.38 5 25 5H15C13.62 5 12.5 6.12 12.5 7.5V12.5H7.5C6.12 12.5 5 13.62 5 15V25C5 26.38 6.12 27.5 7.5 27.5H12.5V32.5H7.5C6.12 32.5 5 33.62 5 35V45C5 46.38 6.12 47.5 7.5 47.5H12.5V52.5H7.5C6.12 52.5 5 53.62 5 55V65C5 66.38 6.12 67.5 7.5 67.5H12.5V72.5C12.5 73.88 13.62 75 15 75H25C26.38 75 27.5 73.88 27.5 72.5V67.5H32.5V72.5C32.5 73.88 33.62 75 35 75H45C46.38 75 47.5 73.88 47.5 72.5V67.5H52.5V72.5C52.5 73.88 53.62 75 55 75H65C66.38 75 67.5 73.88 67.5 72.5V67.5H72.5C73.88 67.5 75 66.38 75 65V55C75 53.62 73.88 52.5 72.5 52.5H67.5V47.5H72.5C73.88 47.5 75 46.38 75 45V35C75 33.62 73.88 32.5 72.5 32.5H67.5V27.5H72.5C73.88 27.5 75 26.38 75 25ZM72.5 15V25H67.5V15H72.5ZM35 7.5H45V12.5H35V7.5ZM52.5 15V25H27.5V15H52.5ZM45 52.5H35V27.5H45V52.5ZM47.5 47.5H52.5V52.5H47.5V47.5ZM32.5 52.5H27.5V47.5H32.5V52.5ZM32.5 32.5H27.5V27.5H32.5V32.5ZM47.5 27.5H52.5V32.5H47.5V27.5ZM7.5 25V15H12.5V25H7.5ZM15 7.5H25V32.5H15V7.5ZM7.5 45V35H32.5V45H7.5ZM7.5 65V55H12.5V65H7.5ZM25 72.5H15V47.5H25V72.5ZM45 72.5H35V67.5H45V72.5ZM27.5 65V55H52.5V65H27.5ZM72.5 55V65H67.5V55H72.5ZM65 72.5H55V47.5H65V72.5ZM72.5 35V45H47.5V35H72.5ZM65 32.5H55V7.5H65V32.5Z" fill="#111918"/>
</svg>
