<svg width="40" height="40" viewBox="0 0 40 40" fill="none" xmlns="http://www.w3.org/2000/svg">
<path d="M8.73832 11.918H7.65918V12.6992H8.73832V11.918Z" fill="black"/>
<path d="M37.2734 27.9203C37.5773 26.7773 37.7312 25.593 37.7312 24.4C37.7312 21.0562 36.507 17.9055 34.3999 15.4742C34.2257 15.2719 34.0436 15.0742 33.8562 14.882C32.6601 13.6547 31.2233 12.6438 29.5967 11.9266L29.2819 12.6414C30.7351 13.282 32.0265 14.1727 33.1171 15.2492C33.2968 15.4258 33.4702 15.6078 33.639 15.7945C32.3694 16.4133 30.8344 16.8938 29.1437 17.2133C29.0859 16.9805 29.0249 16.7516 28.9617 16.5281C28.5702 15.1508 28.0742 13.9508 27.4858 13.0008C28.7522 11.1523 29.9741 8.99141 29.9741 7.53282C29.9741 4.46875 27.4812 1.97578 24.4172 1.97578C21.353 1.97578 18.8601 4.46875 18.8601 7.53282C18.8601 8.56407 19.4711 9.9461 20.2765 11.3211C19.7304 11.4805 19.1999 11.6719 18.6874 11.8938H9.73193V12.675H17.1554C16.121 13.2883 15.1804 14.0313 14.3538 14.8797C14.1663 15.0719 13.9843 15.2695 13.8093 15.4727C12.9397 16.475 12.2194 17.6039 11.6733 18.8219H5.43115V19.6031H11.3522C11.1726 20.0805 11.0194 20.5712 10.8937 21.0703H8.04053V21.8516H10.721C10.564 22.6805 10.4819 23.532 10.4819 24.4C10.4819 25.7844 10.6905 27.1219 11.0765 28.382H4.80615V29.1633H11.3421C11.5554 29.732 11.8054 30.2828 12.089 30.8133H9.34209V31.5945H12.5421C12.9655 32.2719 13.4468 32.9102 13.9788 33.5016C14.0554 33.5875 14.1327 33.6711 14.2124 33.7547C16.5272 36.2024 19.7374 37.7953 23.3147 38.0008C23.471 38.0102 23.628 38.0172 23.7858 38.0203C23.8928 38.0226 23.9998 38.0242 24.1069 38.0242C24.1733 38.0242 24.2397 38.0234 24.3084 38.0226C24.3373 38.0234 24.3662 38.0242 24.3944 38.0242C24.4562 38.0242 24.5194 38.0211 24.5843 38.0163L24.6405 38.0148L24.6453 38.0132C28.2733 37.8725 31.6109 36.3015 34.0124 33.7609C34.078 33.692 34.1429 33.6217 34.2061 33.5514C35.2998 32.3452 36.1866 30.9303 36.8022 29.3553L36.0747 29.0709C35.6264 30.2185 35.024 31.2748 34.2974 32.2209C32.9255 31.5037 31.2365 30.9506 29.3639 30.5913C29.7342 28.7748 29.9373 26.7569 29.9537 24.6693H36.9459C36.9241 25.7029 36.7819 26.728 36.5179 27.7185L37.2734 27.9203ZM29.1695 23.8883H24.8078V18.4414C26.0929 18.4109 27.3476 18.2984 28.5405 18.1094C28.9172 19.8617 29.1375 21.8383 29.1695 23.8883ZM24.8078 17.6602V16.5C25.0617 16.2016 25.7577 15.3695 26.5608 14.2938C26.7023 14.1039 26.8468 13.9063 26.9928 13.7031C27.5437 14.6797 28.0076 15.925 28.364 17.3477C27.2281 17.5242 26.0328 17.6305 24.8078 17.6602ZM24.0265 17.668C22.7851 17.6648 21.5679 17.582 20.4062 17.4281C20.464 17.1953 20.5242 16.9664 20.5874 16.743C20.9226 15.5547 21.3366 14.5086 21.8162 13.6672C22.8014 15.0406 23.7256 16.1461 24.0265 16.5V17.668H24.0265ZM20.232 18.1914C21.45 18.3578 22.7265 18.4461 24.0265 18.4492V23.8883H19.621C19.6523 21.8702 19.8664 19.9234 20.232 18.1914ZM24.0265 24.6695V27.1961H24.8078V24.6695H29.1726C29.1562 26.7149 28.9569 28.6867 28.5952 30.4556C27.1718 30.2274 25.6585 30.1079 24.1069 30.1079C22.757 30.1079 21.4359 30.1985 20.1781 30.3727C19.8273 28.6266 19.6335 26.6853 19.6179 24.6696H24.0265V24.6695ZM19.6414 7.53282C19.6414 4.89922 21.7843 2.75703 24.4172 2.75703C27.0507 2.75703 29.1929 4.89922 29.1929 7.53282C29.1929 8.88125 27.9179 11.032 26.646 12.8414C26.4804 13.0766 26.3147 13.307 26.1522 13.5281C25.4382 14.5008 24.7797 15.3133 24.4164 15.7508C22.8492 13.8773 19.6414 9.61172 19.6414 7.53282ZM20.6991 12.0148C20.7851 12.15 20.8718 12.2852 20.9594 12.4188C21.0796 12.6039 21.2022 12.7867 21.3257 12.9664C20.6194 14.0969 20.0421 15.5859 19.6226 17.3109C17.7101 16.9953 15.9772 16.4789 14.5694 15.7914C14.7374 15.6047 14.9116 15.4227 15.0905 15.2469C16.6163 13.7414 18.5288 12.6102 20.6991 12.0148ZM14.0499 16.4055C15.3788 17.0789 16.9952 17.6031 18.7788 17.9516C18.9999 17.9953 19.2233 18.0359 19.4499 18.0734C19.0819 19.8383 18.8694 21.8156 18.8397 23.8883H11.2741C11.3844 21.0938 12.3929 18.493 14.0499 16.4055ZM11.2672 24.6695H18.8367C18.8523 26.722 19.0484 28.7024 19.4054 30.4907C19.1648 30.5313 18.9273 30.575 18.6929 30.622C16.8867 30.9814 15.2562 31.522 13.9242 32.2173C12.3078 30.1164 11.3258 27.5048 11.2672 24.6695ZM14.9366 33.3813C14.7616 33.2038 14.5937 33.0218 14.4304 32.8352C15.8507 32.1188 17.6147 31.5805 19.5702 31.2539C19.7851 32.1773 20.0452 33.0414 20.3476 33.8273C20.9148 35.3 21.6007 36.4148 22.3624 37.1241C22.0585 37.0828 21.7585 37.0305 21.4617 36.9679C18.9351 36.4368 16.6789 35.161 14.9366 33.3813ZM21.0773 33.5462C20.7937 32.8102 20.5492 32.0016 20.3452 31.1376C21.5483 30.9743 22.8132 30.8891 24.1069 30.8891C25.6023 30.8891 27.0585 31.0023 28.4257 31.218C28.2343 32.0148 28.0084 32.7633 27.7499 33.45C26.8897 35.7336 25.7312 37.1109 24.571 37.2343H24.5632L24.5069 37.2351L24.5015 37.2367C24.439 37.2384 24.3773 37.2398 24.3171 37.2414C23.1405 37.1867 21.9601 35.8414 21.0773 33.5462ZM26.5437 37.0102C27.2765 36.2796 27.9366 35.1695 28.4812 33.7257C28.6804 33.1968 28.8608 32.6336 29.0211 32.0406C29.0827 31.8156 29.1405 31.5859 29.1961 31.3531C30.9359 31.6852 32.5054 32.189 33.7913 32.8391C33.628 33.0266 33.4593 33.2094 33.2851 33.3859C31.4758 35.2352 29.1312 36.5133 26.5437 37.0102ZM29.9508 23.8883C29.9202 21.7759 29.6999 19.7641 29.3187 17.9743C31.146 17.6259 32.8015 17.0954 34.1585 16.4087C35.8265 18.5087 36.8295 21.1157 36.9397 23.8883H29.9508Z" fill="black"/>
<path d="M3.9777 18.8216H2.39941V19.6029H3.9777V18.8216Z" fill="black"/>
<path d="M3.57029 28.3716H2.26904V29.1528H3.57029V28.3716Z" fill="black"/>
<path d="M8.166 30.8131H6.86475V31.5944H8.166V30.8131Z" fill="black"/>
<path d="M24.509 4.47735C22.8316 4.47735 21.4668 5.84141 21.4668 7.51875C21.4668 9.1961 22.8316 10.5602 24.509 10.5602C26.1855 10.5602 27.5504 9.1961 27.5504 7.51875C27.5504 5.84141 26.1855 4.47735 24.509 4.47735ZM24.509 9.77891C23.262 9.77891 22.248 8.76485 22.248 7.51875C22.248 6.27266 23.262 5.2586 24.509 5.2586C25.755 5.2586 26.7691 6.27266 26.7691 7.51875C26.7691 8.76485 25.755 9.77891 24.509 9.77891Z" fill="black"/>
<path d="M37.2734 27.9203C37.5773 26.7773 37.7312 25.593 37.7312 24.4C37.7312 21.0562 36.507 17.9055 34.3999 15.4742C34.2257 15.2719 34.0436 15.0742 33.8562 14.882C32.6601 13.6547 31.2233 12.6438 29.5967 11.9266L29.2819 12.6414C30.7351 13.282 32.0265 14.1727 33.1171 15.2492C33.2968 15.4258 33.4702 15.6078 33.639 15.7945C32.3694 16.4133 30.8344 16.8938 29.1437 17.2133C29.0859 16.9805 29.0249 16.7516 28.9617 16.5281C28.5702 15.1508 28.0742 13.9508 27.4858 13.0008C28.7522 11.1523 29.9741 8.99141 29.9741 7.53282C29.9741 4.46875 27.4812 1.97578 24.4172 1.97578C21.353 1.97578 18.8601 4.46875 18.8601 7.53282C18.8601 8.56407 19.4711 9.9461 20.2765 11.3211C19.7304 11.4805 19.1999 11.6719 18.6874 11.8938H9.73193V12.675H17.1554C16.121 13.2883 15.1804 14.0313 14.3538 14.8797C14.1663 15.0719 13.9843 15.2695 13.8093 15.4727C12.9397 16.475 12.2194 17.6039 11.6733 18.8219H5.43115V19.6031H11.3522C11.1726 20.0805 11.0194 20.5712 10.8937 21.0703H8.04053V21.8516H10.721C10.564 22.6805 10.4819 23.532 10.4819 24.4C10.4819 25.7844 10.6905 27.1219 11.0765 28.382H4.80615V29.1633H11.3421C11.5554 29.732 11.8054 30.2828 12.089 30.8133H9.34209V31.5945H12.5421C12.9655 32.2719 13.4468 32.9102 13.9788 33.5016C14.0554 33.5875 14.1327 33.6711 14.2124 33.7547C16.5272 36.2024 19.7374 37.7953 23.3147 38.0008C23.471 38.0102 23.628 38.0172 23.7858 38.0203C23.8928 38.0226 23.9998 38.0242 24.1069 38.0242C24.1733 38.0242 24.2397 38.0234 24.3084 38.0226C24.3373 38.0234 24.3662 38.0242 24.3944 38.0242C24.4562 38.0242 24.5194 38.0211 24.5843 38.0163L24.6405 38.0148L24.6453 38.0132C28.2733 37.8725 31.6109 36.3015 34.0124 33.7609C34.078 33.692 34.1429 33.6217 34.2061 33.5514C35.2998 32.3452 36.1866 30.9303 36.8022 29.3553L36.0747 29.0709C35.6264 30.2185 35.024 31.2748 34.2974 32.2209C32.9255 31.5037 31.2365 30.9506 29.3639 30.5913C29.7342 28.7748 29.9373 26.7569 29.9537 24.6693H36.9459C36.9241 25.7029 36.7819 26.728 36.5179 27.7185L37.2734 27.9203ZM29.1695 23.8883H24.8078V18.4414C26.0929 18.4109 27.3476 18.2984 28.5405 18.1094C28.9172 19.8617 29.1375 21.8383 29.1695 23.8883ZM24.8078 17.6602V16.5C25.0617 16.2016 25.7577 15.3695 26.5608 14.2938C26.7023 14.1039 26.8468 13.9063 26.9928 13.7031C27.5437 14.6797 28.0076 15.925 28.364 17.3477C27.2281 17.5242 26.0328 17.6305 24.8078 17.6602ZM24.0265 17.668C22.7851 17.6648 21.5679 17.582 20.4062 17.4281C20.464 17.1953 20.5242 16.9664 20.5874 16.743C20.9226 15.5547 21.3366 14.5086 21.8162 13.6672C22.8014 15.0406 23.7256 16.1461 24.0265 16.5V17.668H24.0265ZM20.232 18.1914C21.45 18.3578 22.7265 18.4461 24.0265 18.4492V23.8883H19.621C19.6523 21.8702 19.8664 19.9234 20.232 18.1914ZM24.0265 24.6695V27.1961H24.8078V24.6695H29.1726C29.1562 26.7149 28.9569 28.6867 28.5952 30.4556C27.1718 30.2274 25.6585 30.1079 24.1069 30.1079C22.757 30.1079 21.4359 30.1985 20.1781 30.3727C19.8273 28.6266 19.6335 26.6853 19.6179 24.6696H24.0265V24.6695ZM19.6414 7.53282C19.6414 4.89922 21.7843 2.75703 24.4172 2.75703C27.0507 2.75703 29.1929 4.89922 29.1929 7.53282C29.1929 8.88125 27.9179 11.032 26.646 12.8414C26.4804 13.0766 26.3147 13.307 26.1522 13.5281C25.4382 14.5008 24.7797 15.3133 24.4164 15.7508C22.8492 13.8773 19.6414 9.61172 19.6414 7.53282ZM20.6991 12.0148C20.7851 12.15 20.8718 12.2852 20.9594 12.4188C21.0796 12.6039 21.2022 12.7867 21.3257 12.9664C20.6194 14.0969 20.0421 15.5859 19.6226 17.3109C17.7101 16.9953 15.9772 16.4789 14.5694 15.7914C14.7374 15.6047 14.9116 15.4227 15.0905 15.2469C16.6163 13.7414 18.5288 12.6102 20.6991 12.0148ZM14.0499 16.4055C15.3788 17.0789 16.9952 17.6031 18.7788 17.9516C18.9999 17.9953 19.2233 18.0359 19.4499 18.0734C19.0819 19.8383 18.8694 21.8156 18.8397 23.8883H11.2741C11.3844 21.0938 12.3929 18.493 14.0499 16.4055ZM11.2672 24.6695H18.8367C18.8523 26.722 19.0484 28.7024 19.4054 30.4907C19.1648 30.5313 18.9273 30.575 18.6929 30.622C16.8867 30.9814 15.2562 31.522 13.9242 32.2173C12.3078 30.1164 11.3258 27.5048 11.2672 24.6695ZM14.9366 33.3813C14.7616 33.2038 14.5937 33.0218 14.4304 32.8352C15.8507 32.1188 17.6147 31.5805 19.5702 31.2539C19.7851 32.1773 20.0452 33.0414 20.3476 33.8273C20.9148 35.3 21.6007 36.4148 22.3624 37.1241C22.0585 37.0828 21.7585 37.0305 21.4617 36.9679C18.9351 36.4368 16.6789 35.161 14.9366 33.3813ZM21.0773 33.5462C20.7937 32.8102 20.5492 32.0016 20.3452 31.1376C21.5483 30.9743 22.8132 30.8891 24.1069 30.8891C25.6023 30.8891 27.0585 31.0023 28.4257 31.218C28.2343 32.0148 28.0084 32.7633 27.7499 33.45C26.8897 35.7336 25.7312 37.1109 24.571 37.2343H24.5632L24.5069 37.2351L24.5015 37.2367C24.439 37.2384 24.3773 37.2398 24.3171 37.2414C23.1405 37.1867 21.9601 35.8414 21.0773 33.5462ZM26.5437 37.0102C27.2765 36.2796 27.9366 35.1695 28.4812 33.7257C28.6804 33.1968 28.8608 32.6336 29.0211 32.0406C29.0827 31.8156 29.1405 31.5859 29.1961 31.3531C30.9359 31.6852 32.5054 32.189 33.7913 32.8391C33.628 33.0266 33.4593 33.2094 33.2851 33.3859C31.4758 35.2352 29.1312 36.5133 26.5437 37.0102ZM29.9508 23.8883C29.9202 21.7759 29.6999 19.7641 29.3187 17.9743C31.146 17.6259 32.8015 17.0954 34.1585 16.4087C35.8265 18.5087 36.8295 21.1157 36.9397 23.8883H29.9508Z" fill="black"/>
<path d="M24.509 4.47735C22.8316 4.47735 21.4668 5.84141 21.4668 7.51875C21.4668 9.1961 22.8316 10.5602 24.509 10.5602C26.1855 10.5602 27.5504 9.1961 27.5504 7.51875C27.5504 5.84141 26.1855 4.47735 24.509 4.47735ZM24.509 9.77891C23.262 9.77891 22.248 8.76485 22.248 7.51875C22.248 6.27266 23.262 5.2586 24.509 5.2586C25.755 5.2586 26.7691 6.27266 26.7691 7.51875C26.7691 8.76485 25.755 9.77891 24.509 9.77891Z" fill="black"/>
<path d="M8.73832 11.918H7.65918V12.6992H8.73832V11.918Z" fill="black"/>
<path d="M3.97721 18.8216H2.39893V19.6029H3.97721V18.8216Z" fill="black"/>
<path d="M8.166 30.8131H6.86475V31.5944H8.166V30.8131Z" fill="black"/>
</svg>
