<svg width="40" height="24" viewBox="0 0 40 24" fill="none" xmlns="http://www.w3.org/2000/svg">
<path d="M20.64 8C20.4667 8.00533 20.3 8.07733 20.1773 8.20267L16.66 11.7093L14.4933 9.54933C13.8867 8.91733 12.9067 9.89333 13.54 10.4987L16.184 13.136C16.4467 13.3987 16.8733 13.3987 17.1373 13.136L21.1307 9.15333C21.5707 8.72667 21.2467 8 20.6413 8H20.64ZM0.666667 13.3333H4.66667C5.036 13.3333 5.33333 13.6307 5.33333 14C5.33333 14.3693 5.036 14.6667 4.66667 14.6667H0.666667C0.297333 14.6667 0 14.3693 0 14C0 13.6307 0.297333 13.3333 0.666667 13.3333ZM0.666667 8H4.66667C5.036 8 5.33333 8.29733 5.33333 8.66667C5.33333 9.036 5.036 9.33333 4.66667 9.33333H0.666667C0.297333 9.33333 0 9.036 0 8.66667C0 8.29733 0.297333 8 0.666667 8ZM0.666667 2.66667H4.66667C5.036 2.66667 5.33333 2.964 5.33333 3.33333C5.33333 3.70267 5.036 4 4.66667 4H0.666667C0.297333 4 0 3.70267 0 3.33333C0 2.964 0.297333 2.66667 0.666667 2.66667ZM32.6667 17.3333C30.8333 17.3333 29.3333 18.8333 29.3333 20.6667C29.3333 22.5 30.8333 24 32.6667 24C34.5 24 36 22.5 36 20.6667C36 18.8333 34.5 17.3333 32.6667 17.3333ZM32.6667 18.6667C33.7787 18.6667 34.6667 19.5547 34.6667 20.6667C34.6667 21.7787 33.7787 22.6667 32.6667 22.6667C31.5547 22.6667 30.6667 21.7787 30.6667 20.6667C30.6667 19.5547 31.5547 18.6667 32.6667 18.6667ZM15.3333 17.3333C13.5 17.3333 12 18.8333 12 20.6667C12 22.5 13.5 24 15.3333 24C17.1667 24 18.6667 22.5 18.6667 20.6667C18.6667 18.8333 17.1667 17.3333 15.3333 17.3333ZM15.3333 18.6667C16.4453 18.6667 17.3333 19.5547 17.3333 20.6667C17.3333 21.7787 16.4453 22.6667 15.3333 22.6667C14.2213 22.6667 13.3333 21.7787 13.3333 20.6667C13.3333 19.5547 14.2213 18.6667 15.3333 18.6667ZM8.66667 0C7.57067 0 6.66667 0.904 6.66667 2V16.6667C6.66667 17.7627 7.57067 18.6667 8.66667 18.6667H11.3333C12.2347 18.68 12.2347 17.32 11.3333 17.3333H8.66667C8.28533 17.3333 8 17.048 8 16.6667V2C8 1.61867 8.28533 1.33333 8.66667 1.33333H26C26.3813 1.33333 26.6667 1.61867 26.6667 2V17.3333H19.3333C18.4533 17.3333 18.4693 18.68 19.3333 18.6667H28.6667C29.5467 18.6667 29.5387 17.3333 28.6667 17.3333H28V5.33333H33.636L38.6667 13.1947V16.6667C38.6667 17.048 38.3813 17.3333 38 17.3333H36.6667C35.7947 17.3333 35.7947 18.6667 36.6667 18.6667H38C39.096 18.6667 40 17.7627 40 16.6667V13C40 12.8733 39.964 12.7467 39.896 12.64L34.5627 4.30667C34.44 4.116 34.2293 4 34 4H28V2C28 0.904 27.096 0 26 0H8.66667Z" fill="black"/>
</svg>
