<svg width="36" height="36" viewBox="0 0 36 36" fill="none" xmlns="http://www.w3.org/2000/svg">
<g clip-path="url(#clip0_21_1011)">
<path d="M26.2339 25.2766C26.5512 25.2766 26.8083 25.0194 26.8083 24.7021V21.6383C26.8083 21.321 26.5511 21.0639 26.2339 21.0639H9.76586C9.44861 21.0639 9.19141 21.321 9.19141 21.6383V24.7021C9.19141 25.0194 9.44861 25.2766 9.76586 25.2766H9.95732V26.4255H9.76586C9.44861 26.4255 9.19141 26.6826 9.19141 26.9999V30.0637C9.19141 30.3811 9.44861 30.6382 9.76586 30.6382H9.95732V31.7871H9.76586C9.44861 31.7871 9.19141 32.0442 9.19141 32.3615V35.4253C9.19141 35.7427 9.44861 35.9998 9.76586 35.9998H26.2339C26.5512 35.9998 26.8083 35.7427 26.8083 35.4253V32.3615C26.8083 32.0442 26.5512 31.7871 26.2339 31.7871H26.0424V30.6382H26.2339C26.5512 30.6382 26.8083 30.3811 26.8083 30.0637V26.9999C26.8083 26.6826 26.5512 26.4255 26.2339 26.4255H26.0424V25.2766H26.2339ZM25.6594 34.851H10.3404V32.9361H25.6594V34.851ZM25.6594 29.4893H23.1701C22.8528 29.4893 22.5956 29.7464 22.5956 30.0637C22.5956 30.3811 22.8528 30.6382 23.1701 30.6382H24.8935V31.7871H11.1063V30.6382H20.8722C21.1895 30.6382 21.4467 30.3811 21.4467 30.0637C21.4467 29.7464 21.1895 29.4893 20.8722 29.4893H10.3404V27.5744H25.6594V29.4893ZM11.1063 26.4255V25.2766H24.8935V26.4255H11.1063ZM25.6594 24.1276H10.3404V22.2127H25.6594V24.1276Z" fill="black"/>
<path d="M35.7416 11.5842L18.3162 0.0948552C18.1243 -0.0314963 17.8756 -0.0314963 17.6837 0.0948552L0.2583 11.5842C-0.00656673 11.7589 -0.0796918 12.1151 0.0948942 12.38L1.35982 14.2984C1.4437 14.4256 1.57469 14.5143 1.72389 14.545C1.87303 14.5756 2.02842 14.5457 2.15568 14.4619L3.63843 13.4842V35.4254C3.63843 35.7427 3.89564 35.9999 4.21289 35.9999H7.46821C7.78546 35.9999 8.04267 35.7427 8.04267 35.4254V17.617H27.9575V35.4254C27.9575 35.7427 28.2146 35.9999 28.5319 35.9999H31.7873C32.1046 35.9999 32.3617 35.7427 32.3617 35.4254V13.4843L33.8444 14.4618C33.939 14.5241 34.0491 14.5567 34.1607 14.5567C34.1992 14.5567 34.2379 14.5527 34.2762 14.5449C34.4255 14.5143 34.5565 14.4256 34.6403 14.2983L35.9053 12.3799C36.0796 12.1151 36.0065 11.7589 35.7416 11.5842ZM31.2126 34.851H29.1063V17.0426C29.1063 16.7252 28.8491 16.4681 28.5318 16.4681H7.46807C7.15082 16.4681 6.89362 16.7252 6.89362 17.0426V34.851H4.7872V12.7267L17.9999 4.01499L31.2126 12.7267V34.851ZM33.9971 13.1864L18.3162 2.84724C18.2202 2.78403 18.1102 2.75239 17.9999 2.75239C17.8897 2.75239 17.7796 2.78403 17.6837 2.84724L2.00268 13.1864L1.37022 12.2272L17.9998 1.26268L34.6294 12.2272L33.9971 13.1864Z" fill="black"/>
</g>
<defs>
<clipPath id="clip0_21_1011">
<rect width="36" height="36" fill="white"/>
</clipPath>
</defs>
</svg>
