<svg width="80" height="80" viewBox="0 0 80 80" fill="none" xmlns="http://www.w3.org/2000/svg">
<g clip-path="url(#clip0_463_61)">
<path d="M53.7235 52.1276C54.2523 52.1276 54.6809 51.6991 54.6809 51.1702V46.0639C54.6809 45.535 54.2522 45.1064 53.7235 45.1064H26.2768C25.748 45.1064 25.3193 45.535 25.3193 46.0639V51.1702C25.3193 51.6991 25.748 52.1276 26.2768 52.1276H26.5959V54.0425H26.2768C25.748 54.0425 25.3193 54.471 25.3193 54.9999V60.1062C25.3193 60.6351 25.748 61.0636 26.2768 61.0636H26.5959V62.9785H26.2768C25.748 62.9785 25.3193 63.407 25.3193 63.9359V69.0422C25.3193 69.5711 25.748 69.9996 26.2768 69.9996H53.7235C54.2523 69.9996 54.6809 69.5711 54.6809 69.0422V63.9359C54.6809 63.407 54.2523 62.9785 53.7235 62.9785H53.4044V61.0636H53.7235C54.2523 61.0636 54.6809 60.6351 54.6809 60.1062V54.9999C54.6809 54.471 54.2523 54.0425 53.7235 54.0425H53.4044V52.1276H53.7235ZM52.7661 68.0849H27.2343V64.8934H52.7661V68.0849ZM52.7661 59.1488H48.6171C48.0883 59.1488 47.6597 59.5773 47.6597 60.1062C47.6597 60.6351 48.0883 61.0636 48.6171 61.0636H51.4894V62.9785H28.5108V61.0636H44.7873C45.3162 61.0636 45.7448 60.6351 45.7448 60.1062C45.7448 59.5773 45.3162 59.1488 44.7873 59.1488H27.2343V55.9573H52.7661V59.1488ZM28.5108 54.0425V52.1276H51.4894V54.0425H28.5108ZM52.7661 50.2127H27.2343V47.0212H52.7661V50.2127Z" fill="black"/>
<path d="M69.5694 29.3068L40.5269 10.1579C40.2071 9.94735 39.7926 9.94735 39.4728 10.1579L10.4305 29.3068C9.98906 29.5979 9.86718 30.1917 10.1582 30.6332L12.2664 33.8305C12.4062 34.0425 12.6245 34.1903 12.8732 34.2415C13.1217 34.2925 13.3807 34.2427 13.5928 34.103L16.0641 32.4735V69.0422C16.0641 69.5711 16.4927 69.9996 17.0215 69.9996H22.447C22.9758 69.9996 23.4044 69.5711 23.4044 69.0422V39.3615H56.5958V69.0422C56.5958 69.5711 57.0244 69.9996 57.5532 69.9996H62.9788C63.5076 69.9996 63.9362 69.5711 63.9362 69.0422V32.4736L66.4073 34.1029C66.565 34.2067 66.7485 34.2609 66.9344 34.2609C66.9987 34.2609 67.0632 34.2544 67.127 34.2414C67.3758 34.1903 67.5941 34.0425 67.7339 33.8304L69.8421 30.6331C70.1327 30.1917 70.0109 29.5979 69.5694 29.3068ZM62.021 68.0848H58.5104V38.4041C58.5104 37.8752 58.0819 37.4467 57.553 37.4467H22.4468C21.918 37.4467 21.4894 37.8752 21.4894 38.4041V68.0848H17.9787V31.211L39.9998 16.6915L62.021 31.211V68.0848ZM66.6619 31.9772L40.5269 14.7452C40.367 14.6399 40.1836 14.5872 39.9998 14.5872C39.8162 14.5872 39.6327 14.6399 39.4728 14.7452L13.3378 31.9772L12.2837 30.3785L39.9997 12.1043L67.7157 30.3785L66.6619 31.9772Z" fill="black"/>
</g>
<defs>
<clipPath id="clip0_463_61">
<rect width="60" height="60" fill="white" transform="translate(10 10)"/>
</clipPath>
</defs>
</svg>
