<svg width="38" height="38" viewBox="0 0 38 38" fill="none" xmlns="http://www.w3.org/2000/svg">
<g clip-path="url(#clip0_83_582)">
<path d="M37.2083 19H11.6533C11.8038 18.4854 11.8829 17.955 11.875 17.4167C11.875 15.5167 9.49206 14.25 7.91669 14.25H3.16669C2.6125 14.25 2.06625 14.4083 1.58338 14.6933V8.70832C1.58338 8.27288 1.22713 7.91663 0.791691 7.91663C0.35625 7.9167 0 8.27295 0 8.70832V29.2916C0 29.7271 0.35625 30.0833 0.791691 30.0833C1.22713 30.0833 1.58338 29.7271 1.58338 29.2916V25.3333H36.4167V28.5C36.4167 28.9354 36.7729 29.2917 37.2084 29.2917C37.6438 29.2917 38.0001 28.9354 38.0001 28.5V19.7917C38 19.3563 37.6437 19 37.2083 19ZM3.16669 15.8333H7.91669C8.87463 15.8333 10.2917 16.6646 10.2917 17.4166C10.2917 19 9.84831 19 9.5 19H3.16669C2.29588 19 1.58338 18.2875 1.58338 17.4167C1.58338 16.5459 2.29581 15.8333 3.16669 15.8333ZM36.4167 23.75H1.58331V20.5833H36.4166V23.75H36.4167Z" fill="black"/>
</g>
<defs>
<clipPath id="clip0_83_582">
<rect width="38" height="38" fill="white"/>
</clipPath>
</defs>
</svg>
