<svg width="100" height="100" viewBox="0 0 100 100" fill="none" xmlns="http://www.w3.org/2000/svg">
<g clip-path="url(#clip0_696_11)">
<path d="M92.096 41.5419L51.8047 12.0414C51.0277 11.4727 49.9722 11.4727 49.1956 12.0414L8.90393 41.5419C7.91979 42.2626 7.70596 43.6445 8.42663 44.6286C9.14731 45.6128 10.5294 45.8263 11.5134 45.1059L50.5 16.5606L89.4866 45.1058C89.8797 45.3938 90.3366 45.5324 90.7895 45.5324C91.4695 45.5324 92.1405 45.2195 92.5731 44.6285C93.294 43.6445 93.0802 42.2626 92.096 41.5419Z" fill="black"/>
<path d="M81.4198 45.6057C80.2002 45.6057 79.2113 46.5945 79.2113 47.8142V82.9679H61.5436V63.7788C61.5436 57.6893 56.5893 52.7354 50.5002 52.7354C44.4111 52.7354 39.4568 57.6897 39.4568 63.7788V82.968H21.789V47.8144C21.789 46.5947 20.8 45.6059 19.5805 45.6059C18.3609 45.6059 17.3719 46.5947 17.3719 47.8144V85.1767C17.3719 86.3964 18.3609 87.3852 19.5805 87.3852H41.6653C42.8268 87.3852 43.7772 86.4879 43.8652 85.3487C43.8705 85.2971 43.8739 85.2406 43.8739 85.1767V63.7789C43.8739 60.1251 46.8464 57.1526 50.5002 57.1526C54.154 57.1526 57.1266 60.1253 57.1266 63.7789V85.1767C57.1266 85.2403 57.1299 85.2957 57.1352 85.3467C57.2222 86.4867 58.1729 87.3852 59.3351 87.3852H81.42C82.6397 87.3852 83.6285 86.3964 83.6285 85.1767V47.8144C83.6283 46.5945 82.6395 45.6057 81.4198 45.6057Z" fill="black"/>
</g>
<defs>
<clipPath id="clip0_696_11">
<rect width="85" height="85" fill="white" transform="translate(8 7)"/>
</clipPath>
</defs>
</svg>
