<?xml version="1.0" encoding="UTF-8"?> <svg xmlns="http://www.w3.org/2000/svg" xmlns:xlink="http://www.w3.org/1999/xlink" version="1.1" id="Слой_1" x="0px" y="0px" viewBox="0 0 1366 768" style="enable-background:new 0 0 1366 768;" xml:space="preserve"> <style type="text/css"> .st0{fill-rule:evenodd;clip-rule:evenodd;fill:#634E42;} </style> <g> <path class="st0" d="M530.12,296.29l-3.06,0.24l-3.73,60.92c-1.54,25.19-31.42,44.16-56.46,40.98c-0.25-0.03-0.49-0.06-0.74-0.1 c-24.71-3.21-34.49-16.49-38.04-33.96c-6.25-30.75-10.99-69.79-10.99-69.79l-1.98-0.32c-13.91-2.28-28.1-2.1-41.95,0.51 c0,0-0.65,6.58,7.2,61.26c8.27,57.58,28.72,70.41,50.97,77.19c56.8,17.3,90-10.15,90-10.15l-4.5,69.61 c14.84,2.42,29.96,2.51,44.83,0.27l1.79-0.27l9.34-193.79C558.75,296.03,544.39,295.16,530.12,296.29z"></path> <path class="st0" d="M634.79,399.96l-1.18-45.99l-0.08-0.01c-14.5-1.11-29.08-0.35-43.38,2.25l3.23,116.59 c0,0-3.28,20.5,27.96,19.86c31.24-0.65,102.08,6.37,103.11-42.55C725.6,395.43,664.28,399.08,634.79,399.96z M636.82,472.12 l-0.95-42.94c0,0,49.68-5.86,53.59,17.65C694.59,477.66,636.82,472.12,636.82,472.12z"></path> <path class="st0" d="M737.26,352.2l-0.68,0.09l-3.54,139.94c13.66,1.83,27.5,1.89,41.18,0.17l1.37-0.17l3.32-137.66 C765.31,351.14,751.17,350.33,737.26,352.2z"></path> <path class="st0" d="M978.2,399.96l-1.18-45.99l-0.08-0.01c-14.5-1.11-29.08-0.35-43.38,2.25l3.23,116.59 c0,0-3.28,20.5,27.96,19.86c31.24-0.65,102.08,6.37,103.11-42.55C1069.01,395.43,1007.69,399.08,978.2,399.96z M980.23,472.12 l-0.94-42.94c0,0,49.68-5.86,53.59,17.65C1038,477.66,980.23,472.12,980.23,472.12z"></path> <path class="st0" d="M1080.67,352.2l-0.68,0.09l-3.54,139.94c13.66,1.83,27.5,1.89,41.18,0.17l1.37-0.17l3.32-137.66 C1108.72,351.14,1094.58,350.33,1080.67,352.2z"></path> <path class="st0" d="M911.85,353.96l-106.65-1.66l3.3,139.94l1.33,0.21c13.67,2.14,27.58,2.07,41.23-0.21l-2.47-100.73l63.26,1.71 c2.1-12.59,2.16-25.44,0.19-38.06L911.85,353.96z"></path> <path class="st0" d="M1314.48,353.25l-1.59,0.26c0,0-5.45,56.49-7.98,78.39c-3.06,26.52-13.09,29.57-29.35,29.77 c-4.32,0.05-7.84-3.48-7.84-7.8l0-97.18c-12.8-2.14-25.85-2.29-38.7-0.43l-1.53,0.22v90.76c0,9.69-0.07,14.49-4.48,14.42 l-22.53-0.63c-1.88-0.05-3.41-1.52-3.53-3.39l-7.07-104.46l-0.09-0.02c-13.64-2.09-27.5-2.16-41.16-0.21 c0,0,5.69,79.22,7.56,105.59c1.09,15.39-2.05,36.06,41.76,36.06c0.01,0,2.46,0.08,6.57,0.2h98.45c9.78,0,19.58-3.34,26.31-10.43 c5.02-5.29,10.03-15.41,13.15-32.62c7.92-43.59,10.91-98.05,10.91-98.05C1340.5,351.27,1327.35,351.11,1314.48,353.25z"></path> <path class="st0" d="M179.78,466.02c-16.18,5.6-54.61,12.36-99.24,1.78c-29.49-6.99-51.21-25.21-63.07-47.82 c-1.45-2.77-5.73-1.42-5.45,1.7c1.17,13,2.93,25.97,5.31,38.85c5.03,27.29,26.9,48.64,54.85,53.55c21.83,3.83,43.88,6,65.97,6.59 c11.96,0.32,23.13-6.13,28.67-16.74c6.59-12.62,12.94-26.13,16.57-34.03C184.46,467.59,182.21,465.18,179.78,466.02z"></path> <path class="st0" d="M229.38,253.51c-51.99-9.13-105.22-9.13-157.21,0c-20.49,3.6-37.68,16.06-47.39,33.2 c-1.9,3.36,0.92,7.48,4.76,7.09l6.14-0.63v0c10.13-1.3,28.99-3.29,57.98-4.64c4.08-0.19,8.58-0.21,13.12-0.39 c16.8-0.66,49.4,7.38,52.48,55.75c1.48,12.67-7.18,31.26-18.49,33.98c-38.54,9.28-44.49-25.75-32.27-40.8l4.48-5.02 c0,0-9.7-0.19-20.89-0.4c-12.53-0.24-21.91,1.41-30.67,15.75c-4.86,7.96-5,16.11-4.69,28.61c1.21,47.91,64.39,53.2,96.01,45.78 c65.14-15.29,50.71-93.95,43.66-121.97c-1.23-4.87,2.58-9.51,7.59-9.26c8.99,0.46,20.17,0.97,29.51,1.62 c5.24,0.36,9.62,4.03,10.97,9.11c6.67,25,8.55,54.44,6.7,83.76c-2.72,43.1-13.49,85.95-28.94,114.04c-0.52,0.94-1.05,1.94-1.6,2.96 c-3.21,6.03,1.84,13.23,8.57,12.05c0.06-0.01,0.11-0.02,0.17-0.03c27.95-4.91,49.82-26.27,54.85-53.55 c9.35-50.75,9.35-102.73,0-153.49C279.2,279.77,257.32,258.42,229.38,253.51z"></path> </g> </svg> 