<?xml version="1.0" encoding="UTF-8"?>
<svg width="211px" height="132px" viewBox="0 0 211 132" version="1.1" xmlns="http://www.w3.org/2000/svg" xmlns:xlink="http://www.w3.org/1999/xlink">
    <!-- Generator: Sketch 52.2 (67145) - http://www.bohemiancoding.com/sketch -->
    <title>Group 4@svg</title>
    <desc>Created with Sketch.</desc>
    <defs>
        <polygon id="path-1" points="0.000659067358 0.856981915 56.2410736 0.856981915 56.2410736 56.9787234 0.000659067358 56.9787234"></polygon>
        <polygon id="path-3" points="0 102.246237 210.913637 102.246237 210.913637 0.000109574468 0 0.000109574468"></polygon>
    </defs>
    <g id="symbols" stroke="none" stroke-width="1" fill="none" fill-rule="evenodd">
        <g id="Elements-/-Logo" transform="translate(-18.000000, -4.000000)">
            <g id="Group-4" transform="translate(18.000000, 4.000000)">
                <g id="Group" transform="translate(0.000000, 112.000000)" fill="#21303A">
                    <path d="M6.65896579,8.03139201 C4.81692662,8.03139201 3.37997357,9.51703355 3.37997357,12.2040481 C3.37997357,15.2362459 5.32299409,17.2306378 8.27931027,17.2306378 C9.45394394,17.2306378 10.6889343,16.9666742 11.5571418,16.4782286 C11.8206219,16.8437168 12.0655307,17.5160344 12.0655307,17.9841751 C12.0655307,18.8392368 9.99947539,20 7.57011938,20 C3.25926023,20 0,16.9260644 0,12.2649628 C0,7.97047733 2.91453078,5.26315789 6.76110785,5.26315789 C9.43421195,5.26315789 11.4166964,6.444226 12.3464213,8.15322139 C12.4880274,8.41831308 12.5309735,8.60105714 12.5309735,8.86614884 C12.5309735,9.19215522 12.3464213,9.47642376 11.9424959,9.72121056 C11.3551791,10.0675218 10.4440255,10.3111806 9.65474594,10.3517904 C9.0883218,8.80523415 8.03672288,8.03139201 6.65896579,8.03139201" id="Fill-15"></path>
                    <path d="M18.9937228,20 C15.8407607,20 14.619469,18.8005167 14.619469,15.0748844 L14.619469,5.26315789 L23.1836747,5.26315789 C23.6304318,5.26315789 23.8532272,5.53735884 23.8532272,6.08459391 C23.8532272,6.71583948 23.7750738,7.49527024 23.6304318,8.12651581 L17.9952265,8.12651581 L17.9952265,11.2430721 L22.1665149,11.2430721 C22.5526157,11.2430721 22.7555811,11.4741009 22.7555811,12.0003334 L22.7555811,14.0842605 L17.9952265,14.0842605 L17.9952265,15.0317123 C17.9952265,16.6325791 18.4023237,17.1576447 19.3588272,17.1576447 L23.4274665,17.1576447 C23.8147337,17.1576447 24.0176991,17.3898404 24.0176991,17.9160728 L24.0176991,20 L18.9937228,20" id="Fill-16"></path>
                    <path d="M37.5578136,10.8623041 L35.3038027,15.2130934 C35.1462033,15.5257595 34.8888289,15.6918994 34.3548051,15.6918994 L32.7538678,15.6918994 L30.2606233,10.8623041 L29.4318094,20 L26.8217827,20 C26.3659918,20 26.0700678,19.8338601 26.1097511,19.355054 L27.4737225,6.05347629 C28.2254374,5.59659149 29.233393,5.26315789 29.8467833,5.26315789 C30.2821657,5.26315789 30.5191316,5.38660909 30.7560976,5.84464763 L33.900148,11.9860561 L37.2811644,5.42929782 L39.6145419,5.42929782 C40.0884738,5.42929782 40.2857564,5.63697273 40.3254397,5.99117382 L41.7699115,20 L39.0997929,20 C38.6065863,20 38.3684866,19.7923251 38.3288033,19.3758215 L37.5578136,10.8623041" id="Fill-17"></path>
                    <path d="M49.2757422,20 C46.1227801,20 44.9026549,18.8005167 44.9026549,15.0748844 L44.9026549,5.26315789 L53.4668606,5.26315789 C53.9147842,5.26315789 54.1375795,5.53735884 54.1375795,6.08459391 C54.1375795,6.71583948 54.0570932,7.49527024 53.9147842,8.12651581 L48.2795788,8.12651581 L48.2795788,11.2430721 L52.4497007,11.2430721 C52.8358016,11.2430721 53.0387669,11.4741009 53.0387669,12.0003334 L53.0387669,14.0842605 L48.2795788,14.0842605 L48.2795788,15.0317123 C48.2795788,16.6325791 48.6855095,17.1576447 49.642013,17.1576447 L53.7106523,17.1576447 C54.0979196,17.1576447 54.300885,17.3898404 54.300885,17.9160728 L54.300885,20 L49.2757422,20" id="Fill-18"></path>
                    <path d="M57.4336283,5 C58.1039691,4.80696352 58.8769011,4.70156324 59.8934874,4.70156324 C60.5230247,4.70156324 60.8086482,4.93604927 60.8086482,5.44883941 L60.8086482,13.7825675 L65.6665783,5.21316911 C65.8705951,4.85078162 66.1142494,4.70156324 66.582905,4.70156324 C67.1308357,4.70156324 68.2092099,5.14921838 68.920354,5.70582662 L68.920354,19.8282804 L66.276297,19.8282804 C65.7680038,19.8282804 65.5453341,19.6364282 65.5453341,19.2302226 L65.5453341,10.9403126 L60.687404,19.5085268 C60.4833872,19.8507816 60.2397329,20 59.7710773,20 C59.2219808,20 58.1447724,19.5724775 57.4336283,19.0170535 L57.4336283,5 Z M63.2277039,1.71009 C63.8584071,1.71009 64.1836681,1.23874941 64.2233056,0.0213169114 L65.7085475,0.0213169114 C66.1958561,0.0213169114 66.3182661,0.191852203 66.2984474,0.512790147 C66.135234,2.32946471 65.037041,3.52558029 63.2078851,3.52558029 C61.6830057,3.52558029 60.3609772,2.67053529 60.0776853,0.512790147 C60.4624026,0.213169114 61.1129246,0 61.601399,0 C61.9872821,0 62.1703142,0.106584557 62.2321022,0.491473235 C62.3731652,1.32520133 62.699592,1.71009 63.2277039,1.71009 Z" id="Fill-19"></path>
                    <path d="M72.7776624,20 C72.2738181,20 72.0530973,19.8130926 72.0530973,19.4173565 L72.0530973,5.55390276 C72.7175709,5.3658416 73.4837378,5.26315789 74.4902708,5.26315789 C75.1142982,5.26315789 75.3974217,5.49044654 75.3974217,5.99002007 L75.3974217,11.2984214 L80.1735421,11.2984214 L80.1735421,5.42814407 L82.8141023,5.42814407 C83.3179466,5.42814407 83.539823,5.63697273 83.539823,6.0327088 L83.539823,20 L80.8992628,20 C80.3954185,20 80.1735421,19.8130926 80.1735421,19.4173565 L80.1735421,14.1089552 L75.3974217,14.1089552 L75.3974217,20 L72.7776624,20" id="Fill-20"></path>
                    <path d="M86.6725664,5.55390276 C87.3125605,5.3658416 88.0505015,5.26315789 89.0210665,5.26315789 C89.6232175,5.26315789 89.8947976,5.49160029 89.8947976,5.99117382 L89.8947976,10.9246066 C90.5537133,10.6119405 91.6021906,10.3627306 92.6117118,10.3627306 C95.3286259,10.3627306 97.3287466,12.0287448 97.3287466,14.9419623 C97.3287466,18.2936045 95.1538797,20 91.5053567,20 L90.8842842,20 C88.0115454,20 86.6725664,18.4401307 86.6725664,15.2130934 L86.6725664,5.55390276 Z M91.6021906,17.19062 C93.020195,17.19062 94.0686723,16.628744 94.0686723,15.1300234 C94.0686723,13.6728379 93.2717405,13.0901944 91.7569022,13.0901944 C91.1358297,13.0901944 90.4179232,13.1940318 89.8947976,13.3809392 L89.8947976,15.0054185 C89.8947976,16.5445203 90.3021678,17.19062 91.1358297,17.19062 L91.6021906,17.19062 Z M99.7941153,20 C99.3088328,20 99.0951304,19.8130926 99.0951304,19.4173565 L99.0951304,5.55390276 C99.7551591,5.3658416 100.4931,5.26315789 101.462552,5.26315789 C102.064703,5.26315789 102.336283,5.49160029 102.336283,5.99117382 L102.336283,20 L99.7941153,20 Z" id="Fill-21"></path>
                    <path d="M106.513274,5 C107.183615,4.80696352 107.956547,4.70156324 108.973133,4.70156324 C109.602671,4.70156324 109.888294,4.93604927 109.888294,5.44883941 L109.888294,13.7825675 L114.746224,5.21316911 C114.950241,4.85078162 115.193895,4.70156324 115.662551,4.70156324 C116.210482,4.70156324 117.288856,5.14921838 118,5.70582662 L118,19.8282804 L115.355943,19.8282804 C114.84765,19.8282804 114.62498,19.6364282 114.62498,19.2302226 L114.62498,10.9403126 L109.765884,19.5085268 C109.563033,19.8507816 109.319379,20 108.850723,20 C108.301627,20 107.224418,19.5724775 106.513274,19.0170535 L106.513274,5 Z M112.306184,1.71009 C112.936887,1.71009 113.263314,1.23874941 113.302952,0.0213169114 L114.788194,0.0213169114 C115.275502,0.0213169114 115.397912,0.191852203 115.378093,0.512790147 C115.21488,2.32946471 114.116687,3.52558029 112.286365,3.52558029 C110.762652,3.52558029 109.440623,2.67053529 109.156166,0.512790147 C109.542049,0.213169114 110.192571,0 110.681045,0 C111.066928,0 111.248794,0.106584557 111.311748,0.491473235 C111.452811,1.32520133 111.779238,1.71009 112.306184,1.71009 Z" id="Fill-22"></path>
                </g>
                <g id="Group-2" transform="translate(129.000000, 117.000000)" fill="#21303A">
                    <path d="M6.91474586,6.93928462 C7.81181174,8.91272644 8.82388606,10.5948726 9.68480642,11.5931072 C10.0462615,12.0087504 10.4482434,12.2367209 10.9071819,12.2367209 L11.2116804,12.2367209 C11.3464046,12.610915 11.4230769,13.0875806 11.4230769,13.5861222 C11.4230769,14.2516119 10.5632519,15 9.45478953,15 C8.28937062,15 7.48759745,14.3552349 6.72416044,13.2545287 C5.97934384,12.2159963 5.17647536,10.6570464 4.50833106,8.93345103 C4.08772874,9.24431993 3.57183372,9.59894074 3.19066287,9.84648449 L3.19066287,14.7501535 L0.686764717,14.7501535 C0.209205839,14.7501535 0,14.5429076 0,14.1479889 L0,0.312020264 C0.629808153,0.146223519 1.37462475,0.0218759595 2.32974251,0.0218759595 C2.9025941,0.0218759595 3.19066287,0.249846484 3.19066287,0.76911268 L3.19066287,6.1713233 C4.94755379,4.73672091 6.83807357,2.57560639 8.32880208,0 C10.1240291,0.582591342 10.6202084,1.12258213 10.6202084,1.86981885 C10.6202084,2.09894074 10.5435361,2.38908505 10.3715711,2.68038072 C9.55117756,4.13455634 8.30799103,5.63018115 6.91474586,6.93928462" id="Fill-23"></path>
                    <path d="M16.3414574,15 C15.5939372,15 15.228434,14.5978363 15.228434,14.1521637 C15.228434,14.0239887 15.304397,13.7699906 15.4387084,13.6006585 C16.1311829,12.5811383 16.8599875,11.3934619 17.5700767,10.1411101 L13.5,1.4005174 C14.2486211,0.466839135 15.1128381,0 15.7469641,0 C16.2654943,0 16.4757688,0.148165569 16.726777,0.699670743 L19.3172261,6.72624647 C20.450066,4.49788335 21.275751,2.22718721 21.8911616,0.148165569 L23.791338,0.148165569 C24.5399591,0.148165569 24.9230769,0.509172154 24.9230769,1.03951082 C24.9230769,1.16650988 24.8856459,1.31585136 24.8471139,1.44285042 C23.4071192,5.62206021 20.7957528,11.1182973 17.9928274,15 L16.3414574,15" id="Fill-24"></path>
                    <path d="M28.7363344,15 C28.2510512,15 28.0384615,14.7862233 28.0384615,14.3788599 L28.0384615,0 L32.8323027,0 C36.287163,0 38.4230769,2.09976247 38.4230769,5.63657957 C38.4230769,9.02137767 36.1714074,11.0795724 33.1628741,11.0795724 C32.5996785,11.0795724 31.8428147,10.9714964 31.2807321,10.8004751 L31.2807321,15 L28.7363344,15 Z M31.2807321,8.01543943 C31.6680683,8.09976247 32.1533515,8.14370546 32.6386347,8.14370546 C34.1523621,8.14370546 35.1618847,7.28622328 35.1618847,5.54988124 C35.1618847,3.79334917 34.2302745,2.91448931 32.6965125,2.91448931 L31.2807321,2.91448931 L31.2807321,8.01543943 Z" id="Fill-25"></path>
                    <path d="M47.260083,15 C43.5080913,15 40.5,12.3061318 40.5,7.49942586 C40.5,2.6927199 43.5080913,0 47.260083,0 C50.9919087,0 54,2.6927199 54,7.49942586 C54,12.3061318 50.9919087,15 47.260083,15 M50.7375934,7.66592666 C50.7375934,4.66087422 49.116473,2.81673429 47.1435685,2.81673429 C45.3454357,2.81673429 43.7624066,4.20500651 43.7624066,7.33407334 C43.7624066,10.3368292 45.3846473,12.1809691 47.3575519,12.1809691 C49.1545643,12.1809691 50.7375934,10.7938452 50.7375934,7.66592666" id="Fill-26"></path>
                    <path d="M57.8133323,15 C57.3279971,15 57.1153846,14.7862233 57.1153846,14.3788599 L57.1153846,0 L61.9097397,0 C65.3649703,0 67.5,2.09976247 67.5,5.63657957 C67.5,9.02137767 65.2480891,11.0795724 62.2392333,11.0795724 C61.6759773,11.0795724 60.9190325,10.9714964 60.3568896,10.8004751 L60.3568896,15 L57.8133323,15 Z M60.3568896,8.01543943 C60.7453804,8.09976247 61.2296025,8.14370546 61.7149377,8.14370546 C63.2299405,8.14370546 64.2384582,7.28622328 64.2384582,5.54988124 C64.2384582,3.79334917 63.3067482,2.91448931 61.7739349,2.91448931 L60.3568896,2.91448931 L60.3568896,8.01543943 Z" id="Fill-27"></path>
                    <path d="M74.3333333,15 C73.8251748,15 73.6013986,14.807601 73.6013986,14.4002375 L73.6013986,2.91448931 L70.2482517,2.91448931 C69.8216783,2.91448931 69.5769231,2.6567696 69.5769231,2.07957245 C69.5769231,1.45724466 69.6794872,0.665083135 69.8006993,0 L80.4102564,0 C80.7972028,0 81,0.236342043 81,0.771971496 L81,2.91448931 L76.97669,2.91448931 L76.97669,15 L74.3333333,15" id="Fill-28"></path>
                </g>
                <g id="Group-18">
                    <g id="Group-3" transform="translate(0.000000, 45.267514)">
                        <mask id="mask-2" fill="white">
                            <use xlink:href="#path-1"></use>
                        </mask>
                        <g id="Clip-2"></g>
                        <path d="M56.2410736,28.9288649 L56.2410736,0.856981915 L42.1853637,0.856981915 L42.1853637,28.9288649 L42.1897575,28.9288649 C42.1337368,36.5749713 35.779229,42.8700245 28.1186694,42.9116628 L28.1186694,42.9357691 C20.4526176,42.8941309 14.0926176,36.589216 14.0464829,28.9354394 L0.000659067358,28.9354394 C0.0467937824,44.4062585 12.6250943,56.9382904 28.1186694,56.978833 L28.1186694,56.9547266 C43.6056539,56.914184 56.1795606,44.3920138 56.2366798,28.9288649 L56.2410736,28.9288649 Z" id="Fill-1" fill="#FCB813" mask="url(#mask-2)"></path>
                    </g>
                    <mask id="mask-4" fill="white">
                        <use xlink:href="#path-3"></use>
                    </mask>
                    <g id="Clip-5"></g>
                    <polygon id="Fill-4" fill="#EF5A71" mask="url(#mask-4)" points="0.0010984456 46.1430138 14.0568083 46.1430138 14.0568083 18.0722266 0.0010984456 18.0722266"></polygon>
                    <polygon id="Fill-6" fill="#00866B" mask="url(#mask-4)" points="84.3881927 88.2227872 84.3881927 60.1695319 84.3881927 60.1509043 84.3881927 32.0976489 70.3324829 32.0976489 70.3324829 60.1509043 70.3324829 60.1695319 70.3324829 88.2227872"></polygon>
                    <path d="M14.0469223,46.1339191 L0,46.1339191 C0.0472331606,61.605834 12.6255337,74.1367702 28.1191088,74.1773128 L28.1191088,60.1342489 C20.453057,60.0937064 14.093057,53.7887915 14.0469223,46.1339191" id="Fill-7" fill="#A6475F" mask="url(#mask-4)"></path>
                    <path d="M154.672124,46.127016 C154.630383,30.672633 142.06856,18.1241649 126.558508,18.0781436 L126.558508,32.0949096 C134.232249,32.1409309 140.57687,38.4776223 140.618611,46.1248245 L145.41772,46.1259202 L126.529948,46.1259202 L126.529948,60.1470691 L154.671026,60.1470691 L154.671026,46.127016 L154.672124,46.127016 Z" id="Fill-8" fill="#FCB813" mask="url(#mask-4)"></path>
                    <path d="M182.789695,18.0715691 C198.299747,18.1175904 210.862669,30.6660585 210.903312,46.1204415 L196.849799,46.11825 C196.809156,38.4710479 190.463436,32.1343564 182.789695,32.0883351 L182.789695,18.0715691 Z" id="Fill-9" fill="#00A481" mask="url(#mask-4)"></path>
                    <path d="M42.190856,46.1099223 L56.2366798,46.1099223 C56.1905451,61.5807415 43.6111461,74.1127734 28.1186694,74.153316 L28.1186694,60.1091564 C35.7847212,60.0686138 42.1447212,53.7636989 42.190856,46.1099223" id="Fill-10" fill="#EF5A71" mask="url(#mask-4)"></path>
                    <path d="M154.66784,74.1889277 L140.622017,74.1889277 C140.575882,81.8405128 134.218079,88.1454277 126.553125,88.1881617 L126.553125,88.187066 C118.888172,88.1465234 112.52927,81.8405128 112.483136,74.1878319 L98.4362135,74.1878319 C98.4834466,89.6575553 111.05955,102.188491 126.548732,102.231226 L126.548732,102.233417 C142.042307,102.191779 154.621706,89.6608426 154.66784,74.1889277" id="Fill-11" fill="#A6475F" mask="url(#mask-4)"></path>
                    <path d="M196.866825,60.1464117 L210.912649,60.1464117 C210.865416,75.6183266 198.287115,88.1492628 182.79354,88.1898053 L182.79354,74.1467415 C190.46069,74.1051032 196.82069,67.8001883 196.866825,60.1464117" id="Fill-12" fill="#00866B" mask="url(#mask-4)"></path>
                    <path d="M112.469845,46.127016 C112.430301,30.672633 99.8662798,18.1241649 84.3573264,18.0781436 L84.3573264,32.0949096 C92.0321658,32.1409309 98.3756891,38.4776223 98.4174301,46.1248245 L112.469845,46.127016 Z M70.2994197,32.0992926 L84.356228,32.0992926 L84.356228,18.0781436 L70.2994197,18.0781436 C54.7904663,18.1241649 42.227544,30.672633 42.1890984,46.127016 L56.241513,46.1248245 C56.2832539,38.4776223 62.6278756,32.1409309 70.2994197,32.0949096 L70.2994197,32.0992926 Z" id="Fill-13" fill="#00A481" mask="url(#mask-4)"></path>
                    <path d="M182.798263,88.1884904 L182.798263,74.1454266 C175.132211,74.1037883 168.772211,67.7988734 168.726077,60.1450968 L168.726077,46.1239479 L154.671465,46.1239479 L154.671465,60.1450968 L154.680253,60.1450968 C154.727486,75.615916 167.305787,88.1468521 182.798263,88.1884904" id="Fill-14" fill="#EF5A71" mask="url(#mask-4)"></path>
                    <path d="M126.545876,32.0952383 L126.545876,18.0784723 C111.036922,18.1244936 98.4750984,30.6707702 98.4333575,46.1240574 L98.4300622,46.1240574 L98.4300622,74.1959404 L112.48687,74.1959404 L112.48687,46.1240574 C112.527513,38.4768553 118.872135,32.1412596 126.545876,32.0952383" id="Fill-15" fill="#EF5A71" mask="url(#mask-4)"></path>
                    <path d="M182.791892,18.0710213 C167.28184,18.1170426 154.718918,30.6655106 154.678276,46.1198936 L168.731789,46.1177021 C168.772431,38.4705 175.118151,32.1338085 182.791892,32.0877872 L182.791892,18.0710213 Z" id="Fill-16" fill="#A6475F" mask="url(#mask-4)"></path>
                    <path d="M106.645666,9.91550319 C117.645501,20.8225457 135.422744,20.8104926 146.4072,9.91221596 L136.467366,0.000109574468 C131.017977,5.37802447 122.040381,5.38350319 116.582205,0.00339680851 L106.645666,9.91550319 Z" id="Fill-17" fill="#FCB813" mask="url(#mask-4)"></path>
                </g>
            </g>
        </g>
    </g>
</svg>