<svg width="80" height="80" viewBox="0 0 80 80" fill="none" xmlns="http://www.w3.org/2000/svg">
<path d="M78.5144 12.3374C80.4951 14.4598 80.4951 17.8296 78.5144 19.952L33.9913 67.6625C32.8387 68.8977 31.2112 69.488 29.5926 69.2989C28.1061 69.3554 26.6542 68.7607 25.6022 67.6333L1.48547 41.7901C-0.495157 39.6676 -0.495157 36.2979 1.48547 34.1754C3.56429 31.9478 7.01609 31.9478 9.09484 34.1754L29.8099 56.372L70.9051 12.3374C72.9839 10.1097 76.4356 10.1097 78.5144 12.3374Z" fill="url(#paint0_linear_10_647)"/>
<path d="M78.5144 12.3374C80.4951 14.4598 80.4951 17.8296 78.5144 19.952L33.9913 67.6625C32.8387 68.8977 31.2112 69.488 29.5926 69.2989C28.1061 69.3554 26.6542 68.7607 25.6022 67.6333L1.48547 41.7901C-0.495157 39.6676 -0.495157 36.2979 1.48547 34.1754C3.56429 31.9478 7.01609 31.9478 9.09484 34.1754L29.8099 56.372L70.9051 12.3374C72.9839 10.1097 76.4356 10.1097 78.5144 12.3374Z" fill="url(#paint1_linear_10_647)"/>
<defs>
<linearGradient id="paint0_linear_10_647" x1="4000" y1="10.6666" x2="4000" y2="5877.36" gradientUnits="userSpaceOnUse">
<stop stop-color="#1DD47F"/>
<stop offset="1" stop-color="#0DA949"/>
</linearGradient>
<linearGradient id="paint1_linear_10_647" x1="4000" y1="10.6666" x2="4000" y2="5877.36" gradientUnits="userSpaceOnUse">
<stop stop-color="#EBD300"/>
<stop offset="1" stop-color="#0DA949"/>
</linearGradient>
</defs>
</svg>
