<svg width="60" height="60" viewBox="0 0 60 60" fill="none" xmlns="http://www.w3.org/2000/svg">
<g clip-path="url(#clip0_2002_30)">
<path d="M57.5 2.5V47.5H50V45H55V5H5V45H25V47.5H2.5V2.5H57.5ZM40 7.5H20V10H40V7.5ZM35 15V12.5H25V15H35ZM17.5 27.5H7.5V30H17.5V27.5ZM17.5 32.5H7.5V35H17.5V32.5ZM7.5 40H12.5V37.5H7.5V40ZM42.5 32.5C42.5 33.4889 42.2068 34.4556 41.6573 35.2779C41.1079 36.1001 40.327 36.741 39.4134 37.1194C38.4998 37.4978 37.4945 37.5969 36.5245 37.4039C35.5546 37.211 34.6637 36.7348 33.9645 36.0355C33.2652 35.3363 32.789 34.4454 32.5961 33.4755C32.4031 32.5055 32.5022 31.5002 32.8806 30.5866C33.259 29.673 33.8999 28.8921 34.7221 28.3427C35.5444 27.7932 36.5111 27.5 37.5 27.5C38.8257 27.5013 40.0967 28.0285 41.0341 28.9659C41.9715 29.9033 42.4987 31.1743 42.5 32.5ZM40 32.5C40 32.0055 39.8534 31.5222 39.5787 31.1111C39.304 30.7 38.9135 30.3795 38.4567 30.1903C37.9999 30.0011 37.4972 29.9516 37.0123 30.048C36.5273 30.1445 36.0819 30.3826 35.7322 30.7322C35.3826 31.0819 35.1445 31.5273 35.048 32.0123C34.9516 32.4972 35.0011 32.9999 35.1903 33.4567C35.3795 33.9135 35.7 34.304 36.1111 34.5787C36.5222 34.8534 37.0055 35 37.5 35C38.1628 34.9993 38.7983 34.7357 39.267 34.267C39.7357 33.7983 39.9993 33.1628 40 32.5ZM40.005 21.7675C40.1178 22.0848 40.2958 22.375 40.5275 22.6193C40.7591 22.8637 41.0394 23.0569 41.3503 23.1864C41.6611 23.3159 41.9956 23.3789 42.3323 23.3713C42.6689 23.3638 43.0003 23.2858 43.305 23.1425C43.803 22.9098 44.3603 22.8346 44.9022 22.9271C45.4441 23.0196 45.9448 23.2753 46.3375 23.66C46.7263 24.0485 46.9854 24.5478 47.0794 25.0893C47.1734 25.6308 47.0976 26.1882 46.8625 26.685C46.7178 26.9899 46.6386 27.3218 46.63 27.6593C46.6214 27.9967 46.6837 28.3322 46.8128 28.6441C46.9419 28.956 47.1349 29.2373 47.3795 29.47C47.624 29.7027 47.9146 29.8815 48.2325 29.995C48.7491 30.1795 49.1961 30.5193 49.5121 30.9678C49.8281 31.4162 49.9977 31.9514 49.9977 32.5C49.9977 33.0486 49.8281 33.5838 49.5121 34.0322C49.1961 34.4807 48.7491 34.8205 48.2325 35.005C47.9145 35.1179 47.6236 35.2963 47.3789 35.5286C47.1341 35.761 46.9407 36.0421 46.8114 36.3538C46.682 36.6655 46.6195 37.0009 46.6279 37.3383C46.6363 37.6757 46.7153 38.0076 46.86 38.3125C47.0365 38.6745 47.1274 39.0723 47.1255 39.475C47.1237 39.8777 47.0292 40.2746 46.8493 40.635C46.6695 40.9954 46.4092 41.3095 46.0885 41.5532C45.7678 41.7968 45.3954 41.9634 45 42.04V59.655L37.5 53.31L30 59.655V42.04C29.605 41.9633 29.2328 41.7967 28.9124 41.5532C28.592 41.3098 28.3319 40.9959 28.1521 40.6358C27.9723 40.2758 27.8777 39.8793 27.8756 39.4768C27.8735 39.0744 27.964 38.6769 28.14 38.315C28.2851 38.01 28.3645 37.6779 28.3731 37.3402C28.3817 37.0025 28.3192 36.6668 28.1899 36.3548C28.0605 36.0427 27.867 35.7614 27.622 35.5289C27.377 35.2963 27.0859 35.1179 26.7675 35.005C26.2509 34.8205 25.8039 34.4807 25.4879 34.0322C25.1719 33.5838 25.0022 33.0486 25.0022 32.5C25.0022 31.9514 25.1719 31.4162 25.4879 30.9678C25.8039 30.5193 26.2509 30.1795 26.7675 29.995C27.0856 29.8818 27.3765 29.7031 27.6213 29.4706C27.8661 29.238 28.0594 28.9567 28.1887 28.6448C28.3181 28.3328 28.3806 27.9973 28.3722 27.6597C28.3638 27.3222 28.2847 26.9901 28.14 26.685C27.9046 26.1884 27.8284 25.6312 27.922 25.0897C28.0155 24.5482 28.2741 24.0488 28.6625 23.66C29.0553 23.2762 29.5557 23.0213 30.0971 22.9293C30.6384 22.8373 31.195 22.9125 31.6925 23.145C31.9974 23.2883 32.3289 23.3661 32.6657 23.3735C33.0024 23.3809 33.337 23.3177 33.6479 23.1879C33.9588 23.0581 34.239 22.8647 34.4706 22.6201C34.7022 22.3754 34.88 22.085 34.9925 21.7675C35.1765 21.25 35.5162 20.8022 35.965 20.4855C36.4137 20.1688 36.9495 19.9987 37.4987 19.9987C38.048 19.9987 38.5838 20.1688 39.0325 20.4855C39.4813 20.8022 39.821 21.25 40.005 21.7675ZM42.5 54.2675V41.6675C41.9677 41.6 41.4285 41.7188 40.9737 42.0036C40.519 42.2884 40.1767 42.7217 40.005 43.23C39.8205 43.7466 39.4807 44.1936 39.0322 44.5096C38.5838 44.8256 38.0486 44.9953 37.5 44.9953C36.9514 44.9953 36.4162 44.8256 35.9678 44.5096C35.5193 44.1936 35.1795 43.7466 34.995 43.23C34.8233 42.7217 34.481 42.2884 34.0263 42.0036C33.5716 41.7188 33.0323 41.6 32.5 41.6675V54.265L37.5 50.035L42.5 54.2675ZM37.65 42.395C37.9901 41.4384 38.618 40.6105 39.4475 40.0251C40.2769 39.4396 41.2672 39.1252 42.2825 39.125C43.0342 39.1331 43.7756 39.3009 44.4575 39.6175L44.6025 39.39C44.307 38.7693 44.1451 38.0936 44.1274 37.4064C44.1096 36.7192 44.2363 36.0359 44.4993 35.4008C44.7623 34.7657 45.1557 34.1929 45.6541 33.7195C46.1525 33.2461 46.7447 32.8826 47.3925 32.6525V32.3475C46.7452 32.1168 46.1535 31.7529 45.6555 31.2794C45.1576 30.8058 44.7645 30.2331 44.5016 29.5982C44.2386 28.9633 44.1118 28.2804 44.1292 27.5934C44.1466 26.9065 44.3078 26.2308 44.6025 25.61L44.385 25.4C43.7642 25.6946 43.0886 25.8557 42.4017 25.8729C41.7148 25.8901 41.0319 25.763 40.3972 25.4999C39.7624 25.2367 39.19 24.8433 38.7168 24.3451C38.2436 23.8469 37.8802 23.2549 37.65 22.6075H37.35C37.1198 23.2549 36.7564 23.8469 36.2832 24.3451C35.81 24.8433 35.2375 25.2367 34.6028 25.4999C33.9681 25.763 33.2852 25.8901 32.5983 25.8729C31.9114 25.8557 31.2358 25.6946 30.615 25.4L30.3975 25.61C30.6922 26.2308 30.8534 26.9065 30.8708 27.5934C30.8882 28.2804 30.7614 28.9633 30.4984 29.5982C30.2355 30.2331 29.8424 30.8058 29.3445 31.2794C28.8465 31.7529 28.2548 32.1168 27.6075 32.3475V32.6525C28.2553 32.8826 28.8475 33.2461 29.3459 33.7195C29.8443 34.1929 30.2377 34.7657 30.5007 35.4008C30.7637 36.0359 30.8904 36.7192 30.8726 37.4064C30.8549 38.0936 30.693 38.7693 30.3975 39.39L30.5425 39.615C31.2246 39.2993 31.966 39.1323 32.7175 39.125C33.7328 39.1252 34.7231 39.4396 35.5525 40.0251C36.382 40.6105 37.0099 41.4384 37.35 42.395L37.5 42.5L37.65 42.395Z" fill="black"/>
</g>
<defs>
<clipPath id="clip0_2002_30">
<rect width="60" height="60" fill="white"/>
</clipPath>
</defs>
</svg>
