<svg width="64" height="64" viewBox="0 0 64 64" fill="none" xmlns="http://www.w3.org/2000/svg">
<g clip-path="url(#clip0_74_46)">
<path d="M8.19203 18.72H18.962C17.892 22.696 17.28 27.208 17.28 32H18.72C18.72 27.18 19.338 22.654 20.41 18.72H31.28V32H32.72V18.72H43.59C44.662 22.654 45.28 27.18 45.28 32H46.722C46.722 27.208 46.11 22.696 45.042 18.72H55.81C58.014 22.654 59.282 27.18 59.282 32H60.724C60.724 16.164 47.84 3.28003 32.004 3.28003C16.168 3.28003 3.28003 16.164 3.28003 32H4.72003C4.72003 27.18 5.98803 22.654 8.19203 18.72ZM20.836 17.28C23.078 10.128 26.898 5.28003 31.28 4.79403V17.28H20.836ZM32.72 17.28V4.79403C37.102 5.28003 40.92 10.128 43.164 17.28H32.72ZM54.932 17.28H44.616C42.942 11.842 40.38 7.57403 37.314 5.24803C44.692 6.71203 50.992 11.164 54.932 17.28ZM26.686 5.24803C23.622 7.57403 21.058 11.842 19.386 17.28H9.06803C13.008 11.164 19.308 6.71203 26.686 5.24803ZM45.28 38V39.08L38 37.28H32.502C31.358 37.28 30.254 37.696 29.396 38.45L28.448 39.28H18.72V38C18.72 37.602 18.398 37.28 18 37.28H4.00003V38.722H17.28V55.28H4.00003V56.722H18C18.398 56.722 18.72 56.4 18.72 56.002V54.722H20.628L24.924 60.806C25.46 61.404 26.204 61.712 26.954 61.712C27.498 61.712 28.044 61.55 28.518 61.216L29.804 60.312C29.88 60.34 29.94 60.396 30.02 60.418C30.254 60.478 30.49 60.51 30.724 60.51C31.196 60.51 31.662 60.386 32.08 60.142L33.744 59.182C34.048 59.294 34.362 59.372 34.688 59.372C35.148 59.372 35.616 59.254 36.044 59.008L37.71 58.046C38.014 58.158 38.328 58.236 38.654 58.236C39.114 58.236 39.584 58.118 40.012 57.872C41.136 57.222 41.568 55.892 41.198 54.72H45.282V56C45.282 56.398 45.604 56.72 46.002 56.72H60.002V55.28H46.722V38.72H60V37.28H46C45.602 37.28 45.28 37.602 45.28 38ZM39.29 56.626C38.68 56.978 37.892 56.768 37.54 56.158L34.54 50.962L33.292 51.68L36.432 57.12L35.324 57.758C34.712 58.116 33.928 57.902 33.574 57.292L31.574 53.828L31.074 52.962L29.828 53.68L30.328 54.544L32.328 58.008L32.332 58.012L32.47 58.25L31.36 58.89C31.068 59.062 30.724 59.106 30.394 59.018C30.064 58.93 29.79 58.72 29.618 58.428L27.614 54.958L26.366 55.676L28.366 59.14L28.37 59.146L28.538 59.436L27.69 60.034C27.16 60.408 26.434 60.324 26.05 59.906L21.59 53.582C21.454 53.39 21.236 53.276 21.002 53.276H18.72V40.72H26.8L23.028 44.02C22.748 44.262 22.58 44.614 22.568 44.982C22.554 45.352 22.696 45.714 22.96 45.976C24.664 47.68 27.368 47.828 29.248 46.324L31.254 44.718H34.56L39.758 54.874C40.108 55.488 39.898 56.274 39.29 56.626ZM40.554 53.28L35.64 43.672C35.516 43.432 35.268 43.28 35 43.28H31C30.836 43.28 30.678 43.336 30.55 43.438L28.346 45.202C27.04 46.246 25.164 46.146 23.974 45.106L30.344 39.532C30.94 39.008 31.706 38.722 32.502 38.722L37.826 38.7L45.28 40.564V53.28H40.554Z" fill="black"/>
</g>
<defs>
<clipPath id="clip0_74_46">
<rect width="64" height="64" fill="white"/>
</clipPath>
</defs>
</svg>
