<svg width="64" height="64" viewBox="0 0 64 64" fill="none" xmlns="http://www.w3.org/2000/svg">
<g clip-path="url(#clip0_74_16)">
<path d="M60.7742 64H3.22582C2.70265 64 2.27863 63.576 2.27863 63.0528V52.0606C2.27863 47.808 4.82973 44.0398 8.77795 42.4605L22.3942 37.0141C22.6326 36.9188 22.8997 36.9241 23.1336 37.0293C23.3679 37.1344 23.5494 37.3299 23.6369 37.5714L27.6448 48.6523L28.9636 44.861L27.7979 42.0118C27.6783 41.7198 27.7124 41.387 27.8879 41.1253C28.0641 40.8632 28.3587 40.706 28.6744 40.706H35.3256C35.6413 40.706 35.9362 40.8632 36.1121 41.1253C36.2879 41.3873 36.3217 41.7198 36.2021 42.0118L35.0367 44.8613L36.3555 48.6526L40.3634 37.5717C40.4505 37.3302 40.6324 37.1347 40.8667 37.0296C41.1006 36.9245 41.3677 36.9191 41.6061 37.0144L55.222 42.4608C59.1706 44.0401 61.7217 47.8087 61.7217 52.0609V63.0531C61.7214 63.576 61.2976 64 60.7742 64ZM4.17301 62.1056H59.8273V52.0606C59.8273 48.5873 57.7435 45.5092 54.5186 44.2194L41.812 39.1368L37.2288 51.8074C37.0924 52.1844 36.7331 52.4297 36.3321 52.4322C35.9308 52.4297 35.5753 52.1749 35.4434 51.796L33.1303 45.1448C33.0545 44.927 33.0605 44.6886 33.1483 44.4752L33.9152 42.6H30.0851L30.8523 44.4749C30.9398 44.6886 30.9461 44.9267 30.8706 45.1448L28.5573 51.796C28.4253 52.1749 28.0695 52.4297 27.6685 52.4322C27.2558 52.431 26.9082 52.1844 26.7718 51.8074L22.1886 39.1368L9.4814 44.2194C6.25652 45.5092 4.17301 48.5869 4.17301 52.0606V62.1056ZM53.5035 59.8567H42.9022C42.379 59.8567 41.955 59.4326 41.955 58.9095V52.3833C41.955 51.8601 42.379 51.4361 42.9022 51.4361H53.5035C54.0267 51.4361 54.4507 51.8601 54.4507 52.3833V58.9095C54.4507 59.4323 54.0267 59.8567 53.5035 59.8567ZM43.8494 57.9623H52.5563V53.3305H43.8494V57.9623ZM32 36.7912C30.5337 36.7912 29.1041 36.5191 27.7506 35.982C26.7045 35.5668 25.8401 35.0446 25.1818 34.4299C23.3635 32.7328 21.4732 29.1013 20.7764 27.6874C19.593 27.63 17.166 26.9991 16.1152 22.9821C15.5936 20.9873 15.7127 19.384 16.4689 18.2171C16.8815 17.5799 17.4009 17.2048 17.8306 16.987C17.823 16.4894 17.8344 15.7641 17.914 14.8953C17.2481 13.8783 15.7916 10.8457 18.2922 6.40714C18.2928 6.40619 18.2931 6.40556 18.2938 6.40461C18.2938 6.40461 18.2966 6.39956 18.2973 6.39829C18.2976 6.39766 18.3102 6.37588 18.3111 6.37398C18.3134 6.37051 18.3156 6.36672 18.3175 6.36325C18.32 6.35914 18.3222 6.35504 18.3244 6.35094C18.325 6.34999 18.3257 6.34904 18.3263 6.34809C19.9631 3.48567 22.0807 2.88263 23.5715 2.88168C23.5719 2.88168 23.5722 2.88168 23.5725 2.88168H23.5731C23.5738 2.88168 23.5747 2.88168 23.5747 2.88168H23.5753C23.9409 2.88168 24.2706 2.91894 24.55 2.96977C25.2294 1.77567 27.1352 0 32.4527 0C32.4521 0 32.4531 0 32.4527 0H32.4534C32.4565 0 32.4597 0 32.4629 0L32.7034 0.00126293C32.7056 0.00126293 32.7079 0.00126293 32.7101 0.00126293H32.7116C32.7148 0.00126293 32.7176 0.00126293 32.7202 0.00126293C36.2302 0.0400979 39.0288 1.3267 40.7719 2.41219C44.0833 4.0322 46.1081 7.41684 46.6048 9.17357C46.822 9.94301 46.9309 10.8375 46.9278 11.8317C46.9278 11.832 46.9278 11.8323 46.9278 11.8327C46.9278 11.8327 46.9278 11.833 46.9278 11.8333C46.9278 11.8342 46.9278 11.8355 46.9278 11.8368C46.9278 11.8371 46.9278 11.8377 46.9278 11.838C46.9278 11.8387 46.9278 11.8396 46.9278 11.8406C46.9278 11.8418 46.9278 11.8437 46.9278 11.8453C46.9278 11.8466 46.9278 11.8481 46.9278 11.8494C46.9278 11.851 46.9278 11.8529 46.9278 11.8544C46.917 14.1302 46.3345 16.3129 46.1703 16.8837C46.17 16.9188 46.1697 16.9529 46.1691 16.9857C46.5988 17.2036 47.1185 17.5787 47.5308 18.2158C48.2873 19.3831 48.406 20.986 47.8844 22.9808C46.834 26.9979 44.407 27.629 43.2236 27.6865C42.5268 29.1003 40.6365 32.7319 38.8179 34.4292C38.1593 35.044 37.2951 35.5662 36.2491 35.9811C34.8956 36.5191 33.4659 36.7912 32 36.7912ZM21.3456 25.7703C21.7116 25.7703 22.0608 25.9777 22.218 26.3153C22.2404 26.3639 24.5071 31.2088 26.4744 33.0451C26.9593 33.4978 27.6236 33.8934 28.449 34.2212C29.5793 34.6695 30.7737 34.8972 31.9997 34.8972C33.2257 34.8972 34.4201 34.6698 35.5504 34.2212C36.3754 33.8938 37.04 33.4981 37.5253 33.0454C39.4926 31.2088 41.7592 26.3642 41.7817 26.3156C41.9667 25.9184 42.4011 25.7002 42.8293 25.7867C42.8289 25.7867 42.8289 25.7867 42.8289 25.7867C42.8315 25.7867 42.9088 25.7981 43.0297 25.7981C43.8364 25.7981 45.3014 25.37 46.0513 22.5028C46.4216 21.0867 46.3898 19.9713 45.9597 19.2773C45.5966 18.6916 45.0447 18.571 45.0211 18.5663C44.5342 18.4851 44.2087 18.0469 44.2504 17.555C44.2504 17.5531 44.274 17.2613 44.2763 16.7761C44.2592 16.5112 44.126 15.7114 43.725 15.3306C43.24 14.9432 40.2892 14.374 37.4356 13.8233C36.2362 13.5919 34.8769 13.3299 33.4441 13.0365C33.4426 13.0362 33.4407 13.0359 33.4388 13.0356C32.5023 12.8654 31.6947 12.6349 31.0364 12.3511C28.6296 11.4623 26.9735 10.1877 25.967 9.21525C25.6045 10.2202 25.0226 11.467 24.1496 12.4098C22.601 14.0826 20.7274 14.9682 19.7771 15.3392C19.6761 16.6561 19.7471 17.5455 19.748 17.5556C19.7891 18.0469 19.4462 18.4889 18.96 18.5697C18.9537 18.5716 18.4018 18.6922 18.0387 19.2779C17.6086 19.9719 17.5768 21.0874 17.9471 22.5034C18.6973 25.3709 20.1626 25.7987 20.969 25.7987C21.1016 25.7987 21.1821 25.7851 21.1827 25.7851C21.2377 25.7747 21.292 25.7703 21.3456 25.7703ZM25.5389 6.34494C25.853 6.34494 26.152 6.50154 26.3295 6.77054C26.3437 6.7917 28.0063 9.21841 31.7161 10.5817C31.7341 10.5884 31.7512 10.595 31.7686 10.6026C32.3012 10.835 32.9832 11.0272 33.7952 11.174C33.8072 11.1763 33.8189 11.1785 33.8309 11.181C35.247 11.4708 36.6005 11.7323 37.7952 11.9627C42.1021 12.7937 44.0312 13.1862 44.8793 13.8287C44.9671 13.2067 45.0305 12.5263 45.0337 11.8462C45.0337 11.845 45.0337 11.8434 45.0337 11.8418C45.0337 11.8409 45.0337 11.8396 45.0337 11.8387C45.0337 11.8377 45.0337 11.8365 45.0337 11.8355C45.0337 11.8355 45.0337 11.8352 45.0337 11.8349C45.0337 11.8342 45.0337 11.8333 45.0337 11.8327C45.0337 11.8323 45.0337 11.832 45.0337 11.8314C45.0337 11.8314 45.0337 11.8311 45.0337 11.8308C45.0337 11.8298 45.0337 11.8289 45.0337 11.8276C45.0337 11.8267 45.0337 11.8257 45.0337 11.8248C45.0359 11.0623 44.962 10.386 44.8152 9.8123C44.8045 9.77094 44.7937 9.73021 44.7824 9.69011C44.7593 9.60834 44.7319 9.52277 44.7006 9.43374C44.1553 7.88539 42.3793 5.30744 39.9242 4.10735C39.8854 4.08967 39.8478 4.06946 39.8115 4.04673C38.2786 3.08501 35.7998 1.93101 32.7 1.89691C32.6974 1.89691 32.6946 1.89691 32.6924 1.89691L32.4531 1.89439C32.3018 1.89439 32.1544 1.89597 32.0104 1.89881C32.0085 1.89881 32.0073 1.89881 32.0054 1.89881C26.6853 2.01184 26.0835 4.13797 26.0554 4.25322C26.0513 4.27721 26.0469 4.30121 26.0412 4.3252C26.0084 4.46507 25.9455 4.59168 25.8606 4.69871C25.7956 4.78049 25.7185 4.84963 25.6326 4.90489C25.4966 4.99266 25.3377 5.04633 25.1695 5.05517C25.0687 5.06086 24.968 5.05012 24.8683 5.02265C24.8218 5.00971 24.7767 4.99392 24.7334 4.97466C24.6674 4.94846 24.2071 4.77575 23.5747 4.77575C23.5741 4.77575 23.5738 4.77575 23.5731 4.77575C22.129 4.77638 20.9128 5.62886 19.9583 7.3095C19.9577 7.31044 19.9571 7.31139 19.9564 7.31234C19.9564 7.31265 19.9561 7.31265 19.9561 7.31297C19.9548 7.31518 19.9536 7.31707 19.9523 7.31928C19.9504 7.32276 19.9485 7.32591 19.9466 7.32939C19.946 7.33065 19.9454 7.3316 19.9447 7.33286C19.9441 7.33349 19.9438 7.33412 19.9435 7.33475C18.2016 10.4251 18.8173 12.5547 19.2874 13.4918C20.1114 13.1467 21.5692 12.4082 22.7598 11.1223C23.8664 9.92722 24.4695 7.8213 24.6084 7.11058C24.6823 6.73297 24.9772 6.43776 25.3545 6.36325C25.4164 6.35062 25.4779 6.34494 25.5389 6.34494Z" fill="black"/>
</g>
<defs>
<clipPath id="clip0_74_16">
<rect width="64" height="64" fill="white"/>
</clipPath>
</defs>
</svg>
