<svg width="90" height="90" viewBox="0 0 90 90" fill="none" xmlns="http://www.w3.org/2000/svg">
<path d="M45.0889 34.5811C50.4278 34.5811 54.733 30.2755 54.733 24.937C54.733 19.5986 50.4619 15.293 45.0889 15.293C39.7501 15.293 35.4449 19.5986 35.4449 24.937C35.479 30.3103 39.7846 34.5811 45.0889 34.5811ZM22.7007 62.5148H5.37574C-0.23836 62.5148 -0.548438 53.9385 5.4791 53.9385H20.4961L29.1069 41.2632C31.6557 37.7845 34.5491 36.1311 38.6476 36.1311H51.4951C55.594 36.1311 58.487 37.6467 61.0358 41.2632L69.6811 53.9385H84.8018C90.8638 53.9385 90.4848 62.5148 85.0085 62.5148H67.6835C66.3057 62.5148 64.6523 62.0325 63.688 60.5517L57.0748 51.1144L57.0403 74.7425H33.3436L33.3091 51.1144L26.6959 60.5517C25.7316 61.998 24.0785 62.5148 22.7007 62.5148Z" fill="black"/>
<path d="M19.5968 43.978L14.3096 38.6719L19.5968 33.3847V43.978ZM3.09094 44.9824L8.37809 39.6953L8.60555 39.9037C9.85641 41.0976 11.8459 41.0976 13.0398 39.9037L13.2673 39.6763L18.5924 44.9634H3.09094V44.9824ZM2.14348 33.3847L7.41164 38.6719L2.12449 43.978L2.14348 33.3847ZM18.5924 32.3803L12.0923 38.8803C11.4289 39.5437 10.254 39.5247 9.57199 38.8613L3.09094 32.3803H18.5924ZM0.703125 46.4038H21.0938V30.9399H0.703125V46.4038Z" fill="#EBD300"/>
<path d="M86.748 36.7794V47.0886H68.9062V29.2468H83.5095L80.9536 31.7957H71.4551V44.5398H84.1992V39.3209L86.748 36.7794ZM89.2969 30.6538L87.4972 28.8489L77.8384 38.4771L74.8554 35.4941L73.0533 37.2962L77.8359 42.0792L89.2969 30.6538Z" fill="#EBD300"/>
</svg>
