<svg width="64" height="64" viewBox="0 0 64 64" fill="none" xmlns="http://www.w3.org/2000/svg">
<g clip-path="url(#clip0_74_38)">
<path d="M60.8 53.12C54.4338 49.744 49.5505 47.851 45.2035 47.1253L45.6534 46.5067C45.8667 46.2934 45.9734 45.9734 45.8667 45.6534L44.8671 41.655C45.2294 41.1429 45.5711 40.6134 45.8913 40.069C49.8662 38.7161 51.8764 36.4292 52.2141 33.0622C53.9601 32.9712 55.4666 31.4129 55.4666 29.6534V21.6534C55.4666 19.9019 54.0732 18.3497 52.2479 18.2459C52.013 12.0839 49.296 0 32 0C14.7036 0 11.9869 12.0844 11.752 18.2463C10.0204 18.3485 8.53337 19.8024 8.53337 21.6532V29.6532C8.53337 31.4666 10.1334 33.0666 12.0534 33.0666H13.6534C14.2414 33.0666 14.8065 32.8976 15.2987 32.6084C15.9036 35.819 17.2385 38.9769 19.133 41.6549L18.1334 45.6533C18.1334 45.8666 18.1334 46.1866 18.3468 46.5066L18.7966 47.1251C14.4496 47.851 9.56637 49.7439 3.20012 53.1199C1.17337 54.08 0 56.1066 0 58.3466V62.9333C0 63.5734 0.426625 64 1.06662 64H26.6666H27.0933H36.9066H37.3332H62.9333C63.5732 64 63.9999 63.5734 63.9999 62.9334V58.3467C64 56.2134 62.72 54.1866 60.8 53.12ZM32.0059 50.6801L34.56 56.5334H29.4044L32.0059 50.6801ZM28.6294 58.6666H35.3665L35.9909 61.8666H27.9893L28.6294 58.6666ZM43.2 43.7334L43.6266 45.6534L42.537 47.1495C42.4675 47.2064 42.4031 47.2752 42.3466 47.36L37.9098 53.5034L36.502 55.4364L33.6264 48.9663C37.1336 48.5385 40.2569 46.751 42.761 44.1898C42.909 44.0405 43.0555 43.8889 43.2 43.7334ZM47.3651 37.098C47.9667 35.6341 48.4202 34.1125 48.707 32.5788C49.1131 32.8247 49.5755 32.9891 50.074 33.0449C49.8891 34.5526 49.2192 35.9761 47.3651 37.098ZM53.2266 21.5466V29.5466C53.2266 30.1866 52.6932 30.8266 51.9466 30.8266H50.3466C49.7066 30.8266 49.0666 30.2933 49.0666 29.5466V28.8V21.5466C49.0666 20.9066 49.6 20.2666 50.3466 20.2666H51.9466C52.5866 20.2666 53.2266 20.8 53.2266 21.5466ZM32 2.13337C38.5746 2.13337 49.6398 4.27963 50.1155 18.2574C49.6685 18.3033 49.2404 18.4391 48.8531 18.6479C47.5551 10.5252 40.4734 4.26662 32 4.26662C23.5278 4.26662 16.4468 10.5235 15.1474 18.6444C14.7659 18.4384 14.3399 18.3022 13.8844 18.257C14.3604 4.27962 25.4255 2.13337 32 2.13337ZM14.8266 29.5466C14.8266 30.1866 14.2933 30.8266 13.5466 30.8266H11.9466C11.3066 30.8266 10.6666 30.2933 10.6666 29.5466V21.5466C10.6666 20.9066 11.2 20.2666 11.9466 20.2666H13.5466C14.1866 20.2666 14.8266 20.8 14.8266 21.5466V29.5466ZM17.0666 21.3334C17.0666 13.12 23.7866 6.4 32 6.4C40.2134 6.4 46.9334 13.12 46.9334 21.3334V28.8C46.9334 32.329 46.0146 35.5599 44.5251 38.2859C41.9791 39.0244 38.3165 39.4666 33.0667 39.4666C32.4268 39.4666 32.0001 39.8932 32.0001 40.5332C32.0001 41.1732 32.4268 41.5999 33.0667 41.5999C36.9099 41.5999 40.124 41.3639 42.7561 40.8705C42.6908 40.9359 42.6254 41.0012 42.56 41.0666C42.0234 41.7821 41.457 42.4345 40.8652 43.0228C38.3536 45.3626 35.358 46.78 32.4712 46.9204C32.326 46.858 32.1631 46.8266 32 46.8266C31.836 46.8266 31.6882 46.8587 31.5557 46.9217C29.7887 46.8407 27.9804 46.2806 26.2663 45.3226C24.5296 44.3249 22.896 42.8865 21.44 41.0666C21.3334 40.96 21.2266 40.8532 21.12 40.7466L21.0578 40.7259C18.6623 37.5841 17.0666 33.451 17.0666 28.8V21.3334ZM30.3735 48.9663L27.4979 55.4364L26.0901 53.5034L21.6532 47.36C21.6192 47.326 21.5817 47.2924 21.5427 47.2593L20.3732 45.6534L20.7999 43.7334C20.9443 43.8889 21.0907 44.0404 21.2385 44.1895C23.7428 46.7507 26.8663 48.5384 30.3735 48.9663ZM2.13337 58.3466C2.13337 56.96 2.88 55.68 4.16 55.04C10.9591 51.428 15.8535 49.6151 20.2135 49.0736L26.5788 57.8259L25.7706 61.8666H2.13337V58.3466ZM61.8666 61.8666H38.2294L37.4212 57.8259L43.8555 48.9787C48.2001 49.6344 53.1824 51.4459 59.8401 54.9333C61.1201 55.6799 61.8667 56.9599 61.8667 58.3466L61.8666 61.8666Z" fill="black"/>
</g>
<defs>
<clipPath id="clip0_74_38">
<rect width="64" height="64" fill="white"/>
</clipPath>
</defs>
</svg>
