<svg width="90" height="90" viewBox="0 0 90 90" fill="none" xmlns="http://www.w3.org/2000/svg">
<path d="M81.4016 13.9017C82.866 12.4372 82.866 10.0628 81.4016 8.59834C79.9372 7.13389 77.5628 7.13389 76.0984 8.59834L8.59834 76.0984C7.13389 77.5628 7.13389 79.9372 8.59834 81.4016C10.0628 82.866 12.4372 82.866 13.9017 81.4016L81.4016 13.9017Z" fill="#EBD300"/>
<path fill-rule="evenodd" clip-rule="evenodd" d="M41.25 24.375C41.25 33.6948 33.6948 41.25 24.375 41.25C15.0552 41.25 7.5 33.6948 7.5 24.375C7.5 15.0552 15.0552 7.5 24.375 7.5C33.6948 7.5 41.25 15.0552 41.25 24.375ZM15.026 24.375C15.026 29.5383 19.2117 33.724 24.375 33.724C29.5383 33.724 33.724 29.5383 33.724 24.375C33.724 19.2117 29.5383 15.026 24.375 15.026C19.2117 15.026 15.026 19.2117 15.026 24.375Z" fill="#EBD300"/>
<path fill-rule="evenodd" clip-rule="evenodd" d="M82.5 65.625C82.5 74.9449 74.9449 82.5 65.625 82.5C56.3051 82.5 48.75 74.9449 48.75 65.625C48.75 56.3051 56.3051 48.75 65.625 48.75C74.9449 48.75 82.5 56.3051 82.5 65.625ZM56.2759 65.625C56.2759 70.7884 60.4616 74.9741 65.625 74.9741C70.7884 74.9741 74.9741 70.7884 74.9741 65.625C74.9741 60.4616 70.7884 56.2759 65.625 56.2759C60.4616 56.2759 56.2759 60.4616 56.2759 65.625Z" fill="#EBD300"/>
</svg>
