<svg width="90" height="90" viewBox="0 0 90 90" fill="none" xmlns="http://www.w3.org/2000/svg">
<path fill-rule="evenodd" clip-rule="evenodd" d="M80.7939 46.3221C81.8467 47.375 82.4381 48.808 82.4381 50.2992V76.8042C82.4381 79.9083 79.9245 82.4236 76.8176 82.4292L50.3006 82.4405C48.8119 82.4405 47.3801 81.8472 46.3196 80.7925L26.1634 60.6342C24.9281 66.5213 24.249 73.0988 24.249 80.3967C24.249 81.4323 23.4096 82.2717 22.374 82.2717C21.3384 82.2717 20.499 81.4323 20.499 80.3967C20.499 71.8598 21.4009 64.2387 23.0272 57.4977L9.15145 43.6205C6.95071 41.4254 6.95071 37.858 9.14967 35.6646L35.6623 9.14838C37.8607 6.94989 41.4217 6.94989 43.6202 9.14838L72.3161 37.8443C72.8527 36.4835 73.3303 35.1273 73.7344 33.7977C77.0287 22.9619 75.1132 16.8334 67.4434 16.8334C64.6239 16.8334 61.9378 17.1966 59.3867 17.8924C58.3877 18.1648 57.3568 17.5758 57.0844 16.5768C56.8119 15.5778 57.4009 14.547 58.4 14.2745C61.2712 13.4914 64.289 13.0834 67.4434 13.0834C78.4432 13.0834 81.2353 22.0171 77.3222 34.8886C76.74 36.8035 76.0189 38.7657 75.1924 40.7206L80.7939 46.3221ZM24.1588 53.3256L11.8015 40.9671C11.068 40.2355 11.068 39.0479 11.7997 38.318L38.3139 11.7999C39.048 11.066 40.2345 11.066 40.9685 11.8L70.7171 41.5486C67.3416 48.7585 62.6497 55.5205 58.8062 58.4526C57.9829 59.0808 57.8244 60.2573 58.4525 61.0806C59.0807 61.904 60.2572 62.0622 61.0806 61.4343C65.2116 58.2828 69.9675 51.6166 73.5292 44.3607L78.1423 48.9738C78.4905 49.322 78.6881 49.8008 78.6881 50.2992V76.8042C78.6881 77.839 77.8504 78.6773 76.8135 78.6792L50.2999 78.6905C49.8049 78.6905 49.3234 78.491 48.9679 78.1373L27.1897 56.357C28.1327 52.8833 29.2819 49.6776 30.6069 46.7326C31.9832 43.6743 33.4509 41.1297 34.9102 39.0758C35.7654 37.8721 36.411 37.1138 36.7461 36.7788C37.4782 36.0466 37.4782 34.8593 36.7461 34.1271C36.0139 33.395 34.8266 33.395 34.0944 34.1271C33.6141 34.6073 32.8327 35.5253 31.8532 36.9038C30.2548 39.1536 28.665 41.9097 27.1871 45.194C26.0473 47.7271 25.0324 50.4366 24.1588 53.3256ZM59.9434 65.5685C63.0478 65.5685 65.5684 63.0479 65.5684 59.9435C65.5684 58.9079 66.4078 58.0685 67.4434 58.0685C68.4789 58.0685 69.3184 58.9079 69.3184 59.9435C69.3184 65.119 65.1189 69.3185 59.9434 69.3185C54.7678 69.3185 50.5684 65.119 50.5684 59.9435C50.5684 54.7679 54.7678 50.5685 59.9434 50.5685C60.9789 50.5685 61.8184 51.4079 61.8184 52.4435C61.8184 53.479 60.9789 54.3185 59.9434 54.3185C56.8389 54.3185 54.3184 56.839 54.3184 59.9435C54.3184 63.0479 56.8389 65.5685 59.9434 65.5685Z" fill="#EBD300"/>
</svg>
