<svg width="64" height="64" viewBox="0 0 64 64" fill="none" xmlns="http://www.w3.org/2000/svg">
<g clip-path="url(#clip0_74_26)">
<path d="M43.4205 25.9129L40.2206 22.7129C39.8035 22.2958 39.1294 22.2958 38.7124 22.7129L27.7333 33.692L24.2209 30.1795C23.8038 29.7624 23.1297 29.7624 22.7127 30.1795L19.5127 33.3795C19.0956 33.7965 19.0956 34.4707 19.5127 34.8877L26.9792 42.3542C27.1872 42.5633 27.4603 42.6667 27.7333 42.6667C28.0065 42.6667 28.2794 42.5622 28.4874 42.3542L43.4205 27.4211C43.8376 27.0041 43.8376 26.33 43.4205 25.9129ZM27.7333 40.0918L21.7751 34.1336L23.4668 32.4419L26.9792 35.9543C27.3963 36.3714 28.0705 36.3714 28.4874 35.9543L39.4665 24.9753L41.1582 26.667L27.7333 40.0918Z" fill="black"/>
<path d="M63.7521 37.7175L58.9884 32.0003L63.7521 26.283C64.0177 25.9651 64.0742 25.5225 63.8994 25.1482C63.7234 24.7738 63.3469 24.5338 62.933 24.5338H48.9246L47.9892 17.9836C47.9145 17.4577 47.4644 17.0673 46.9332 17.0673H38.7861C37.5296 16.0198 32.6827 11.9815 32.6827 11.9815C32.287 11.6509 31.7131 11.6509 31.3174 11.9815L25.214 17.0673H17.0669C16.5357 17.0673 16.0867 17.4577 16.0109 17.9826L15.0754 24.5339H1.06745C0.653587 24.5339 0.277094 24.7739 0.101097 25.1483C-0.0748992 25.5238 -0.0172753 25.9664 0.248344 26.2831L5.012 32.0004L0.248344 37.7177C-0.0172753 38.0355 -0.0737743 38.4782 0.101097 38.8525C0.277094 39.228 0.653587 39.4669 1.06745 39.4669H15.0757C15.3604 41.4562 16.0122 46.0183 16.0122 46.0183C16.0868 46.5441 16.5369 46.9335 17.067 46.9335H25.2141L31.3175 52.0193C31.5159 52.1846 31.758 52.2668 32.0001 52.2668C32.2422 52.2668 32.4855 52.1846 32.6827 52.0193L38.785 46.9335C40.4426 46.9335 46.9352 46.9377 46.9331 46.9335C47.4643 46.9335 47.9133 46.5431 47.989 46.0183C47.989 46.0183 48.6408 41.4562 48.9255 39.4669H62.9327C63.3466 39.4669 63.7231 39.2269 63.8991 38.8525C64.0753 38.4769 64.0177 38.0343 63.7521 37.7175ZM3.34478 37.3336L7.21996 32.683C7.54958 32.2873 7.54958 31.7124 7.21996 31.3177L3.34478 26.667H13.7232L9.84803 31.3175C9.51841 31.7133 9.51841 32.2881 9.84803 32.6829L13.7232 37.3334H3.34478V37.3336ZM47.1818 37.7164C47.1296 37.7793 47.0837 37.8487 47.0474 37.9223C46.9728 38.0717 46.9696 38.078 46.0096 44.8C38.1495 44.8 38.142 44.8043 37.9234 44.9132C37.8497 44.9505 37.7805 44.9953 37.7175 45.0475L32.0002 49.8112L26.283 45.0475C26.0921 44.8875 25.8498 44.8 25.6003 44.8H17.992C17.032 38.078 17.0288 38.0717 16.9541 37.9223C16.9168 37.8487 16.872 37.7794 16.8198 37.7164L12.0561 32.0003L16.8198 26.283C16.9468 26.1305 17.0289 25.947 17.0565 25.7508L17.992 19.2005H25.6003C25.85 19.2005 26.091 19.113 26.283 18.953L32.0002 14.1894C37.8114 19.0319 37.8156 19.034 37.9234 19.0885C38.0716 19.1622 38.2349 19.2005 38.4001 19.2005H46.0084L46.9439 25.7519C46.9717 25.9481 47.0538 26.1316 47.1807 26.2841L51.9443 32.0003L47.1818 37.7164ZM50.2771 37.3336L54.1523 32.683C54.4819 32.2873 54.4819 31.7124 54.1523 31.3177L50.2771 26.6671H60.6555L56.7804 31.3177C56.4507 31.7134 56.4507 32.2883 56.7804 32.683L60.6555 37.3336H50.2771Z" fill="black"/>
</g>
<defs>
<clipPath id="clip0_74_26">
<rect width="64" height="64" fill="white"/>
</clipPath>
</defs>
</svg>
