<svg width="60" height="60" viewBox="0 0 60 60" fill="none" xmlns="http://www.w3.org/2000/svg">
<path d="M40.1529 3.28125H19.8467C18.3548 3.28125 16.9241 3.87388 15.8692 4.92877C14.8143 5.98367 14.2217 7.41441 14.2217 8.90625V26.8687C14.2217 28.3606 14.8143 29.7913 15.8692 30.8462C16.9241 31.9011 18.3548 32.4937 19.8467 32.4937H21.9373L29.2873 41.1469C29.4112 41.2916 29.5763 41.3952 29.7605 41.4437C29.9447 41.4923 30.1394 41.4836 30.3186 41.4188C30.5004 41.3542 30.6576 41.2347 30.7684 41.0768C30.8793 40.9189 30.9383 40.7304 30.9373 40.5375V32.4937H40.1529C41.6448 32.4937 43.0755 31.9011 44.1304 30.8462C45.1853 29.7913 45.7779 28.3606 45.7779 26.8687V8.90625C45.7779 7.41441 45.1853 5.98367 44.1304 4.92877C43.0755 3.87388 41.6448 3.28125 40.1529 3.28125ZM43.9029 26.8687C43.9029 27.8633 43.5078 28.8171 42.8046 29.5204C42.1013 30.2237 41.1475 30.6187 40.1529 30.6187H29.9998C29.7512 30.6187 29.5127 30.7175 29.3369 30.8933C29.1611 31.0692 29.0623 31.3076 29.0623 31.5562V37.9875L23.0811 30.9469C22.9926 30.8445 22.8832 30.7622 22.7603 30.7056C22.6374 30.649 22.5039 30.6194 22.3686 30.6187H19.8467C18.8521 30.6187 17.8983 30.2237 17.195 29.5204C16.4918 28.8171 16.0967 27.8633 16.0967 26.8687V8.90625C16.0967 7.91169 16.4918 6.95786 17.195 6.2546C17.8983 5.55134 18.8521 5.15625 19.8467 5.15625H40.1529C41.1475 5.15625 42.1013 5.55134 42.8046 6.2546C43.5078 6.95786 43.9029 7.91169 43.9029 8.90625V26.8687Z" fill="black"/>
<path d="M41.8684 10.0781C41.8684 10.3268 41.7696 10.5652 41.5938 10.741C41.418 10.9169 41.1795 11.0156 40.9309 11.0156H19.0684C18.8197 11.0156 18.5813 10.9169 18.4054 10.741C18.2296 10.5652 18.1309 10.3268 18.1309 10.0781C18.1309 9.82948 18.2296 9.59103 18.4054 9.41521C18.5813 9.2394 18.8197 9.14062 19.0684 9.14062H40.9309C41.1795 9.14062 41.418 9.2394 41.5938 9.41521C41.7696 9.59103 41.8684 9.82948 41.8684 10.0781Z" fill="black"/>
<path d="M41.8684 13.9874C41.8684 14.236 41.7696 14.4744 41.5938 14.6503C41.418 14.8261 41.1795 14.9249 40.9309 14.9249H19.0684C18.8197 14.9249 18.5813 14.8261 18.4054 14.6503C18.2296 14.4744 18.1309 14.236 18.1309 13.9874C18.1309 13.7387 18.2296 13.5003 18.4054 13.3244C18.5813 13.1486 18.8197 13.0499 19.0684 13.0499H40.9309C41.0543 13.0486 41.1768 13.072 41.2911 13.1187C41.4054 13.1653 41.5093 13.2343 41.5966 13.3216C41.6839 13.409 41.7529 13.5128 41.7996 13.6271C41.8462 13.7414 41.8696 13.8639 41.8684 13.9874Z" fill="black"/>
<path d="M41.8684 17.8877C41.8684 18.1363 41.7696 18.3748 41.5938 18.5506C41.418 18.7264 41.1795 18.8252 40.9309 18.8252H19.0684C18.8197 18.8252 18.5813 18.7264 18.4054 18.5506C18.2296 18.3748 18.1309 18.1363 18.1309 17.8877C18.1309 17.6391 18.2296 17.4006 18.4054 17.2248C18.5813 17.049 18.8197 16.9502 19.0684 16.9502H40.9309C41.1795 16.9502 41.418 17.049 41.5938 17.2248C41.7696 17.4006 41.8684 17.6391 41.8684 17.8877Z" fill="black"/>
<path d="M41.8686 21.7969C41.8686 22.0456 41.7698 22.284 41.594 22.4598C41.4182 22.6357 41.1797 22.7344 40.9311 22.7344H26.8779C26.6293 22.7344 26.3908 22.6357 26.215 22.4598C26.0392 22.284 25.9404 22.0456 25.9404 21.7969C25.9404 21.5483 26.0392 21.3098 26.215 21.134C26.3908 20.9582 26.6293 20.8594 26.8779 20.8594H40.9311C41.0545 20.8582 41.177 20.8816 41.2913 20.9282C41.4056 20.9749 41.5095 21.0439 41.5968 21.1312C41.6841 21.2185 41.7531 21.3224 41.7997 21.4367C41.8464 21.551 41.8698 21.6735 41.8686 21.7969Z" fill="black"/>
<path d="M41.8686 25.6973C41.8686 25.9459 41.7698 26.1844 41.594 26.3602C41.4182 26.536 41.1797 26.6348 40.9311 26.6348H26.8779C26.6293 26.6348 26.3908 26.536 26.215 26.3602C26.0392 26.1844 25.9404 25.9459 25.9404 25.6973C25.9404 25.4486 26.0392 25.2102 26.215 25.0344C26.3908 24.8585 26.6293 24.7598 26.8779 24.7598H40.9311C41.1797 24.7598 41.4182 24.8585 41.594 25.0344C41.7698 25.2102 41.8686 25.4486 41.8686 25.6973Z" fill="black"/>
<path d="M17.484 43.6411C17.4216 43.4538 17.3022 43.2907 17.1425 43.1747C16.9828 43.0587 16.7908 42.9956 16.5934 42.9942H12.7215L11.5215 39.3098C11.4599 39.1222 11.3406 38.9589 11.1807 38.8432C11.0207 38.7274 10.8283 38.665 10.6309 38.665C10.4335 38.665 10.2411 38.7274 10.0811 38.8432C9.92121 38.9589 9.80192 39.1222 9.74027 39.3098L8.54027 42.9942H4.66839C4.46999 42.9935 4.27648 43.0557 4.11571 43.172C3.95493 43.2882 3.83519 43.4525 3.7737 43.6411C3.71221 43.8298 3.71215 44.033 3.77353 44.2217C3.83491 44.4104 3.95456 44.5747 4.11527 44.6911L7.24652 46.9692L6.05589 50.6442C6.01002 50.7849 5.9981 50.9344 6.02111 51.0806C6.04412 51.2267 6.1014 51.3654 6.18827 51.4852C6.27514 51.605 6.38913 51.7025 6.52092 51.7698C6.6527 51.8371 6.79855 51.8722 6.94652 51.8723C7.14501 51.8724 7.3385 51.8101 7.49964 51.6942L10.6309 49.4161L13.7621 51.6942C13.9218 51.8096 14.1138 51.8718 14.3108 51.872C14.5078 51.8721 14.6998 51.8102 14.8596 51.695C15.0195 51.5798 15.1389 51.4172 15.2011 51.2302C15.2633 51.0433 15.2649 50.8415 15.2059 50.6536L14.0059 46.9692L17.1465 44.6911C17.3052 44.573 17.423 44.4084 17.4835 44.2201C17.544 44.0319 17.5442 43.8294 17.484 43.6411ZM12.0184 46.8942L12.534 48.4879L11.184 47.5036C11.024 47.3848 10.8301 47.3207 10.6309 47.3207C10.4317 47.3207 10.2377 47.3848 10.0778 47.5036L8.72777 48.4879L9.24339 46.8942C9.30432 46.7073 9.30447 46.506 9.24384 46.319C9.1832 46.132 9.06489 45.9691 8.90589 45.8536L7.55589 44.8692H9.22464C9.42203 44.8678 9.61403 44.8046 9.77374 44.6886C9.93345 44.5726 10.0529 44.4096 10.1153 44.2223L10.6309 42.6286L11.1465 44.2223C11.2078 44.4103 11.3269 44.574 11.4869 44.6902C11.6469 44.8064 11.8394 44.869 12.0371 44.8692H13.7059L12.3559 45.8536C12.1952 45.9676 12.0755 46.1305 12.0147 46.3179C11.9539 46.5054 11.9552 46.7075 12.0184 46.8942Z" fill="black"/>
<path d="M36.8532 48.478C36.7919 48.29 36.6727 48.1262 36.5128 48.0101C36.3528 47.8939 36.1602 47.8312 35.9625 47.8311H32.0907L30.8907 44.1467C30.829 43.9592 30.7097 43.7958 30.5498 43.6801C30.3899 43.5643 30.1975 43.502 30 43.502C29.8026 43.502 29.6102 43.5643 29.4503 43.6801C29.2904 43.7958 29.1711 43.9592 29.1094 44.1467L27.9094 47.8311H24.0375C23.8391 47.8304 23.6456 47.8926 23.4848 48.0089C23.3241 48.1251 23.2043 48.2894 23.1428 48.478C23.0814 48.6667 23.0813 48.87 23.1427 49.0586C23.2041 49.2473 23.3237 49.4116 23.4844 49.528L26.625 51.8061L25.425 55.4905C25.3649 55.6788 25.365 55.8813 25.4255 56.0696C25.4861 56.2578 25.6039 56.4225 25.7625 56.5405C25.9243 56.6548 26.1175 56.7163 26.3157 56.7163C26.5138 56.7163 26.707 56.6548 26.8688 56.5405L30 54.2623L33.1313 56.5405C33.2925 56.6563 33.4859 56.7186 33.6844 56.7186C33.8829 56.7186 34.0764 56.6563 34.2375 56.5405C34.3962 56.4225 34.514 56.2578 34.5745 56.0696C34.635 55.8813 34.6352 55.6788 34.575 55.4905L33.375 51.8061L36.5157 49.528C36.6757 49.4111 36.7945 49.2465 36.8551 49.0578C36.9158 48.8692 36.9151 48.6662 36.8532 48.478ZM31.3875 51.7405L31.9032 53.3248L30.5532 52.3405C30.392 52.2246 30.1985 52.1623 30 52.1623C29.8016 52.1623 29.6081 52.2246 29.4469 52.3405L28.0969 53.3248L28.6125 51.7405C28.6757 51.5523 28.677 51.349 28.6162 51.16C28.5555 50.9711 28.436 50.8066 28.275 50.6905L26.925 49.7061H28.5938C28.7915 49.706 28.9841 49.6433 29.144 49.5271C29.304 49.411 29.4231 49.2472 29.4844 49.0592L30 47.4748L30.5157 49.0592C30.5769 49.2472 30.6961 49.411 30.856 49.5271C31.016 49.6433 31.2086 49.706 31.4063 49.7061H33.075L31.725 50.6905C31.5641 50.8066 31.4446 50.9711 31.3838 51.16C31.3231 51.349 31.3244 51.5523 31.3875 51.7405Z" fill="black"/>
<path d="M56.2213 43.6411C56.1612 43.4524 56.0423 43.2879 55.8821 43.1715C55.7219 43.0552 55.5287 42.993 55.3307 42.9942H51.4588L50.2588 39.3098C50.1972 39.1222 50.0779 38.9589 49.918 38.8432C49.758 38.7274 49.5656 38.665 49.3682 38.665C49.1708 38.665 48.9784 38.7274 48.8184 38.8432C48.6585 38.9589 48.5392 39.1222 48.4776 39.3098L47.2776 42.9942H43.4057C43.2073 42.9935 43.0138 43.0557 42.853 43.172C42.6922 43.2882 42.5725 43.4525 42.511 43.6411C42.4495 43.8298 42.4495 44.033 42.5108 44.2217C42.5722 44.4104 42.6919 44.5747 42.8526 44.6911L45.9932 46.9692L44.7932 50.6536C44.7342 50.8415 44.7358 51.0433 44.798 51.2302C44.8602 51.4172 44.9796 51.5798 45.1394 51.695C45.2993 51.8102 45.4913 51.8721 45.6883 51.872C45.8853 51.8718 46.0773 51.8096 46.2369 51.6942L49.3682 49.4161L52.4994 51.6942C52.6606 51.8101 52.8541 51.8724 53.0526 51.8723C53.2515 51.8752 53.4459 51.8126 53.6057 51.6942C53.7672 51.5786 53.8872 51.414 53.948 51.225C54.0088 51.0359 54.0071 50.8322 53.9432 50.6442L52.7526 46.9692L55.8838 44.6911C56.0438 44.5742 56.1627 44.4096 56.2233 44.2209C56.2839 44.0323 56.2833 43.8293 56.2213 43.6411ZM50.7557 46.8942L51.2713 48.4879L49.9213 47.5036C49.7608 47.3864 49.5669 47.3239 49.3682 47.3254C49.1697 47.3254 48.9762 47.3877 48.8151 47.5036L47.4651 48.4879L47.9807 46.8942C48.0439 46.7075 48.0452 46.5054 47.9844 46.3179C47.9236 46.1305 47.8039 45.9676 47.6432 45.8536L46.2932 44.8692H47.9619C48.1596 44.869 48.3522 44.8064 48.5122 44.6902C48.6722 44.574 48.7913 44.4103 48.8526 44.2223L49.3682 42.6286L49.8838 44.2223C49.9462 44.4096 50.0656 44.5726 50.2254 44.6886C50.3851 44.8046 50.5771 44.8678 50.7744 44.8692H52.4432L51.0932 45.8536C50.9342 45.9691 50.8159 46.132 50.7553 46.319C50.6946 46.506 50.6948 46.7073 50.7557 46.8942Z" fill="black"/>
</svg>
