<svg width="60" height="60" viewBox="0 0 60 60" fill="none" xmlns="http://www.w3.org/2000/svg">
<path d="M54.7681 48.7383C55.0438 48.7543 55.3319 48.78 55.6204 48.7871C56.7525 48.8113 57.6682 49.0465 57.881 50.4272C57.9861 51.1085 58.4299 51.7308 58.6327 52.4061C58.9751 53.5431 58.5216 54.3857 57.4099 54.7673C57.0932 54.8769 56.7615 54.9388 56.4268 54.9522C50.0299 55.1698 43.6327 55.3629 37.2361 55.5902C32.5532 55.7568 27.8719 55.9699 23.1895 56.1552C20.6391 56.2558 18.0879 56.3419 15.5373 56.4343C12.651 56.5386 9.76747 56.6702 6.88121 56.735C5.58532 56.7753 4.28817 56.7287 2.99846 56.5957C1.30194 56.406 0.77262 55.7236 0.767481 54.0198C0.766016 53.643 0.774584 53.2662 0.774092 52.8894C0.771401 51.4696 1.18404 50.9694 2.63988 50.8226C3.42259 50.7436 4.21777 50.8085 5.14065 50.8085C5.29549 43.746 5.44713 36.8264 5.60295 29.705C5.06481 30.0865 4.61354 30.4226 4.14636 30.7347C2.39871 31.9034 0.887835 31.1994 0.702673 29.1182C0.610214 28.0764 0.661579 27.0166 0.504058 25.9873C0.18608 23.9031 1.14001 22.4895 2.70763 21.3098C5.91774 18.8949 9.06718 16.3979 12.3203 14.0402C17.4783 10.3192 22.8281 6.8712 28.3474 3.71073C29.3502 3.13372 29.9908 3.13995 30.936 3.69078C36.3951 6.87225 41.8099 10.1154 47.0392 13.6736C50.5651 16.0728 54.224 18.2786 57.8474 20.5326C58.7743 21.1091 59.3672 21.731 59.2845 22.9352C59.2222 23.8402 59.4235 24.7651 59.5114 25.6806C59.5997 26.5998 59.6866 27.506 59.2133 28.3761C58.6319 29.444 57.8847 29.85 56.7328 29.4628C55.8801 29.1764 55.0867 28.7136 54.316 28.3526C54.4655 35.0873 54.6156 41.8465 54.7681 48.7383ZM51.7442 48.9827C51.7442 48.2039 51.7494 47.5431 51.7442 46.8827C51.6842 40.314 51.6112 33.746 51.5791 27.1773C51.5761 26.5274 51.3119 26.2316 50.8103 25.9073C46.8779 23.3649 42.9674 20.7889 39.0484 18.2269C36.0458 16.263 33.0387 14.2991 30.027 12.3351C29.2323 12.9277 28.5105 13.494 27.7604 14.0228C21.4334 18.4785 15.1001 22.9253 8.76044 27.3629C7.96527 27.9172 7.58176 28.4842 7.61086 29.5032C7.78427 35.5692 7.88481 41.6352 8.01711 47.7011C8.03694 48.6063 8.09638 49.5127 8.14307 50.5386L10.6118 50.3653C10.6118 49.3155 10.6042 48.4405 10.6133 47.5658C10.6707 41.9203 10.413 36.2683 10.9822 30.633C11.1191 29.2764 11.2409 29.1033 12.5823 28.823C12.9091 28.7547 13.2427 28.7141 13.5751 28.6781C15.4456 28.4759 17.3133 28.2344 19.1884 28.0891C23.4826 27.7563 27.7772 27.4124 32.0775 27.1841C36.1711 26.967 40.2715 26.9105 44.3694 26.7439C46.7195 26.6488 47.8107 27.4977 47.9743 29.8329C48.2027 33.0861 48.3984 36.3443 48.5087 39.6038C48.5992 42.2791 48.5396 44.9605 48.5579 47.6374C48.5612 48.1181 48.6197 48.5985 48.6581 49.1642L51.7442 48.9827ZM45.4599 29.5944C40.9345 29.1316 16.6191 30.1714 12.9724 30.9982C12.9514 31.3389 12.9059 31.7046 12.9103 32.0693C12.9816 37.8838 13.0585 43.6983 13.1412 49.5127C13.1742 49.7773 13.2315 50.0381 13.3124 50.2923L16.7596 50.0851C16.7596 48.0358 16.784 46.1534 16.7498 44.2722C16.7331 43.3245 17.1869 42.7748 18.0341 42.5109C18.4746 42.3835 18.9244 42.2914 19.3794 42.2355C20.1147 42.1304 20.8541 42.0563 21.6109 41.9665C21.6109 41.5804 21.6023 41.2957 21.6124 41.0124C21.6721 39.3003 21.6872 37.5864 21.8176 35.8803C21.889 34.9472 22.2358 34.5947 23.1695 34.5255C25.919 34.3213 28.6719 34.1669 31.4283 34.0625C32.3888 34.027 32.7758 34.4377 32.9681 35.3772C33.0852 35.9496 33.1488 36.5337 33.2234 37.1138C33.3863 38.3821 33.5414 39.6511 33.6992 40.9241C33.9042 40.9465 34.1106 40.9547 34.3168 40.9487C36.4746 40.6811 37.1338 41.4492 37.5033 43.3875C37.8835 45.3842 38.1935 47.3944 38.5621 49.5615L45.7748 49.2861C45.6678 42.6317 45.5642 36.156 45.4599 29.5939V29.5944ZM29.9047 5.78718C29.4662 6.07189 29.1245 6.3113 28.7664 6.52361C20.4762 11.44 12.6789 17.0746 4.92662 22.7819C3.78092 23.6255 3.34628 24.4982 3.57253 25.8171C3.65667 26.3063 3.71513 26.8021 3.8088 27.4581C4.96725 26.6235 6.0102 25.8681 7.05707 25.1182C13.8895 20.217 20.7233 15.3169 27.5585 10.4179C27.8635 10.1993 28.1921 10.0123 28.5152 9.81985C28.796 9.63239 29.1298 9.54116 29.4671 9.55983C29.8042 9.57847 30.1261 9.70607 30.3844 9.92338C31.0242 10.394 31.6678 10.8641 32.3412 11.2841C40.0058 16.0633 47.4555 21.1861 55.32 25.6451C55.6655 25.8408 56.0221 26.0174 56.4667 26.2519C56.552 25.4088 56.5729 24.7354 56.6985 24.0836C56.8643 23.2233 56.5494 22.7104 55.8209 22.2383C49.9237 18.4155 44.0713 14.5223 38.1585 10.7235C35.4879 9.00735 32.7105 7.45756 29.9047 5.78671V5.78718ZM2.70005 54.5844C3.39823 54.6842 4.10153 54.7435 4.80651 54.7625C8.77538 54.6324 12.743 54.4647 16.7114 54.3168C19.8865 54.1986 23.0628 54.1044 26.2375 53.9743C29.5371 53.8394 32.8343 53.6348 36.1346 53.5304C41.6079 53.3575 47.0907 53.4205 52.5414 52.7702C53.4127 52.6662 54.2899 52.6148 55.1609 52.5097C55.5067 52.4676 55.9923 52.5246 55.98 51.966C55.9658 51.376 55.506 51.5162 55.1433 51.5273C55.0599 51.5303 54.9768 51.5456 54.8933 51.549C52.0517 51.6596 49.2108 51.8072 46.3681 51.8721C39.4677 52.029 32.5659 52.1333 25.6656 52.2846C18.1809 52.4493 10.6962 52.6435 3.2115 52.8268C3.01216 52.8317 2.81306 52.8581 2.53445 52.8809C2.589 53.4369 2.63597 53.9206 2.70005 54.5844ZM25.3227 49.869V43.7978C23.1213 43.9152 21.0177 43.7978 18.9191 44.2528C19.1522 46.2339 19.3699 48.0846 19.5795 49.869H25.3227ZM34.9136 49.5417C34.7294 47.5178 34.555 45.6 34.3826 43.7027H28.1798C28.4611 45.7815 28.7258 47.7369 29.0014 49.7728L34.9136 49.5417ZM30.7987 36.0056C28.5056 35.9635 26.2548 35.8683 23.8805 36.1675C24.1073 38.0825 24.3208 39.8807 24.5341 41.6885L30.7987 41.0568V36.0056Z" fill="black"/>
</svg>
